<?xml version="1.0" encoding="UTF-8"?>
<svg version="1.1" xmlns="http://www.w3.org/2000/svg" width="160" height="75">
<path d="M0 0 C2.77226122 1.43944333 4.1932414 2.475865 6.25 4.6875 C6.58 3.0375 6.91 1.3875 7.25 -0.3125 C13.52 -0.3125 19.79 -0.3125 26.25 -0.3125 C26.745 1.1725 26.745 1.1725 27.25 2.6875 C27.848125 2.0275 28.44625 1.3675 29.0625 0.6875 C33.68269068 -2.21144317 37.92531448 -2.14273582 43.25 -1.3125 C46.4375 0.6875 46.4375 0.6875 48.25 2.6875 C48.8275 2.39875 49.405 2.11 50 1.8125 C50.7425 1.44125 51.485 1.07 52.25 0.6875 C52.86488281 0.34074219 53.47976562 -0.00601562 54.11328125 -0.36328125 C57.73983415 -1.97434588 61.3582961 -1.77811457 65.25 -1.3125 C68.21912882 0.07730498 69.94657028 1.38407028 72.25 3.6875 C73.19680877 6.52210446 73.37227364 9.11446338 73.36352539 12.08886719 C73.36341209 13.3797525 73.36341209 13.3797525 73.36329651 14.69671631 C73.35813522 15.61664368 73.35297394 16.53657104 73.34765625 17.484375 C73.3462413 18.43314514 73.34482635 19.38191528 73.34336853 20.35943604 C73.33777742 23.38548962 73.32522652 26.41146883 73.3125 29.4375 C73.30748385 31.49088435 73.30292115 33.54426986 73.29882812 35.59765625 C73.28781089 40.62763276 73.27055233 45.65755378 73.25 50.6875 C70.27077407 50.71433987 67.29178705 50.73426037 64.3125 50.75 C63.46236328 50.75837891 62.61222656 50.76675781 61.73632812 50.77539062 C60.92744141 50.77861328 60.11855469 50.78183594 59.28515625 50.78515625 C58.5362915 50.79039307 57.78742676 50.79562988 57.01586914 50.80102539 C55.25 50.6875 55.25 50.6875 54.25 49.6875 C54.16128727 46.65772196 54.1348065 43.65082978 54.15234375 40.62109375 C54.1537587 39.71247086 54.15517365 38.80384796 54.15663147 37.86769104 C54.16224807 34.95342779 54.17480335 32.03924019 54.1875 29.125 C54.19251286 27.15429798 54.19707614 25.18359476 54.20117188 23.21289062 C54.21222289 18.37106441 54.22949862 13.52929505 54.25 8.6875 C53.26 9.0175 52.27 9.3475 51.25 9.6875 C50.92 23.2175 50.59 36.7475 50.25 50.6875 C43.98 50.6875 37.71 50.6875 31.25 50.6875 C31.25 36.8275 31.25 22.9675 31.25 8.6875 C30.26 9.0175 29.27 9.3475 28.25 9.6875 C28.21241577 11.44223633 28.21241577 11.44223633 28.17407227 13.23242188 C28.07941271 17.60100982 27.97933847 21.96946028 27.87768555 26.33789062 C27.83455691 28.22327442 27.79286778 30.10869174 27.75268555 31.99414062 C27.6944442 34.71494624 27.63090932 37.43558648 27.56640625 40.15625 C27.54133751 41.40674133 27.54133751 41.40674133 27.51576233 42.68249512 C27.18765533 55.84653569 27.18765533 55.84653569 25.18359375 59.78125 C20.18133759 64.48310957 15.1007872 64.19414351 8.58569336 63.99414062 C6.80607376 63.91232863 5.02776759 63.80274544 3.25 63.6875 C3.25 60.7175 3.25 57.7475 3.25 54.6875 C4.57 54.6875 5.89 54.6875 7.25 54.6875 C7.25 53.3675 7.25 52.0475 7.25 50.6875 C1.64 50.6875 -3.97 50.6875 -9.75 50.6875 C-10.08 49.6975 -10.41 48.7075 -10.75 47.6875 C-11.6471875 48.7084375 -11.6471875 48.7084375 -12.5625 49.75 C-17.3112979 52.63652421 -21.4572029 51.94503675 -26.75 50.6875 C-30.16062378 48.59936299 -31.53690314 47.00714529 -33.75 43.6875 C-34.12109375 40.5078125 -34.12109375 40.5078125 -34.1875 36.8125 C-34.22746094 35.59820312 -34.26742187 34.38390625 -34.30859375 33.1328125 C-33.58251488 28.65447986 -32.34365879 27.41096654 -28.75 24.6875 C-26.09180321 23.34717465 -23.37582877 22.33993358 -20.5625 21.375 C-19.83869141 21.11138672 -19.11488281 20.84777344 -18.36914062 20.57617188 C-13.0955763 18.6875 -13.0955763 18.6875 -10.75 18.6875 C-11.08 15.7175 -11.41 12.7475 -11.75 9.6875 C-12.74 9.3575 -13.73 9.0275 -14.75 8.6875 C-14.84087891 9.75291016 -14.84087891 9.75291016 -14.93359375 10.83984375 C-15.01738281 11.75894531 -15.10117187 12.67804687 -15.1875 13.625 C-15.26871094 14.54152344 -15.34992187 15.45804688 -15.43359375 16.40234375 C-15.75 18.6875 -15.75 18.6875 -16.75 19.6875 C-19.61267567 19.76075168 -22.450719 19.77988205 -25.3125 19.75 C-26.11880859 19.74548828 -26.92511719 19.74097656 -27.75585938 19.73632812 C-29.75393756 19.72450518 -31.75197783 19.70656914 -33.75 19.6875 C-34.16156204 13.42100663 -34.05876188 9.69498002 -29.75 4.6875 C-21.85826466 -2.59717878 -10.01516379 -3.54354026 0 0 Z M-13.30078125 28.86328125 C-15.23922099 31.30331187 -15.05729454 32.80027358 -14.9375 35.875 C-14.91042969 36.77605469 -14.88335938 37.67710938 -14.85546875 38.60546875 C-14.82066406 39.29253906 -14.78585938 39.97960938 -14.75 40.6875 C-13.76 41.1825 -13.76 41.1825 -12.75 41.6875 C-12.09 41.3575 -11.43 41.0275 -10.75 40.6875 C-10.75 36.3975 -10.75 32.1075 -10.75 27.6875 C-11.94154373 27.58680553 -11.94154373 27.58680553 -13.30078125 28.86328125 Z " fill="#3B3C95" transform="translate(37.75,11.3125)"/>
<path d="M0 0 C4.04427345 2.09991122 5.80175185 3.34275554 7.25 7.6875 C7.33610514 9.11468637 7.36771828 10.54556648 7.36352539 11.9753418 C7.36344986 12.83600754 7.36337433 13.69667328 7.36329651 14.5834198 C7.35813522 15.50850845 7.35297394 16.43359711 7.34765625 17.38671875 C7.3462413 18.33690384 7.34482635 19.28708893 7.34336853 20.2660675 C7.33776875 23.30241029 7.32521632 26.33867948 7.3125 29.375 C7.30748497 31.43294164 7.30292207 33.49088444 7.29882812 35.54882812 C7.2877994 40.59508046 7.27053493 45.64127775 7.25 50.6875 C1.64 50.6875 -3.97 50.6875 -9.75 50.6875 C-10.08 49.6975 -10.41 48.7075 -10.75 47.6875 C-11.6471875 48.7084375 -11.6471875 48.7084375 -12.5625 49.75 C-17.3112979 52.63652421 -21.4572029 51.94503675 -26.75 50.6875 C-30.16062378 48.59936299 -31.53690314 47.00714529 -33.75 43.6875 C-34.12109375 40.5078125 -34.12109375 40.5078125 -34.1875 36.8125 C-34.22746094 35.59820312 -34.26742187 34.38390625 -34.30859375 33.1328125 C-33.58251488 28.65447986 -32.34365879 27.41096654 -28.75 24.6875 C-26.09180321 23.34717465 -23.37582877 22.33993358 -20.5625 21.375 C-19.83869141 21.11138672 -19.11488281 20.84777344 -18.36914062 20.57617188 C-13.0955763 18.6875 -13.0955763 18.6875 -10.75 18.6875 C-11.08 15.7175 -11.41 12.7475 -11.75 9.6875 C-12.74 9.3575 -13.73 9.0275 -14.75 8.6875 C-14.84087891 9.75291016 -14.84087891 9.75291016 -14.93359375 10.83984375 C-15.01738281 11.75894531 -15.10117187 12.67804687 -15.1875 13.625 C-15.26871094 14.54152344 -15.34992187 15.45804688 -15.43359375 16.40234375 C-15.75 18.6875 -15.75 18.6875 -16.75 19.6875 C-19.61267567 19.76075168 -22.450719 19.77988205 -25.3125 19.75 C-26.11880859 19.74548828 -26.92511719 19.74097656 -27.75585938 19.73632812 C-29.75393756 19.72450518 -31.75197783 19.70656914 -33.75 19.6875 C-34.16156204 13.42100663 -34.05876188 9.69498002 -29.75 4.6875 C-21.85826466 -2.59717878 -10.01516379 -3.54354026 0 0 Z M-13.30078125 28.86328125 C-15.23922099 31.30331187 -15.05729454 32.80027358 -14.9375 35.875 C-14.91042969 36.77605469 -14.88335938 37.67710938 -14.85546875 38.60546875 C-14.82066406 39.29253906 -14.78585938 39.97960938 -14.75 40.6875 C-13.76 41.1825 -13.76 41.1825 -12.75 41.6875 C-12.09 41.3575 -11.43 41.0275 -10.75 40.6875 C-10.75 36.3975 -10.75 32.1075 -10.75 27.6875 C-11.94154373 27.58680553 -11.94154373 27.58680553 -13.30078125 28.86328125 Z " fill="#EA282E" transform="translate(37.75,11.3125)"/>
<path d="M0 0 C5.61 0 11.22 0 17 0 C19.25027779 5.62569448 19.25027779 5.62569448 19.24291992 9.47973633 C19.24599655 10.33445023 19.24907318 11.18916412 19.25224304 12.06977844 C19.24505753 12.98132187 19.23787201 13.8928653 19.23046875 14.83203125 C19.22978142 16.25789803 19.22978142 16.25789803 19.2290802 17.71257019 C19.22606447 19.7205836 19.21819852 21.72859481 19.20581055 23.73657227 C19.18762642 26.79126394 19.18530058 29.8456506 19.18554688 32.90039062 C19.18062814 34.85677342 19.17479828 36.81315419 19.16796875 38.76953125 C19.16685593 39.67500198 19.1657431 40.58047272 19.16459656 41.51338196 C19.06571187 54.90761332 19.06571187 54.90761332 16.93359375 59.09375 C11.93133759 63.79560957 6.8507872 63.50664351 0.33569336 63.30664062 C-1.44392624 63.22482863 -3.22223241 63.11524544 -5 63 C-5 60.03 -5 57.06 -5 54 C-3.68 54 -2.36 54 -1 54 C-0.67 36.18 -0.34 18.36 0 0 Z " fill="#313491" transform="translate(46,12)"/>
<path d="M0 0 C1.0374939 0.00303635 1.0374939 0.00303635 2.09594727 0.00613403 C2.80243408 0.00517731 3.5089209 0.00422058 4.23681641 0.00323486 C5.7331552 0.00255321 7.22949694 0.00440649 8.72583008 0.00857544 C11.02374884 0.01392396 13.32147213 0.00863003 15.61938477 0.00222778 C17.06990603 0.00288857 18.52042718 0.00416974 19.97094727 0.00613403 C20.66260986 0.0041098 21.35427246 0.00208557 22.06689453 0 C26.91849503 0.0239943 26.91849503 0.0239943 28.03344727 1.13894653 C28.07408559 2.80511768 28.07616827 4.47282748 28.03344727 6.13894653 C26.93645508 6.12734497 25.83946289 6.11574341 24.70922852 6.10379028 C23.25480314 6.09440689 21.80037592 6.08530728 20.34594727 6.07644653 C19.6247168 6.06806763 18.90348633 6.05968872 18.16040039 6.05105591 C15.16891199 6.03739614 12.34677534 6.0755349 9.40844727 6.67019653 C6.39786034 7.26439132 3.76844989 7.00284789 0.72094727 6.70144653 C-0.34768555 6.5996106 -1.41631836 6.49777466 -2.51733398 6.39285278 C-3.72969727 6.26716919 -3.72969727 6.26716919 -4.96655273 6.13894653 C-5.34874041 4.48279996 -5.68050375 2.81437629 -5.96655273 1.13894653 C-4.28981624 -0.53778996 -2.23800198 0.01106836 0 0 Z " fill="#131313" transform="translate(82.966552734375,62.861053466796875)"/>
<path d="M0 0 C6.27 0 12.54 0 19 0 C19 2.97 19 5.94 19 9 C12.73 9 6.46 9 0 9 C0 6.03 0 3.06 0 0 Z " fill="#E73237" transform="translate(45,0)"/>
<path d="M0 0 C2.64 0 5.28 0 8 0 C8 2.31 8 4.62 8 7 C-0.91 7 -9.82 7 -19 7 C-19 2 -19 2 -18 1 C-15.73097824 0.90019827 -13.45871075 0.87032191 -11.1875 0.875 C-9.94355469 0.87242188 -8.69960937 0.86984375 -7.41796875 0.8671875 C-4.71213998 0.97232827 -2.55665645 1.18856748 0 2 C0 1.34 0 0.68 0 0 Z " fill="#262626" transform="translate(148,62)"/>
<path d="M0 0 C0.59167969 0.0721875 1.18335937 0.144375 1.79296875 0.21875 C5.88261722 0.69910023 9.8738531 1.13310151 14 1 C14.33 2.98 14.66 4.96 15 7 C14.2575 6.979375 13.515 6.95875 12.75 6.9375 C10.11963523 6.88922269 10.11963523 6.88922269 8.125 7.5 C5.07778503 8.21699176 2.11647009 8.05993212 -1 8 C-0.67 5.36 -0.34 2.72 0 0 Z M6 4 C7 6 7 6 7 6 Z " fill="#101010" transform="translate(113,62)"/>
<path d="M0 0 C2.64 0 5.28 0 8 0 C8 2.31 8 4.62 8 7 C4.7 7 1.4 7 -2 7 C-1.01 6.67 -0.02 6.34 1 6 C1 5.01 1 4.02 1 3 C0.01 2.67 -0.98 2.34 -2 2 C-1.34 2 -0.68 2 0 2 C0 1.34 0 0.68 0 0 Z " fill="#030303" transform="translate(148,62)"/>
<path d="M0 0 C2.33944736 0.28730055 4.6739143 0.61936779 7 1 C6.67 2.65 6.34 4.3 6 6 C3.69 6 1.38 6 -1 6 C-1.042721 4.33388095 -1.04063832 2.66617115 -1 1 C-0.67 0.67 -0.34 0.34 0 0 Z M7 0 C9 1 9 1 9 1 Z " fill="#030303" transform="translate(130,63)"/>
<path d="M0 0 C0.78375 0.165 1.5675 0.33 2.375 0.5 C5.09522679 1.23945377 5.09522679 1.23945377 8 0 C8 1.98 8 3.96 8 6 C5.36 6 2.72 6 0 6 C-0.38218767 4.34385343 -0.71395102 2.67542976 -1 1 C-0.67 0.67 -0.34 0.34 0 0 Z " fill="#020202" transform="translate(66,63)"/>
<path d="M0 0 C0.99 0 1.98 0 3 0 C1.50902342 3.7952131 -0.75700849 5.61042731 -4 8 C-2.25 2.25 -2.25 2.25 0 0 Z " fill="#E83138" transform="translate(11,13)"/>
</svg>
