<?xml version="1.0" encoding="UTF-8"?>
<svg version="1.1" xmlns="http://www.w3.org/2000/svg" width="60" height="60">
<path d="M0 0 C0 3 0 3 -1.53125 4.82421875 C-2.50578125 5.74654297 -2.50578125 5.74654297 -3.5 6.6875 C-4.1496875 7.31011719 -4.799375 7.93273437 -5.46875 8.57421875 C-5.9740625 9.04472656 -6.479375 9.51523438 -7 10 C-2.59156563 15.29012124 2.07559794 20.18808428 7 25 C13.79001294 21.96900954 18.42635359 15.68240917 23 10 C20.36 7.36 17.72 4.72 15 2 C15.33 1.34 15.66 0.68 16 0 C21.28 2.97 26.56 5.94 32 9 C33.20183651 22.46056896 33.20183651 22.46056896 29.9140625 26.671875 C27.3588756 28.66507065 24.79157373 30.35889302 22 32 C20.65484453 32.98403991 19.31691136 33.97847063 18 35 C18.5053125 35.33128906 19.010625 35.66257813 19.53125 36.00390625 C23.32388385 39.00640805 24.86333017 40.88137468 25.46484375 45.8046875 C25.51476321 49.55176686 25.30273788 53.26623284 25 57 C20.67495164 55.34136495 17.90581175 52.128959 14.75 48.875 C14.19570313 48.31167969 13.64140625 47.74835937 13.0703125 47.16796875 C11.70895515 45.78313972 10.35385141 44.39216796 9 43 C4.68452961 44.64696696 1.99076095 47.85762051 -1.125 51.125 C-3.04571432 53.13783491 -4.98429507 55.07832212 -7 57 C-7.66 57 -8.32 57 -9 57 C-10.0735426 43.75964126 -10.0735426 43.75964126 -7.44140625 39.4453125 C-5.70837043 37.76458158 -4.01710222 36.32243691 -2 35 C-2.92683594 34.28972656 -3.85367187 33.57945313 -4.80859375 32.84765625 C-6.01825842 31.91930895 -7.22789224 30.99092145 -8.4375 30.0625 C-9.04916016 29.59392578 -9.66082031 29.12535156 -10.29101562 28.64257812 C-14.88671875 25.11328125 -14.88671875 25.11328125 -16 24 C-16.07320163 21.4672235 -16.09227569 18.96896082 -16.0625 16.4375 C-16.041875 13.983125 -16.02125 11.52875 -16 9 C-10.72 6.03 -5.44 3.06 0 0 Z " fill="#060606" transform="translate(22,1)"/>
<path d="M0 0 C3.7952131 1.49097658 5.61042731 3.75700849 8 7 C6.02 8.98 4.04 10.96 2 13 C-0.86207152 11.71700242 -3.0245088 10.469364 -5 8 C-5 5 -5 5 -2.5 2.3125 C-1.675 1.549375 -0.85 0.78625 0 0 Z " fill="#0F0F0F" transform="translate(29,5)"/>
</svg>
