<?xml version="1.0" encoding="UTF-8"?>
<svg version="1.1" xmlns="http://www.w3.org/2000/svg" width="1080" height="464">
<path d="M0 0 C2.55220478 3.82830717 2.45030503 7.15146712 2.6328125 11.60546875 C2.67437469 12.44467361 2.71593689 13.28387848 2.75875854 14.14851379 C2.88946825 16.82784464 3.00738532 19.50756549 3.125 22.1875 C3.21139748 24.00459753 3.29862695 25.8216557 3.38671875 27.63867188 C3.60080121 32.09204882 3.80341295 36.54581784 4 41 C5.28936798 40.24897054 6.57192731 39.48624516 7.8515625 38.71875 C8.56650879 38.29529297 9.28145508 37.87183594 10.01806641 37.43554688 C14.40830922 34.2556223 15.69204998 29.88563601 16.5390625 24.69921875 C16.83783583 22.4229711 17.09812801 20.1412101 17.3125 17.85546875 C18 15 18 15 19.90234375 13.109375 C22 12 22 12 24.5625 12.0625 C27.60742503 13.23362501 28.36683667 14.18883747 30 17 C30.38095093 20.07119751 30.38095093 20.07119751 30.38818359 23.72119141 C30.39606903 24.72209808 30.39606903 24.72209808 30.40411377 25.7432251 C30.4173002 27.94624359 30.40857509 30.14853678 30.3984375 32.3515625 C30.40046007 33.89130796 30.40337304 35.43105248 30.40713501 36.97079468 C30.41155771 40.20051174 30.40513456 43.42997987 30.39111328 46.65966797 C30.37410739 50.77509456 30.38380768 54.88993043 30.40183067 59.00533485 C30.41274401 62.1883477 30.40918638 65.37122389 30.4014473 68.55424118 C30.39946157 70.06991014 30.40184664 71.58559197 30.40888596 73.10124588 C30.44931392 84.26229146 30.31300999 94.67963449 22.23046875 103.17578125 C16.70627094 107.69382044 10.05264925 110.87622622 3 112 C3.33 113.32 3.66 114.64 4 116 C6.10296789 116.44322642 8.20749506 116.87905125 10.3125 117.3125 C10.9832959 117.45075195 11.6540918 117.58900391 12.34521484 117.73144531 C16.04975513 118.47523364 19.74188628 119.12628687 23.48828125 119.62109375 C41.89950915 122.07566315 58.79834127 127.94836907 75 137 C75.62036133 137.34256836 76.24072266 137.68513672 76.87988281 138.03808594 C113.13347458 158.26694915 113.13347458 158.26694915 119 170 C119.01953125 172.09375 119.01953125 172.09375 118.8125 174.5 C118.75707031 175.2940625 118.70164062 176.088125 118.64453125 176.90625 C118 179 118 179 116.1484375 180.27734375 C112.64420301 181.45604081 110.57023441 180.99498336 107 180 C104.75761454 178.5490447 102.7536506 176.92123982 100.6953125 175.21875 C66.0605819 146.70784134 24.45772991 130.63619191 -20.75488281 134.21826172 C-36.66776479 135.90061583 -51.44690498 140.37969285 -66 147 C-66.99257812 147.43183594 -67.98515625 147.86367188 -69.0078125 148.30859375 C-77.4483643 152.22378946 -85.0741656 157.16897779 -92.8125 162.3125 C-94.43430176 163.39011597 -94.43430176 163.39011597 -96.08886719 164.48950195 C-101.27669641 167.55230278 -101.27669641 167.55230278 -105 172 C-104.15042658 173.34967692 -103.2691392 174.67942518 -102.375 176 C-101.64410156 177.11375 -101.64410156 177.11375 -100.8984375 178.25 C-99.0837929 180.21695498 -99.0837929 180.21695498 -96.3203125 180.59375 C-91.53912694 179.73876152 -88.39865383 177.29791139 -84.5 174.5 C-82.89553364 173.39118922 -81.28873736 172.28574265 -79.6796875 171.18359375 C-78.88788086 170.63944824 -78.09607422 170.09530273 -77.28027344 169.53466797 C-48.44989119 150.1312651 -13.28155617 144.03964305 20.71801758 150.45605469 C46.77044199 155.89102758 74.25350457 168.40314558 91.76953125 189.08984375 C93 191 93 191 93.1875 193.8125 C88.80971025 205.56340932 71.14483653 212.22905413 60.35839844 217.20410156 C38.86769658 226.86963831 17.63674807 230.94680356 -5.875 230.6875 C-6.9218396 230.68301849 -7.9686792 230.67853699 -9.04724121 230.67391968 C-24.74973398 230.58116246 -39.17666396 229.6015238 -54 224 C-55.26528352 223.56541078 -56.53088065 223.1317329 -57.796875 222.69921875 C-63.9453293 220.39729745 -69.01742939 217.26449426 -74 213 C-72.9241527 206.97787915 -68.2776403 203.6447638 -63.51171875 200.203125 C-60.72005177 198.37702735 -57.88889194 196.66785362 -55 195 C-54.09507812 194.47277344 -53.19015625 193.94554687 -52.2578125 193.40234375 C-31.44791084 182.13271557 -2.58528831 178.24880407 20.1875 184.875 C23.98261807 186.08752829 27.05407036 187.27028538 30 190 C31.0625 193.375 31.0625 193.375 31 197 C29.1875 199.9375 29.1875 199.9375 26 202 C19.99802856 203.23087305 13.96466197 201.67558604 8.0625 200.5 C-10.59216163 196.79457758 -27.51844003 201.43212483 -45 208 C-45.33 208.33 -45.66 208.66 -46 209 C-42.9797577 209.64870339 -39.95886021 210.29404156 -36.9375 210.9375 C-36.08994141 211.11990234 -35.24238281 211.30230469 -34.36914062 211.49023438 C-33.11713867 211.75610352 -33.11713867 211.75610352 -31.83984375 212.02734375 C-31.08050537 212.18968506 -30.32116699 212.35202637 -29.53881836 212.51928711 C-9.95992437 216.22645532 11.83544859 215.30556394 31 210 C32.04317383 209.72712158 32.04317383 209.72712158 33.10742188 209.44873047 C46.55489522 205.88966645 59.01438247 199.99810438 71 193 C53.79828915 174.13360746 23.86741336 166.21798053 -0.67089844 165.07470703 C-32.73182403 164.14382313 -58.72172554 175.71088323 -84.33959961 194.00073242 C-85.0435083 194.5032251 -85.74741699 195.00571777 -86.47265625 195.5234375 C-87.10437744 195.97638184 -87.73609863 196.42932617 -88.38696289 196.89599609 C-91.37592594 198.94171895 -94.00143183 199.64393498 -97.6640625 199.59765625 C-102.82404579 198.27745986 -106.33380619 193.64410831 -110 190 C-111.78526916 188.43019436 -113.57676905 186.86744088 -115.375 185.3125 C-123.50902778 177.94583333 -123.50902778 177.94583333 -124.5 172 C-122.82906732 161.97440394 -111.62968303 154.66327799 -103.9375 149.0625 C-103.10041504 148.45204834 -102.26333008 147.84159668 -101.40087891 147.21264648 C-74.01425798 127.5015071 -44.68478422 121.70731124 -12 117 C-12.30164134 115.02639912 -12.30164134 115.02639912 -13 113 C-15.66855724 111.73020566 -15.66855724 111.73020566 -18.9375 110.8125 C-27.4213409 107.77323392 -34.27441641 102.85141507 -38.5625 94.75 C-40.91346531 89.48563749 -41.14917241 84.2012706 -41.1328125 78.5078125 C-41.13426773 77.77698959 -41.13572296 77.04616669 -41.13722229 76.29319763 C-41.13947122 73.90374645 -41.13317761 71.51443706 -41.125 69.125 C-41.12311676 68.3094162 -41.12123352 67.4938324 -41.11929321 66.65353394 C-41.08950803 55.62371714 -41.01043882 44.59232362 -40.73553467 33.56561279 C-40.68844797 31.6020318 -40.65390928 29.63816272 -40.61962891 27.67431641 C-40.58401855 26.48370605 -40.5484082 25.2930957 -40.51171875 24.06640625 C-40.48553467 23.03459229 -40.45935059 22.00277832 -40.43237305 20.93969727 C-39.91856074 17.44629579 -38.83752026 15.00553951 -37 12 C-34.125 10.8125 -34.125 10.8125 -31 11 C-28.15652809 12.64289488 -27.37235312 13.14886637 -26 16 C-25.53362013 19.30744624 -25.3687035 22.57062591 -25.2109375 25.90625 C-24.94774091 29.76646658 -24.39570099 31.9305081 -22 35 C-20.48625383 36.0931283 -18.94116287 37.14354875 -17.375 38.16015625 C-16.55773437 38.69390869 -15.74046875 39.22766113 -14.8984375 39.77758789 C-14.27195312 40.18098389 -13.64546875 40.58437988 -13 41 C-12.98018066 39.93040039 -12.96036133 38.86080078 -12.93994141 37.75878906 C-12.8637902 33.78524488 -12.77508758 29.81206234 -12.68261719 25.83886719 C-12.64436673 24.12018989 -12.60950697 22.40143362 -12.578125 20.68261719 C-12.53238872 18.2099996 -12.47440916 15.73792387 -12.4140625 13.265625 C-12.40251129 12.49881409 -12.39096008 11.73200317 -12.37905884 10.94195557 C-12.27543822 7.18482845 -12.17890206 4.1480667 -10 1 C-6.62177216 -1.53367088 -3.95452618 -1.11758349 0 0 Z M10.0625 52.3125 C9.16660156 52.92738281 8.27070313 53.54226562 7.34765625 54.17578125 C4.80035061 55.95642032 4.80035061 55.95642032 3 59 C2.75849227 61.51584891 2.75849227 61.51584891 2.875 64.1875 C2.89304687 65.08855469 2.91109375 65.98960937 2.9296875 66.91796875 C2.95289063 67.60503906 2.97609375 68.29210937 3 69 C6.82836401 68.73290484 8.70941223 68.23114937 11.75 65.8125 C16.06653272 60.4168341 16.22878753 55.63483828 16 49 C13.87011731 49 11.71939185 51.16432387 10.0625 52.3125 Z M-26 50 C-26.59330062 53.16426996 -26.72211215 55.84807805 -26 59 C-22.17450379 63.75734785 -17.23821 66.96686242 -12 70 C-12.46217631 62.82829869 -13.37092143 57.15741194 -18.9375 52.125 C-21.92646926 49.61994563 -21.92646926 49.61994563 -26 50 Z M-26 78 C-26.49258937 83.91107247 -25.49681767 88.1308847 -22 93 C-19.74244116 95.17033498 -17.77558162 96.43558127 -15 98 C-14.01 97.67 -13.02 97.34 -12 97 C-11.48846779 93.86686521 -11.34531292 91.11968313 -12 88 C-14.29568273 85.13039658 -17.00906749 83.10675173 -20 81 C-21.05960937 80.16082031 -21.05960937 80.16082031 -22.140625 79.3046875 C-23.8942867 77.80853823 -23.8942867 77.80853823 -26 78 Z M10.0625 81.375 C9.16660156 82.00148438 8.27070313 82.62796875 7.34765625 83.2734375 C4.12835528 85.64104321 3.13788047 86.37953786 2.25 90.375 C2.00889788 93.87098068 2.08096635 95.1778917 4 98 C9.21852881 95.81549957 11.73665805 93.47544039 15 89 C15.91692961 86.24921116 16.10886083 84.64051087 16.0625 81.8125 C16.041875 80.554375 16.02125 79.29625 16 78 C13.87407703 78 11.7067989 80.21903664 10.0625 81.375 Z " fill="#DDB449" transform="translate(245,162)"/>
<path d="M0 0 C18.12889862 17.13027285 28.18005447 38.93872868 32.8359375 63.15234375 C33.031875 64.14105469 33.2278125 65.12976563 33.4296875 66.1484375 C36.69301227 90.27821393 31.290318 118.24719112 17.30078125 138.359375 C14.79269821 141.21524556 13.01894367 142.1202374 9.2734375 142.77734375 C5.24933173 142.04568816 3.55903952 141.19581071 0.8359375 138.15234375 C-0.370817 133.6062633 -0.04496766 130.6735426 1.5234375 126.27734375 C2.02423828 124.82714844 2.02423828 124.82714844 2.53515625 123.34765625 C3.53380485 120.89451946 4.5943139 118.64103387 5.8125 116.30078125 C15.55499813 97.1345393 15.97849487 73.94223723 9.7734375 53.65234375 C1.12953778 29.84370768 -13.22680726 10.60843735 -36.1640625 -0.84765625 C-59.51744073 -11.51319672 -86.0474878 -12.72993567 -110.1640625 -3.84765625 C-120.35595105 0.36492419 -129.03575406 5.62170505 -137.1640625 13.15234375 C-137.89109375 13.81105469 -138.618125 14.46976563 -139.3671875 15.1484375 C-155.71725826 30.65604278 -165.22523441 53.79103293 -166.3671875 76.125 C-166.67994979 92.44010641 -162.76624191 106.33665573 -156.28808594 121.15625 C-155.42105215 123.14956355 -154.57373514 125.15052654 -153.7265625 127.15234375 C-153.21222656 128.32796875 -152.69789063 129.50359375 -152.16796875 130.71484375 C-151.01605702 134.65913296 -151.20333174 137.18262374 -152.1640625 141.15234375 C-154.7566262 143.93009058 -157.38176962 144.96784166 -161.1640625 145.15234375 C-169.66193134 141.79792184 -174.72059208 132.33182614 -178.45703125 124.546875 C-189.5321418 97.90194675 -190.63175043 66.99384149 -179.99316406 40.10302734 C-175.19333107 28.81013406 -168.99493987 18.59305306 -161.1640625 9.15234375 C-160.44476563 8.2809375 -159.72546875 7.40953125 -158.984375 6.51171875 C-151.03225989 -2.71386675 -141.85335289 -10.03932038 -131.1640625 -15.84765625 C-130.28621094 -16.33878906 -129.40835938 -16.82992187 -128.50390625 -17.3359375 C-116.71098989 -23.61359724 -103.45123912 -28.21037382 -90.1640625 -29.84765625 C-89.35839844 -29.96882813 -88.55273438 -30.09 -87.72265625 -30.21484375 C-55.02329219 -34.30850459 -23.87774401 -21.81523919 0 0 Z " fill="#DDB449" transform="translate(317.1640625,140.84765625)"/>
<path d="M0 0 C5.28357911 -0.07448116 10.56684863 -0.12875795 15.85083008 -0.16479492 C17.64613167 -0.17982716 19.44139688 -0.20025857 21.23657227 -0.22631836 C23.82577526 -0.26294786 26.41449028 -0.2797821 29.00390625 -0.29296875 C30.19651817 -0.31619453 30.19651817 -0.31619453 31.41322327 -0.33988953 C37.24403042 -0.34162738 42.20714366 0.53903017 46.7421875 4.53515625 C50.46599923 9.55588172 51.64647771 12.71153496 51 19 C49.24541843 23.70966633 46.67875246 26.61952477 43 30 C43.59296875 30.55171875 44.1859375 31.1034375 44.796875 31.671875 C47.06087876 34.06433287 48.60301246 36.40520334 50.25 39.25 C50.77078125 40.14203125 51.2915625 41.0340625 51.828125 41.953125 C52.21484375 42.62859375 52.6015625 43.3040625 53 44 C53.29656494 43.27111572 53.59312988 42.54223145 53.89868164 41.79125977 C59.57217415 27.8496429 65.25617361 13.91282393 71 0 C77.93 0 84.86 0 92 0 C93.051875 2.7225 94.10375 5.445 95.1875 8.25 C98.65737672 17.18932987 102.29792621 26.04215533 106.0859375 34.8515625 C106.63616577 36.13945679 106.63616577 36.13945679 107.19750977 37.45336914 C107.93028908 39.16810803 108.66762539 40.880908 109.40991211 42.59155273 C109.74514893 43.37731689 110.08038574 44.16308105 110.42578125 44.97265625 C110.72911377 45.67656494 111.03244629 46.38047363 111.3449707 47.10571289 C112 49 112 49 112 52 C105.07 52 98.14 52 91 52 C89 47 89 47 89 44 C83.72 44 78.44 44 73 44 C72.67 45.98 72.34 47.96 72 50 C71.505 50.99 71.505 50.99 71 52 C65.80396196 52.12369707 60.60878256 52.21438309 55.41162109 52.2746582 C53.64421662 52.29978641 51.8769159 52.33389516 50.10986328 52.37719727 C47.56777351 52.43792735 45.02705835 52.46622515 42.484375 52.48828125 C41.30134796 52.52699089 41.30134796 52.52699089 40.09442139 52.56648254 C36.13982448 52.56849948 34.42369777 52.41401758 31.54223633 49.59838867 C30.2493319 47.42007906 29.00636942 45.29506162 27.9375 43 C25.47762478 37.10224364 25.47762478 37.10224364 21 33 C20.67 39.27 20.34 45.54 20 52 C16.885625 52.020625 13.77125 52.04125 10.5625 52.0625 C9.57967041 52.071604 8.59684082 52.08070801 7.58422852 52.09008789 C6.81522217 52.09258545 6.04621582 52.09508301 5.25390625 52.09765625 C4.46314697 52.10289307 3.6723877 52.10812988 2.85766602 52.11352539 C1 52 1 52 0 51 C-0.09333705 49.40389018 -0.11745372 47.80366572 -0.11352539 46.20483398 C-0.11344986 45.18385117 -0.11337433 44.16286835 -0.11329651 43.11094666 C-0.10813522 42.0005452 -0.10297394 40.89014374 -0.09765625 39.74609375 C-0.0962413 38.61551041 -0.09482635 37.48492706 -0.09336853 36.32008362 C-0.08775019 32.69252935 -0.07519458 29.06503576 -0.0625 25.4375 C-0.05748736 22.98502693 -0.05292405 20.5325529 -0.04882812 18.08007812 C-0.0377748 12.05336455 -0.02101884 6.02668661 0 0 Z M20 13 C20 15.31 20 17.62 20 20 C24.0100934 20.17864631 24.0100934 20.17864631 28 20 C28.66 19.34 29.32 18.68 30 18 C29.67 16.68 29.34 15.36 29 14 C26.03 13.67 23.06 13.34 20 13 Z M81 21 C80.01 23.97 79.02 26.94 78 30 C79.98 30 81.96 30 84 30 C83.34 27.03 82.68 24.06 82 21 C81.67 21 81.34 21 81 21 Z " fill="#DDB449" transform="translate(785,184)"/>
<path d="M0 0 C7.92 0 15.84 0 24 0 C26.350785 7.05235501 28.2639716 13.80788236 30 21 C31.98 14.07 33.96 7.14 36 0 C44.25 0 52.5 0 61 0 C61 16.5 61 33 61 50 C55.39 50 49.78 50 44 50 C43.505 41.09 43.505 41.09 43 32 C41.7246621 37.5487742 41.7246621 37.5487742 40.45727539 43.09936523 C39.11111111 48.88888889 39.11111111 48.88888889 38 50 C35.3013095 50.07325436 32.63497444 50.09222351 29.9375 50.0625 C27.318125 50.041875 24.69875 50.02125 22 50 C20.35 44.06 18.7 38.12 17 32 C16.67 37.94 16.34 43.88 16 50 C10.72 50 5.44 50 0 50 C0 33.5 0 17 0 0 Z " fill="#DDB449" transform="translate(432,264)"/>
<path d="M0 0 C6.27 0 12.54 0 19 0 C23.725 5.90625 23.725 5.90625 25.75 8.6875 C26.17796875 9.26886719 26.6059375 9.85023438 27.046875 10.44921875 C28 12 28 12 28 14 C28.66 14 29.32 14 30 14 C30.99 15.65 31.98 17.3 33 19 C33.33 12.73 33.66 6.46 34 0 C40.6 0 47.2 0 54 0 C54 16.5 54 33 54 50 C47.4 50 40.8 50 34 50 C29.74606664 45.21432496 27.69134904 42.41443568 25 37 C23.67464949 35.32697831 22.3433685 33.65858874 21 32 C21 31.34 21 30.68 21 30 C20.34 30 19.68 30 19 30 C19 36.6 19 43.2 19 50 C12.73 50 6.46 50 0 50 C0 33.5 0 17 0 0 Z " fill="#DDB449" transform="translate(729,264)"/>
<path d="M0 0 C19 0 19 0 22.6875 3.3125 C23.48112433 4.86354826 24.24931589 6.42772024 25 8 C26.42814845 10.02166469 27.88781837 12.02135731 29.375 14 C31.169375 16.475 31.169375 16.475 33 19 C33.33 12.73 33.66 6.46 34 0 C40.6 0 47.2 0 54 0 C54 16.5 54 33 54 50 C47.4 50 40.8 50 34 50 C29.70054795 45.20635806 27.71086095 42.45190965 25 37 C23.35 34.69 21.7 32.38 20 30 C19.67 36.6 19.34 43.2 19 50 C12.73 50 6.46 50 0 50 C0 33.5 0 17 0 0 Z " fill="#DDB449" transform="translate(552,264)"/>
<path d="M0 0 C8.971875 -0.0928125 8.971875 -0.0928125 18.125 -0.1875 C20.00203613 -0.21481201 21.87907227 -0.24212402 23.81298828 -0.27026367 C25.31542316 -0.27903275 26.81786521 -0.28667569 28.3203125 -0.29296875 C29.47261353 -0.3159906 29.47261353 -0.3159906 30.64819336 -0.33947754 C36.4581874 -0.3422843 40.56448823 0.86195532 45.046875 4.796875 C52.39519807 13.223851 52.59193484 21.09328579 52 32 C51.35675323 37.81640035 49.55337762 41.20551865 45 45 C44.360625 45.556875 43.72125 46.11375 43.0625 46.6875 C37.90517451 49.9694344 32.71769512 50.27942241 26.7578125 50.1953125 C26.07581787 50.19329834 25.39382324 50.19128418 24.69116211 50.18920898 C22.16903862 50.17882757 19.64701181 50.15090558 17.125 50.125 C8.648125 50.063125 8.648125 50.063125 0 50 C0 33.5 0 17 0 0 Z M20 13 C20 20.59 20 28.18 20 36 C28.23602108 36.91092092 28.23602108 36.91092092 31.0390625 34.44140625 C32.32629789 31.17099113 32.39714942 28.44818313 32.375 24.9375 C32.38273438 23.70902344 32.39046875 22.48054688 32.3984375 21.21484375 C32.29142702 18.01959278 32.29142702 18.01959278 30.4765625 16.12890625 C29.98929688 15.75636719 29.50203125 15.38382812 29 15 C29 14.67 29 14.34 29 14 C26.03 13.67 23.06 13.34 20 13 Z " fill="#DDB449" transform="translate(612,264)"/>
<path d="M0 0 C15.51 0 31.02 0 47 0 C47 4.29 47 8.58 47 13 C38.09 13 29.18 13 20 13 C20 14.32 20 15.64 20 17 C28.58 17 37.16 17 46 17 C46 21.62 46 26.24 46 31 C37.75 31 29.5 31 21 31 C20.67 32.65 20.34 34.3 20 36 C29.24 36 38.48 36 48 36 C48 40.62 48 45.24 48 50 C32.16 50 16.32 50 0 50 C0 33.5 0 17 0 0 Z " fill="#DDB449" transform="translate(499,264)"/>
<path d="M0 0 C1.00224609 -0.01095703 2.00449219 -0.02191406 3.03710938 -0.03320312 C10.67752773 0.04224538 15.11184318 1.49939504 20.8125 6.75 C23.10047458 10.709956 23.16587712 14.01281671 23.4375 18.5625 C20.1375 18.8925 16.8375 19.2225 13.4375 19.5625 C14.695625 20.305 15.95375 21.0475 17.25 21.8125 C21.55788496 24.50683087 23.81009349 26.68028048 25.4375 31.5625 C26.01459865 37.44890621 24.99968319 41.86868402 21.4375 46.5625 C14.48282104 52.12899205 9.00455051 52.79451805 0.3125 52.875 C-0.7084375 52.90400391 -1.729375 52.93300781 -2.78125 52.96289062 C-9.21551672 53.01664735 -14.25813438 52.41222352 -19.5625 48.5625 C-24.32325819 43.78226303 -25.39671114 39.20912626 -25.5625 32.5625 C-24.70785156 32.50191406 -23.85320313 32.44132812 -22.97265625 32.37890625 C-21.31556641 32.25322266 -21.31556641 32.25322266 -19.625 32.125 C-18.52285156 32.04378906 -17.42070313 31.96257812 -16.28515625 31.87890625 C-13.65140097 31.85831916 -13.65140097 31.85831916 -12.5625 30.5625 C-13.10519531 30.25957031 -13.64789062 29.95664063 -14.20703125 29.64453125 C-21.89756764 25.141064 -21.89756764 25.141064 -23.5625 20.5625 C-24.23772484 15.95558624 -24.02597026 12.56668556 -22.0625 8.3125 C-15.53594097 1.13328506 -9.50937483 -0.22714452 0 0 Z M-3.5625 12.5625 C-3.8925 13.5525 -4.2225 14.5425 -4.5625 15.5625 C-1.9225 16.2225 0.7175 16.8825 3.4375 17.5625 C3.4375 16.2425 3.4375 14.9225 3.4375 13.5625 C2.31215895 12.20631501 2.31215895 12.20631501 -0.625 12.5 C-1.594375 12.520625 -2.56375 12.54125 -3.5625 12.5625 Z M-6.5625 32.5625 C-6.44908466 34.97127257 -6.44908466 34.97127257 -5.5625 37.5625 C-3.38387181 39.56969496 -3.38387181 39.56969496 -0.5625 40.5625 C2.17989143 40.34920551 2.17989143 40.34920551 4.4375 39.5625 C4.7675 38.2425 5.0975 36.9225 5.4375 35.5625 C-0.29540915 32.85405119 -0.29540915 32.85405119 -6.5625 32.5625 Z " fill="#DDB449" transform="translate(920.5625,183.4375)"/>
<path d="M0 0 C6.93 0 13.86 0 21 0 C21.33 11.22 21.66 22.44 22 34 C26.35225449 36.17612725 27.4704847 36.10721485 32 35 C33.97829072 33.02170928 33.25503932 29.17672973 33.31640625 26.46484375 C33.33718735 25.71159317 33.35796844 24.95834259 33.37937927 24.18226624 C33.44495425 21.7674401 33.50379621 19.35250202 33.5625 16.9375 C33.6056777 15.30402471 33.64929173 13.6705609 33.69335938 12.03710938 C33.80146797 8.02485282 33.90048114 4.01251576 34 0 C40.6 0 47.2 0 54 0 C54.04603048 5.01732183 54.08581994 10.03390443 54.10986328 15.05126953 C54.1198914 16.75637298 54.13351726 18.46145936 54.15087891 20.16650391 C54.17526803 22.62406642 54.18651512 25.08140061 54.1953125 27.5390625 C54.20563507 28.29555084 54.21595764 29.05203918 54.22659302 29.83145142 C54.22752491 34.27488777 53.76004413 37.90718678 52 42 C49.90625 44.08203125 49.90625 44.08203125 47.5 45.8125 C46.7059375 46.39644531 45.911875 46.98039062 45.09375 47.58203125 C39.80376824 51.16461218 34.03342691 50.26397483 27.8125 50.3125 C25.98235352 50.35600586 25.98235352 50.35600586 24.11523438 50.40039062 C17.17793878 50.4493775 12.57888254 50.27818801 7 46 C1.67159778 40.38357604 0.70057582 35.19560195 0.5859375 27.63671875 C0.56657135 26.84473587 0.5472052 26.05275299 0.5272522 25.23677063 C0.46772768 22.72045481 0.42118042 20.20409256 0.375 17.6875 C0.33679519 15.9758921 0.29774201 14.26430291 0.2578125 12.55273438 C0.16045965 8.3685899 0.08067783 4.18463185 0 0 Z " fill="#DDB449" transform="translate(668,264)"/>
<path d="M0 0 C7.26 0 14.52 0 22 0 C23.11375 3.0628125 23.11375 3.0628125 24.25 6.1875 C26.36695967 11.95054581 28.66541939 17.62489936 31.0703125 23.2734375 C31.61816702 24.56746294 32.16601856 25.86148964 32.71386719 27.15551758 C33.5391617 29.10309724 34.36878718 31.04821734 35.21252441 32.98788452 C36.01466405 34.83222907 36.80053564 36.68362209 37.5859375 38.53515625 C38.28275635 40.14982788 38.28275635 40.14982788 38.99365234 41.79711914 C40 45 40 45 40 52 C33.73 52 27.46 52 21 52 C19 47 19 47 19 44 C13.72 44 8.44 44 3 44 C2.67 45.98 2.34 47.96 2 50 C1.67 50.66 1.34 51.32 1 52 C-5.93 52 -12.86 52 -20 52 C-15.87871709 40.75001151 -11.4550972 29.65298261 -6.87182617 18.58276367 C-6.41525635 17.47392822 -5.95868652 16.36509277 -5.48828125 15.22265625 C-4.87786987 13.74937866 -4.87786987 13.74937866 -4.25512695 12.24633789 C-2.69672941 8.21560221 -1.36658088 4.09974264 0 0 Z M10 21 C9.34 23.97 8.68 26.94 8 30 C9.98 30 11.96 30 14 30 C13.01 27.03 12.02 24.06 11 21 C10.67 21 10.34 21 10 21 Z " fill="#DDB449" transform="translate(964,184)"/>
<path d="M0 0 C6.93 0 13.86 0 21 0 C21.5775 1.44375 22.155 2.8875 22.75 4.375 C23.11609375 5.28894531 23.4821875 6.20289063 23.859375 7.14453125 C24.58176401 8.95297771 25.30092182 10.76272107 26.015625 12.57421875 C26.50289062 13.80591797 26.50289062 13.80591797 27 15.0625 C27.28875 15.79597656 27.5775 16.52945313 27.875 17.28515625 C28.83302494 19.59705671 29.83483998 21.87736732 30.859375 24.16015625 C33.10346086 29.18697104 35.19515861 34.26833863 37.25 39.375 C37.61351562 40.26316406 37.97703125 41.15132812 38.3515625 42.06640625 C38.69445312 42.91847656 39.03734375 43.77054688 39.390625 44.6484375 C39.70032227 45.41333496 40.01001953 46.17823242 40.32910156 46.96630859 C41 49 41 49 41 52 C34.07 52 27.14 52 20 52 C19.34 49.69 18.68 47.38 18 45 C12.72 44.67 7.44 44.34 2 44 C1.67 45.98 1.34 47.96 1 50 C0.67 50.66 0.34 51.32 0 52 C-6.6 52 -13.2 52 -20 52 C-19.19181315 47.15087889 -18.3915862 44.20913123 -16.4375 39.875 C-13.80229875 33.92601891 -11.33681573 27.92288539 -8.9375 21.875 C-6.02714229 14.55243215 -3.05789542 7.26250161 0 0 Z M10 20 C9.01 23.3 8.02 26.6 7 30 C9.31 30 11.62 30 14 30 C13.01 26.7 12.02 23.4 11 20 C10.67 20 10.34 20 10 20 Z " fill="#DDB449" transform="translate(719,184)"/>
<path d="M0 0 C6.93 0 13.86 0 21 0 C21.70125 1.69125 22.4025 3.3825 23.125 5.125 C24.98651022 9.59888171 26.88523855 14.05409824 28.8125 18.5 C30.64530314 22.74163014 32.40454352 26.99832692 34.08984375 31.30078125 C34.44780029 32.21214844 34.80575684 33.12351562 35.17456055 34.0625 C35.88396909 35.87652449 36.58739674 37.69290084 37.28442383 39.51171875 C37.60822021 40.33929688 37.9320166 41.166875 38.265625 42.01953125 C38.55211914 42.76307861 38.83861328 43.50662598 39.13378906 44.27270508 C39.87900849 46.18910854 39.87900849 46.18910854 42 47 C42 47.99 42 48.98 42 50 C34.74 50 27.48 50 20 50 C19.34 47.69 18.68 45.38 18 43 C13.05 43 8.1 43 3 43 C2.34 45.31 1.68 47.62 1 50 C-5.93 50 -12.86 50 -20 50 C-18.21015849 44.03386162 -16.58429143 38.6514041 -14.22265625 32.99609375 C-13.97003525 32.38790298 -13.71741425 31.77971222 -13.45713806 31.15309143 C-12.6635139 29.24594124 -11.86304915 27.34175191 -11.0625 25.4375 C-10.53147269 24.16228767 -10.00087147 22.88689781 -9.47070312 21.61132812 C-2.80146887 5.60293774 -2.80146887 5.60293774 0 0 Z M10 19 C9.01 22.3 8.02 25.6 7 29 C9.31 29 11.62 29 14 29 C13.01 25.7 12.02 22.4 11 19 C10.67 19 10.34 19 10 19 Z " fill="#DDB449" transform="translate(832,264)"/>
<path d="M0 0 C0.99837891 -0.01224609 1.99675781 -0.02449219 3.02539062 -0.03710938 C4.47655273 -0.04000977 4.47655273 -0.04000977 5.95703125 -0.04296875 C6.83979736 -0.04707764 7.72256348 -0.05118652 8.63208008 -0.05541992 C11.45703267 0.21312196 13.61405094 1.02032621 16.1875 2.1875 C16.1875 2.8475 16.1875 3.5075 16.1875 4.1875 C16.78046875 4.42597656 17.3734375 4.66445312 17.984375 4.91015625 C20.65336398 6.45760199 21.76276129 8.04945487 23.4375 10.625 C24.21867188 11.79869141 24.21867188 11.79869141 25.015625 12.99609375 C26.1875 15.1875 26.1875 15.1875 26.1875 18.1875 C23.77174393 18.69228485 21.35505639 19.19147642 18.9375 19.6875 C18.25558594 19.83058594 17.57367187 19.97367188 16.87109375 20.12109375 C13.54116879 20.80001049 10.60417449 21.1875 7.1875 21.1875 C6.5275 19.5375 5.8675 17.8875 5.1875 16.1875 C1.04790576 15.13230931 -0.97668844 14.70735293 -4.75 16.875 C-7.80265029 21.77774138 -7.54960419 26.54671323 -6.8125 32.1875 C-6.1174998 34.4925303 -6.1174998 34.4925303 -4.8125 36.1875 C-1.43985056 37.0618906 1.09353282 37.45360012 4.5 36.625 C6.94490993 34.54229895 7.3931705 32.23242975 8.1875 29.1875 C14.35689111 29.66790341 20.28703626 30.25643914 26.1875 32.1875 C27.1875 35.1875 27.1875 35.1875 26.4375 37.23828125 C22.71646925 43.97102127 18.36532178 49.08689802 11.1875 52.1875 C7.63704767 52.65422438 4.07808996 52.60371592 0.5 52.625 C-0.45583984 52.65787109 -1.41167969 52.69074219 -2.39648438 52.72460938 C-10.14654726 52.78272164 -15.7184591 50.79572005 -21.5612793 45.64624023 C-22.8125 44.1875 -22.8125 44.1875 -22.8125 42.1875 C-23.4725 42.1875 -24.1325 42.1875 -24.8125 42.1875 C-28.88785124 33.86699121 -29.61098512 23.48057872 -26.625 14.625 C-20.4617738 2.93612272 -12.45491933 0.00794826 0 0 Z " fill="#DDB449" transform="translate(598.8125,183.8125)"/>
<path d="M0 0 C5.48625 -0.061875 10.9725 -0.12375 16.625 -0.1875 C18.34541504 -0.21481201 20.06583008 -0.24212402 21.83837891 -0.27026367 C23.21776632 -0.27903398 24.59716156 -0.28667663 25.9765625 -0.29296875 C26.67998779 -0.30831665 27.38341309 -0.32366455 28.1081543 -0.33947754 C34.35640702 -0.34276264 38.19123699 1.39221066 42.8125 5.5 C46.05296938 9.20339358 46.17864068 12.1058188 46.25 16.875 C46.27578125 17.90367187 46.3015625 18.93234375 46.328125 19.9921875 C45.77050598 25.10369518 42.94683115 28.82060824 39 32 C32.59953377 34.58742252 25.83431038 34.57725915 19 35 C19 40.61 19 46.22 19 52 C12.73 52 6.46 52 0 52 C0 34.84 0 17.68 0 0 Z M19 13 C17.58422523 14.18424326 17.58422523 14.18424326 17.9375 17.5625 C17.958125 18.696875 17.97875 19.83125 18 21 C20.31 21 22.62 21 25 21 C25.33 18.69 25.66 16.38 26 14 C23.6739143 13.61936779 21.33944736 13.28730055 19 13 Z " fill="#DDB449" transform="translate(432,184)"/>
<path d="M0 0 C17.49 0 34.98 0 53 0 C53 5.28 53 10.56 53 16 C47.72 16 42.44 16 37 16 C37 27.88 37 39.76 37 52 C30.4 52 23.8 52 17 52 C17 40.12 17 28.24 17 16 C11.39 16 5.78 16 0 16 C0 10.72 0 5.44 0 0 Z " fill="#DDB449" transform="translate(653,184)"/>
<path d="M0 0 C17.49 0 34.98 0 53 0 C53 5.28 53 10.56 53 16 C47.72 16.33 42.44 16.66 37 17 C37 28.55 37 40.1 37 52 C30.4 52 23.8 52 17 52 C17 40.12 17 28.24 17 16 C11.72 16 6.44 16 1 16 C0.67 15.67 0.34 15.34 0 15 C0 10.05 0 5.1 0 0 Z " fill="#DDB449" transform="translate(479,184)"/>
<path d="M0 0 C6.6 0 13.2 0 20 0 C20.02464113 7.24487049 20.0428318 14.48971682 20.05493164 21.73461914 C20.05997356 24.20142033 20.06680691 26.66821852 20.07543945 29.13500977 C20.08751125 32.67204529 20.09322956 36.20904145 20.09765625 39.74609375 C20.10281754 40.85649521 20.10797882 41.96689667 20.11329651 43.11094666 C20.11340981 44.64242088 20.11340981 44.64242088 20.11352539 46.20483398 C20.115746 47.10862289 20.11796661 48.0124118 20.12025452 48.94358826 C20 51 20 51 19 52 C12.73 52 6.46 52 0 52 C0 34.84 0 17.68 0 0 Z " fill="#DDB449" transform="translate(630,184)"/>
<path d="M0 0 C6.6 0 13.2 0 20 0 C20 16.5 20 33 20 50 C13.4 50 6.8 50 0 50 C0 33.5 0 17 0 0 Z " fill="#DDB449" transform="translate(790,264)"/>
<path d="M0 0 C2.01916694 3.39587167 2.05513711 5.43571849 1.375 9.3125 C-0.71991519 12.23268482 -1.41549459 13.00249779 -4.625 14.3125 C-12.46790975 15.60174544 -23.58122572 17.13344278 -30.83203125 13.078125 C-32.625 11.3125 -32.625 11.3125 -33.15625 8.9375 C-33.1459375 8.07125 -33.135625 7.205 -33.125 6.3125 C-33.1353125 5.44625 -33.145625 4.58 -33.15625 3.6875 C-32.625 1.3125 -32.625 1.3125 -30.828125 -0.42578125 C-22.19699962 -5.36878391 -8.43608062 -5.42319469 0 0 Z " fill="#DDB449" transform="translate(120.625,214.6875)"/>
<path d="M0 0 C0.10815225 1.76949095 0.18566083 3.54087487 0.25 5.3125 C0.29640625 6.29863281 0.3428125 7.28476563 0.390625 8.30078125 C0 11 0 11 -1.5390625 12.8046875 C-4.8503017 14.41300368 -8.00676391 14.65531399 -11.625 14.8125 C-12.33487061 14.84891602 -13.04474121 14.88533203 -13.77612305 14.92285156 C-26.99088694 15.42112545 -26.99088694 15.42112545 -31.69921875 11.6328125 C-33.91731734 8.84853259 -34 6.49036302 -34 3 C-31.23962119 -1.0070015 -28.22547806 -2.83300152 -23.4375 -3.78515625 C-15.19455849 -4.51169757 -7.51755912 -3.39027176 0 0 Z " fill="#DDB449" transform="translate(397,215)"/>
<path d="M0 0 C0.85464844 0.03351563 1.70929688 0.06703125 2.58984375 0.1015625 C3.87568359 0.11316406 3.87568359 0.11316406 5.1875 0.125 C8.28553746 0.92149043 8.89184647 2.01914365 10.52734375 4.7265625 C11.1443386 8.47438678 10.9909059 12.24583449 10.96484375 16.0390625 C10.99481445 17.56950195 10.99481445 17.56950195 11.02539062 19.13085938 C11.0212605 25.52015637 10.4229878 29.58177172 6.52734375 34.7265625 C3.58984375 35.9765625 3.58984375 35.9765625 0.52734375 35.7265625 C-3.20497383 32.84249892 -5.11724108 30.19463462 -6.47265625 25.7265625 C-6.80588495 22.57710898 -6.84278319 19.45411555 -6.84765625 16.2890625 C-6.87214844 15.45568359 -6.89664063 14.62230469 -6.921875 13.76367188 C-6.9491874 8.00530797 -6.40185067 1.88111252 0 0 Z " fill="#DDB449" transform="translate(238.47265625,71.2734375)"/>
<path d="M0 0 C2 1.6875 2 1.6875 3 4 C2.89925667 9.44013963 1.43535519 12.82186531 -2 17 C-5.06828986 19.53467423 -7.145187 20.84299353 -11.0625 21.5625 C-15.05812009 20.79738126 -16.50004088 19.14280575 -19 16 C-20 14.125 -20 14.125 -20 12 C-18.00933965 5.91742672 -15.22659858 1.95294124 -9.625 -1.4375 C-5.8747857 -2.24111735 -3.51720296 -1.43293454 0 0 Z " fill="#DDB449" transform="translate(348,125)"/>
<path d="M0 0 C3.98796948 2.81503728 7.02191742 5.49436745 9 10 C9.54921489 13.76604494 9.29265694 15.4732175 7.4375 18.8125 C4.21191137 21.70725902 2.31361262 22.07437263 -2 22 C-6.96307527 19.46980477 -10.50026264 15.99947472 -13 11 C-13.57801822 4.75740319 -13.57801822 4.75740319 -11.1875 1.625 C-7.2603327 -1.29232428 -4.60510284 -1.26414588 0 0 Z " fill="#DDB449" transform="translate(145,124)"/>
<path d="M0 0 C6.6 0 13.2 0 20 0 C20.020625 2.619375 20.04125 5.23875 20.0625 7.9375 C20.071604 8.7637085 20.08070801 9.58991699 20.09008789 10.44116211 C20.09723945 12.29433759 20.0502852 14.14749308 20 16 C19 17 19 17 17.14233398 17.11352539 C16.35157471 17.10828857 15.56081543 17.10305176 14.74609375 17.09765625 C13.89208984 17.09443359 13.03808594 17.09121094 12.15820312 17.08789062 C11.26037109 17.07951172 10.36253906 17.07113281 9.4375 17.0625 C8.53580078 17.05798828 7.63410156 17.05347656 6.70507812 17.04882812 C4.47002411 17.03700244 2.23500398 17.01906638 0 17 C0 11.39 0 5.78 0 0 Z " fill="#DDB449" transform="translate(523,219)"/>
<path d="" fill="#DDB449" transform="translate(0,0)"/>
<path d="" fill="#DDB449" transform="translate(0,0)"/>
</svg>
