<?xml version="1.0" encoding="UTF-8"?>
<svg version="1.1" xmlns="http://www.w3.org/2000/svg" width="1194" height="456">
<path d="M0 0 C17.96924341 14.3608009 30.145771 34.47829524 33.10595703 57.50512695 C34.15078628 72.00213277 34.29820647 86.32110044 30.38720703 100.4074707 C30.12037109 101.4593457 29.85353516 102.5112207 29.57861328 103.5949707 C25.45546624 117.9618475 15.06755199 128.57796484 2.78564453 136.54418945 C-14.44877824 145.99340745 -34.97314431 146.87781524 -53.64404297 141.6730957 C-58.99537315 140.00733457 -64.30204953 138.19748555 -69.61279297 136.4074707 C-69.62087982 137.00358154 -69.62896667 137.59969238 -69.63729858 138.21386719 C-69.72366087 144.44381273 -69.82317674 150.67345163 -69.93017578 156.90307617 C-69.96835089 159.2249637 -70.00322335 161.54690806 -70.03466797 163.86889648 C-70.08056798 167.21529385 -70.13852126 170.56130386 -70.19873047 173.9074707 C-70.21605728 175.45325806 -70.21605728 175.45325806 -70.23373413 177.03027344 C-70.5096857 190.64630874 -70.5096857 190.64630874 -74.46044922 195.83325195 C-81.52209278 201.8487261 -87.08627738 204.80594824 -96.48779297 204.3449707 C-105.0098504 203.29192666 -112.19577748 201.78659907 -117.73779297 194.8449707 C-120.92601393 190.32196824 -121.73798502 187.00981666 -121.75323486 181.5020752 C-121.75894501 180.26855316 -121.76465515 179.03503113 -121.77053833 177.76412964 C-121.77178371 176.39459239 -121.7729088 175.02505502 -121.77392578 173.65551758 C-121.7785547 172.21481194 -121.78357946 170.77410753 -121.78897095 169.33340454 C-121.8020959 165.41561364 -121.8085409 161.49783989 -121.81298161 157.58003044 C-121.81591413 155.12942653 -121.82001944 152.67882727 -121.82448578 150.22822571 C-121.83816526 142.55288385 -121.84782789 134.87755267 -121.85168767 127.20219946 C-121.85615997 118.35817283 -121.87366734 109.5143014 -121.90268826 100.67032194 C-121.92436288 93.82598162 -121.93439514 86.98168476 -121.93572879 80.1373105 C-121.93677333 76.05408034 -121.94260508 71.97099598 -121.9605484 67.88780212 C-121.97712775 64.03985411 -121.97913724 60.19215988 -121.97040939 56.34418869 C-121.96964407 54.93942455 -121.9739143 53.53464623 -121.98386765 52.12991714 C-122.03990181 43.72165704 -121.33468105 36.38133512 -118.61279297 28.4074707 C-118.32248829 27.54215477 -118.03218361 26.67683884 -117.73308182 25.78530121 C-115.25966511 18.69585307 -111.30297069 12.25333903 -106.61279297 6.4074707 C-105.62279297 6.0774707 -104.63279297 5.7474707 -103.61279297 5.4074707 C-102.94043444 4.07699852 -102.27465919 2.74319348 -101.61279297 1.4074707 C-73.40865343 -26.85494185 -29.37050562 -23.13841537 0 0 Z M-66.18359375 39.15771484 C-71.04515765 45.68564474 -71.59561448 51.21774666 -71.42529297 59.2199707 C-71.41119385 60.37400391 -71.39709473 61.52803711 -71.38256836 62.71704102 C-71.06948405 71.60435177 -69.80435985 77.71520512 -63.61279297 84.4074707 C-63.07267578 85.03137695 -62.53255859 85.6552832 -61.97607422 86.2980957 C-56.38970406 91.87093954 -48.32167279 94.54089618 -40.55029297 94.9074707 C-34.25202524 94.58705009 -28.183762 93.04623404 -23.68701172 88.4309082 C-18.51976052 81.64812023 -18.3392028 76.83766214 -18.26269531 68.36083984 C-18.23818432 66.37665123 -18.18160555 64.39294231 -18.12451172 62.40942383 C-18.03127845 52.20038076 -20.19061892 46.40010189 -26.61279297 38.6574707 C-32.14408853 33.4650729 -40.41138352 30.24715378 -47.98779297 29.9074707 C-54.92332206 30.86409541 -61.46025094 33.89479215 -66.18359375 39.15771484 Z " fill="#7C1FFE" transform="translate(1002.61279296875,147.592529296875)"/>
<path d="M0 0 C2.20054661 1.77492917 4.00775433 3.36755945 5.28271484 5.91748047 C5.55166405 9.66157945 5.51434192 13.41481104 5.53271484 17.16748047 C5.56365234 18.72402344 5.56365234 18.72402344 5.59521484 20.31201172 C5.62413588 25.97330463 5.45443328 30.02352671 2.28271484 34.91748047 C1.72583984 35.90748047 1.16896484 36.89748047 0.59521484 37.91748047 C-8.22062722 49.35424855 -22.14793812 51.26883728 -35.65478516 53.35498047 C-46.55550364 55.12570882 -57.24219868 57.29835414 -67.94775391 59.99951172 C-71.71728516 60.91748047 -71.71728516 60.91748047 -73.71728516 60.91748047 C-73.98541016 61.51560547 -74.25353516 62.11373047 -74.52978516 62.72998047 C-75.71728516 64.91748047 -75.71728516 64.91748047 -77.27978516 66.41748047 C-79.88447476 69.13541745 -79.71078074 71.73535675 -79.84228516 75.41748047 C-79.8221927 80.72210004 -79.8221927 80.72210004 -76.77978516 84.72998047 C-71.09979084 86.93242725 -65.43989777 85.23591801 -59.59228516 84.17138672 C-38.56891117 80.3720369 -20.00341483 80.95796319 -1.71728516 92.91748047 C-0.02978516 94.47216797 -0.02978516 94.47216797 1.28271484 95.91748047 C2.16958984 96.76310547 3.05646484 97.60873047 3.97021484 98.47998047 C6.28271484 100.91748047 6.28271484 100.91748047 6.28271484 102.91748047 C6.87052734 103.14306641 7.45833984 103.36865234 8.06396484 103.60107422 C14.41040213 107.36647803 17.32986044 116.22592354 19.19848633 123.07543945 C24.43481361 144.69948637 20.28032448 163.70371879 10.40185547 183.10253906 C9.22422134 185.01234101 7.88996183 186.3635109 6.28271484 187.91748047 C5.60402344 189.05443359 5.60402344 189.05443359 4.91162109 190.21435547 C-13.16273617 220.2082529 -45.04762627 231.17339521 -76.75830078 240.34716797 C-86.44893102 243.1333108 -86.44893102 243.1333108 -95.90478516 246.60498047 C-101.5231581 248.76680684 -107.25407673 249.41012215 -113.15478516 248.22998047 C-116.05679548 246.74358494 -117.04555521 245.6894649 -118.71728516 242.91748047 C-119.3428213 238.85810999 -119.18069002 234.76986945 -119.15478516 230.66748047 C-119.17476562 229.56017578 -119.19474609 228.45287109 -119.21533203 227.31201172 C-119.2112883 220.51046158 -118.48238581 215.62775175 -114.71728516 209.91748047 C-114.23646484 209.15177734 -113.75564453 208.38607422 -113.26025391 207.59716797 C-106.82637739 199.0310269 -100.9322511 195.15040852 -90.71728516 191.91748047 C-89.32509766 191.42634766 -89.32509766 191.42634766 -87.90478516 190.92529297 C-82.32431 188.9690938 -76.71259598 187.37025532 -70.96728516 185.97998047 C-65.29683547 184.6008483 -59.6784608 183.10803362 -54.09228516 181.41748047 C-53.44163086 181.22806885 -52.79097656 181.03865723 -52.12060547 180.84350586 C-43.69173324 178.23274479 -37.68245748 173.28041559 -33.45166016 165.62841797 C-30.35824423 158.76626291 -29.30120557 151.91984445 -31.37744141 144.58544922 C-33.64890244 139.28537347 -36.47581144 137.17673638 -41.71728516 134.91748047 C-47.37194522 133.31851915 -51.46071647 134.77116656 -56.90478516 136.35498047 C-65.60246818 138.64795628 -73.9174923 139.44603821 -82.90478516 139.47998047 C-84.58640747 139.50112915 -84.58640747 139.50112915 -86.30200195 139.52270508 C-98.73775071 139.37511352 -109.55644796 134.29310305 -118.71728516 125.91748047 C-119.75819175 124.27605084 -120.76232842 122.61035832 -121.71728516 120.91748047 C-122.17619141 120.52431641 -122.63509766 120.13115234 -123.10791016 119.72607422 C-125.49785299 117.04028895 -126.57012271 113.85393849 -127.84228516 110.54248047 C-128.10654297 109.88248047 -128.37080078 109.22248047 -128.64306641 108.54248047 C-133.86638999 95.23228534 -133.45627329 78.33187431 -128.71728516 64.91748047 C-128.37697266 63.88880859 -128.03666016 62.86013672 -127.68603516 61.80029297 C-123.48853038 49.97353966 -117.58431902 38.89452716 -108.71728516 29.91748047 C-107.93353516 29.07185547 -107.14978516 28.22623047 -106.34228516 27.35498047 C-102.65615025 23.93214091 -98.78626404 20.87256819 -94.71728516 17.91748047 C-93.98896484 17.38767578 -93.26064453 16.85787109 -92.51025391 16.31201172 C-78.88740835 7.28426568 -61.79193735 5.72856078 -46.01074219 3.41894531 C-42.70504638 2.91561698 -39.41323538 2.35761909 -36.11962891 1.78076172 C-5.59669737 -3.52797216 -5.59669737 -3.52797216 0 0 Z " fill="#7B1FFE" transform="translate(289.71728515625,93.08251953125)"/>
<path d="M0 0 C3.82814146 3.94073386 3.29275816 8.24447978 3.33032227 13.42260742 C3.34022186 14.26185257 3.35012146 15.10109772 3.36032104 15.96577454 C3.39192396 18.74147718 3.41668874 21.51719695 3.44140625 24.29296875 C3.46197682 26.21682685 3.48297332 28.14068043 3.50437927 30.06452942 C3.55958932 35.12959136 3.60900334 40.19469402 3.65722656 45.25982666 C3.70744935 50.42781195 3.76313136 55.59573808 3.81835938 60.76367188 C3.92592791 70.90489738 4.02737582 81.04617424 4.125 91.1875 C4.95046326 90.22418762 5.77592651 89.26087524 6.62640381 88.26837158 C7.71935724 86.99303933 8.81231396 85.71770989 9.90527344 84.44238281 C10.71960342 83.49203659 10.71960342 83.49203659 11.55038452 82.52249146 C14.24276404 79.38099837 16.9368404 76.24106576 19.640625 73.109375 C20.55224675 72.05222423 21.4637133 70.9949396 22.375 69.9375 C22.86532715 69.3688623 23.3556543 68.80022461 23.86083984 68.21435547 C27.58166846 63.87684186 31.13718084 59.42889983 34.6015625 54.8828125 C35.10429687 54.32335937 35.60703125 53.76390625 36.125 53.1875 C36.785 53.1875 37.445 53.1875 38.125 53.1875 C38.785 51.5375 39.445 49.8875 40.125 48.1875 C45.55277727 47.30947721 50.88471969 46.96070864 56.375 46.75 C64.18629452 46.41300509 71.91801134 45.7808325 79.68066406 44.84790039 C92.42574888 43.35965971 92.42574888 43.35965971 96.5625 45.375 C98.62558475 47.76817831 99.05284981 49.01289154 99.125 52.1875 C97.15096709 57.9039703 94.39120274 61.53199392 90.1875 65.8125 C89.13520597 66.90740226 88.08439684 68.00373379 87.03515625 69.1015625 C86.5364502 69.61879883 86.03774414 70.13603516 85.52392578 70.66894531 C84.22942238 72.07414796 83.04393851 73.57770386 81.87109375 75.0859375 C81.29488281 75.77945313 80.71867188 76.47296875 80.125 77.1875 C79.465 77.1875 78.805 77.1875 78.125 77.1875 C77.898125 77.909375 77.67125 78.63125 77.4375 79.375 C75.84416557 82.78928807 73.85146404 84.58221214 71.125 87.1875 C69.28626282 89.31155847 67.47467824 91.45540259 65.67578125 93.61328125 C65.16402344 94.13277344 64.65226562 94.65226562 64.125 95.1875 C63.465 95.1875 62.805 95.1875 62.125 95.1875 C61.8671875 95.75984375 61.609375 96.3321875 61.34375 96.921875 C60.01134058 99.39878995 58.47443882 101.3216166 56.625 103.4375 C56.0165625 104.14390625 55.408125 104.8503125 54.78125 105.578125 C53.125 107.1875 53.125 107.1875 51.125 107.1875 C50.856875 107.97125 50.58875 108.755 50.3125 109.5625 C49.125 112.1875 49.125 112.1875 46.125 114.1875 C46.60093556 118.47092007 49.07261685 120.34323389 52.125 123.1875 C57.125 128.1875 62.125 133.1875 67.125 138.1875 C67.888125 138.909375 68.65125 139.63125 69.4375 140.375 C71.125 142.1875 71.125 142.1875 71.125 144.1875 C71.67671875 144.40277344 72.2284375 144.61804688 72.796875 144.83984375 C75.89587011 146.63372515 78.03096204 149.09646518 80.375 151.75 C80.85445068 152.28431641 81.33390137 152.81863281 81.82788086 153.36914062 C82.80100019 154.45496083 83.77164568 155.54300342 84.73974609 156.63330078 C85.99866115 158.04575289 87.27385398 159.44365435 88.55078125 160.83984375 C89.25589844 161.61457031 89.96101562 162.38929688 90.6875 163.1875 C91.30753906 163.868125 91.92757812 164.54875 92.56640625 165.25 C96.2261231 169.79942245 96.62608796 173.56590826 96.49609375 179.30859375 C95.55789095 186.58707233 91.07648347 192.22630735 85.4765625 196.74609375 C77.45536595 201.6627408 67.27566022 202.09251035 58.125 201.1875 C50.84190359 198.7598012 45.43234006 192.53233893 40.125 187.1875 C38.70876428 185.77040251 37.29205206 184.35378117 35.875 182.9375 C32.70833333 179.77083333 29.54166667 176.60416667 26.375 173.4375 C25.63572266 172.69886719 24.89644531 171.96023437 24.13476562 171.19921875 C22.93287141 169.99615652 21.73295048 168.79111044 20.53710938 167.58203125 C18.63021837 165.65536508 16.7460954 163.88437632 14.625 162.1875 C10.55500323 158.93150259 7.19877468 155.38062616 4.125 151.1875 C4.12089111 152.26531738 4.11678223 153.34313477 4.11254883 154.45361328 C4.0904834 158.52080645 4.03591968 162.58706923 3.97241211 166.65380859 C3.94946771 168.40111249 3.93489278 170.14855006 3.92944336 171.89599609 C3.839347 196.05568146 3.839347 196.05568146 -3.72631836 205.49804688 C-10.90217981 212.58600032 -21.21082163 216.23736032 -31.125 216.625 C-36.7592313 216.57429826 -39.99135737 215.65658807 -44.38671875 212.18359375 C-48.11132373 207.18812618 -48.16560261 201.01736654 -48.12896729 195.01437378 C-48.13208727 194.21971148 -48.13520725 193.42504917 -48.13842177 192.6063062 C-48.14636293 189.95865214 -48.14009341 187.31122975 -48.13378906 184.66357422 C-48.1365006 182.75934719 -48.14006246 180.85512121 -48.14440918 178.95089722 C-48.15351476 173.78995735 -48.14999679 168.62909758 -48.14365101 163.46815634 C-48.13858303 158.06528605 -48.14328455 152.66242256 -48.14642334 147.259552 C-48.15006003 138.18913544 -48.14527102 129.11875146 -48.13574219 120.04833984 C-48.12485166 109.56059532 -48.12838877 99.07292853 -48.139395 88.58518589 C-48.1484685 79.57866496 -48.14975303 70.57216745 -48.14451766 61.56564343 C-48.14139916 56.18715015 -48.14098549 50.80869342 -48.14759064 45.43020248 C-48.1533646 40.37571952 -48.14936624 35.3213369 -48.13780212 30.26686478 C-48.1351561 28.41129473 -48.13591965 26.55571624 -48.14032745 24.70014954 C-48.1457864 22.16887171 -48.13894461 19.63791619 -48.12896729 17.10665894 C-48.13342873 16.37115401 -48.13789017 15.63564909 -48.14248681 14.87785614 C-48.11194352 10.88730085 -47.74596406 7.74165248 -45.875 4.1875 C-43.0169986 2.19111049 -40.18820596 1.79138946 -36.76953125 1.37109375 C-35.78533203 1.24669922 -34.80113281 1.12230469 -33.78710938 0.99414062 C-32.76423828 0.87232422 -31.74136719 0.75050781 -30.6875 0.625 C-29.68396484 0.49931641 -28.68042969 0.37363281 -27.64648438 0.24414062 C-4.22872957 -2.66593821 -4.22872957 -2.66593821 0 0 Z " fill="#7B1FFE" transform="translate(374.875,81.8125)"/>
<path d="M0 0 C0.76183594 -0.01933594 1.52367187 -0.03867188 2.30859375 -0.05859375 C7.02027022 0.97846502 9.4217566 5.46897331 12 9.25 C14.04923857 12.23628355 16.10882445 15.20401361 18.25 18.125 C20.20284827 20.84753765 21.89491647 23.66568885 23.515625 26.6015625 C25.10238991 29.38432185 26.8596886 32.05578011 28.609375 34.73828125 C29.5625 36.4375 29.5625 36.4375 29.5625 38.4375 C30.2225 38.4375 30.8825 38.4375 31.5625 38.4375 C32.76310015 40.26501451 33.87322301 42.15237841 34.9375 44.0625 C36.82671383 47.42679938 38.65656619 50.68421741 41 53.75 C43.0276827 57.23761425 43.07732214 59.46601488 42.5625 63.4375 C41.5 65.8125 41.5 65.8125 39.5625 67.4375 C34.89077141 68.58339569 31.23729832 68.30124976 26.5625 67.4375 C26.56694122 68.52141022 26.57138245 69.60532043 26.57595825 70.72207642 C26.61668736 80.98957113 26.64657166 91.25704922 26.66612434 101.5246067 C26.67651481 106.80192077 26.69058644 112.07916908 26.71337891 117.35644531 C26.73527752 122.45931002 26.74710414 127.56211188 26.75225449 132.66501999 C26.75591993 134.6016374 26.76307662 136.53825178 26.77396011 138.47484207 C26.92503363 166.4979314 26.92503363 166.4979314 21.5625 177.4375 C21.13592643 178.87209135 20.72003285 180.30988392 20.3125 181.75 C15.15471707 197.43604088 0.77061886 209.16064145 -13.25 216.6875 C-30.90035872 225.14073694 -51.95798092 225.07492853 -70.51953125 219.54296875 C-80.16089604 215.89034996 -89.57845117 211.16284741 -97.4375 204.4375 C-97.97503906 204.00695312 -98.51257813 203.57640625 -99.06640625 203.1328125 C-104.18543708 199.00166482 -108.04148937 195.5986702 -110.4375 189.4375 C-111.4275 189.1075 -112.4175 188.7775 -113.4375 188.4375 C-128.02504759 168.44108644 -128.26796645 145.0894582 -128.08935547 121.34985352 C-128.06058833 117.48899507 -128.07751815 113.62985419 -128.10721779 109.76905537 C-128.12537379 106.75155397 -128.11950004 103.73445407 -128.10657883 100.71693993 C-128.10328218 99.29337538 -128.10719756 97.86977246 -128.11897659 96.44625282 C-128.18669147 85.99094984 -126.6301554 78.76330551 -120.125 70.5 C-112.39019708 64.56398845 -103.89309742 64.3990817 -94.4375 65.4375 C-86.88446542 67.57571162 -82.41148219 71.79464415 -78.4375 78.4375 C-77.03034023 81.25181954 -77.30498844 83.60021021 -77.2956543 86.74804688 C-77.29217987 87.3955188 -77.28870544 88.04299072 -77.28512573 88.71008301 C-77.27776634 90.11892333 -77.27242193 91.52777527 -77.26883507 92.93663025 C-77.26166069 95.17436041 -77.24598309 97.41187241 -77.22749329 99.64953613 C-77.17509788 106.01307009 -77.12714106 112.3764898 -77.11157227 118.74023438 C-77.10142429 122.63315135 -77.07192106 126.5255264 -77.03025246 130.41822815 C-77.01802471 131.89477923 -77.01280601 133.3714072 -77.01505089 134.8480072 C-77.02489708 143.44565503 -76.44362681 150.68264917 -72.4375 158.4375 C-71.921875 159.51 -71.40625 160.5825 -70.875 161.6875 C-66.05596368 167.12436148 -60.46949463 170.28319407 -53.18359375 170.98828125 C-44.11861478 171.46498427 -44.11861478 171.46498427 -36 167.9375 C-35.154375 167.1125 -34.30875 166.2875 -33.4375 165.4375 C-32.7775 165.4375 -32.1175 165.4375 -31.4375 165.4375 C-31.169375 164.715625 -30.90125 163.99375 -30.625 163.25 C-29.44614324 160.45797083 -28.03515344 158.00763814 -26.4375 155.4375 C-24.81186614 152.18623227 -25.3084104 148.61212025 -25.32397461 145.04052734 C-25.32382858 144.17216751 -25.32368256 143.30380768 -25.3235321 142.40913391 C-25.32423039 139.53054328 -25.3320189 136.65201686 -25.33984375 133.7734375 C-25.34170823 131.78089432 -25.34313199 129.78835069 -25.34413147 127.79580688 C-25.34795431 122.54490906 -25.35778263 117.29403878 -25.36883545 112.04315186 C-25.37905457 106.68762586 -25.38363017 101.33209543 -25.38867188 95.9765625 C-25.39940509 85.46352955 -25.41647873 74.95051706 -25.4375 64.4375 C-26.32953125 64.35113281 -27.2215625 64.26476562 -28.140625 64.17578125 C-29.31109375 64.03527344 -30.4815625 63.89476562 -31.6875 63.75 C-33.42773438 63.55857422 -33.42773438 63.55857422 -35.203125 63.36328125 C-39.16565173 62.22907976 -40.36812592 60.95543594 -42.4375 57.4375 C-42.1875 53.625 -42.1875 53.625 -41.4375 50.4375 C-40.7775 50.4375 -40.1175 50.4375 -39.4375 50.4375 C-39.20289063 49.74914062 -38.96828125 49.06078125 -38.7265625 48.3515625 C-37.1723698 44.83814507 -35.07673959 41.88934719 -32.8125 38.8125 C-32.3695459 38.20148438 -31.9265918 37.59046875 -31.47021484 36.9609375 C-30.13115688 35.11594913 -28.78515461 33.27621505 -27.4375 31.4375 C-25.97869428 29.43784454 -24.52031148 27.43788041 -23.0625 25.4375 C-22.41539062 24.550625 -21.76828125 23.66375 -21.1015625 22.75 C-19.84508664 21.00391148 -18.63075756 19.22738634 -17.4375 17.4375 C-5.81904192 0.00981289 -5.81904192 0.00981289 0 0 Z " fill="#7C20FE" transform="translate(838.4375,66.5625)"/>
<path d="M0 0 C0.89009766 -0.02900391 1.78019531 -0.05800781 2.69726562 -0.08789062 C8.33239694 -0.14219508 11.85819843 0.32301802 16.1875 4.3125 C18.70882745 8.89508655 18.48336684 13.44117592 18.47802734 18.53051758 C18.48474457 19.45164337 18.49146179 20.37276917 18.49838257 21.32180786 C18.51737397 24.36693737 18.52128872 27.41184619 18.5234375 30.45703125 C18.52986945 32.58631987 18.5365981 34.71560762 18.54360962 36.84489441 C18.55558869 41.31450443 18.55929027 45.78403717 18.55810547 50.25366211 C18.55790335 55.94123977 18.58509131 61.62831172 18.61964989 67.31577015 C18.64206096 71.71970321 18.64593853 76.12351785 18.64488602 80.52750206 C18.64722505 82.62156589 18.6559512 84.71563385 18.67155075 86.80964088 C18.80815893 107.0594127 16.70839889 124.10686445 2.1875 139.421875 C-9.3233202 150.34022651 -22.26868341 154.8982237 -37.96875 154.4921875 C-53.60626387 153.50410283 -64.8691301 148.71184364 -75.8125 137.3125 C-85.81746609 125.38134417 -89.40474466 113.49743541 -89.25 98 C-89.23646484 96.36478394 -89.23646484 96.36478394 -89.22265625 94.6965332 C-88.92757102 80.88797881 -86.15549604 69.02409897 -76.8125 58.3125 C-74.6328125 57.11328125 -74.6328125 57.11328125 -72.8125 56.3125 C-71.6624169 54.34577085 -71.6624169 54.34577085 -70.8125 52.3125 C-70.1525 51.6525 -69.4925 50.9925 -68.8125 50.3125 C-67.8225 50.3125 -66.8325 50.3125 -65.8125 50.3125 C-65.4825 49.3225 -65.1525 48.3325 -64.8125 47.3125 C-54.30256633 39.72740872 -40.35129292 38.09327244 -27.8125 39.3125 C-24.79018154 39.89428884 -21.79964898 40.57202967 -18.8125 41.3125 C-18.80839111 40.31395996 -18.80428223 39.31541992 -18.80004883 38.28662109 C-18.77818677 34.56247164 -18.72382599 30.83936818 -18.65991211 27.11572266 C-18.63679329 25.50775214 -18.62235076 23.89963152 -18.61694336 22.29150391 C-18.60760804 19.97203701 -18.56652541 17.65491086 -18.51953125 15.3359375 C-18.5234639 14.62319672 -18.52739655 13.91045593 -18.53144836 13.17611694 C-18.36741751 7.4956288 -16.74967001 5.1271221 -12.8125 1.3125 C-8.54953344 -0.10848885 -4.466483 0.04788938 0 0 Z M-47.625 79.75 C-54.37448378 87.65653814 -54.46419195 93.9328246 -53.8125 104.3125 C-52.69702001 109.47708452 -49.83824346 112.95771378 -45.8125 116.3125 C-40.81605824 119.31036506 -34.07724978 119.03615858 -28.50390625 117.80078125 C-27.66666016 117.55908203 -27.66666016 117.55908203 -26.8125 117.3125 C-26.8125 116.6525 -26.8125 115.9925 -26.8125 115.3125 C-26.214375 115.065 -25.61625 114.8175 -25 114.5625 C-20.45814094 111.96715196 -19.21296336 108.16743964 -17.8125 103.3125 C-16.93397742 95.26278143 -17.21802665 87.22351453 -21.8125 80.3125 C-29.73724893 72.86908073 -39.52690554 72.73165147 -47.625 79.75 Z " fill="#1EBCEF" transform="translate(656.8125,284.6875)"/>
<path d="M0 0 C4.6316173 4.18712427 8.66813436 8.73945739 9.31587219 15.10340881 C9.3460997 16.34811447 9.37632721 17.59282013 9.4074707 18.87524414 C9.426378 19.58030783 9.4452853 20.28537151 9.46476555 21.01180077 C9.52508589 23.41530026 9.56980295 25.81879615 9.61328125 28.22265625 C9.65097493 29.97876508 9.68867978 31.73487368 9.72639465 33.49098206 C10.23297825 59.00448546 10.18741082 84.52739131 10.18511212 110.0449568 C10.18546288 115.78979951 10.19716498 121.53458231 10.2110464 127.27940601 C10.22413904 132.90324042 10.22948655 138.52704805 10.22884732 144.15089756 C10.22859467 147.47449441 10.23227171 150.79795801 10.24202538 154.12154961 C10.25183132 157.79391314 10.24894921 161.46606067 10.24291992 165.13842773 C10.24853943 166.21207077 10.25415894 167.28571381 10.25994873 168.39189148 C10.22179685 177.54522841 9.70524384 186.18083211 3 193 C-2.27120424 197.45638069 -6.99239832 199.93664013 -14 200 C-15.30130859 200.05607422 -15.30130859 200.05607422 -16.62890625 200.11328125 C-22.37605784 200.26515313 -28.63454689 200.33334821 -34 198 C-34.33 197.01 -34.66 196.02 -35 195 C-35.66 195 -36.32 195 -37 195 C-37 194.34 -37 193.68 -37 193 C-37.99 192.67 -38.98 192.34 -40 192 C-42.93969501 184.32246669 -42.28894071 176.00601835 -42.2746582 167.90454102 C-42.27901021 166.27266203 -42.28419499 164.64078508 -42.29014587 163.00891113 C-42.30349372 158.59360895 -42.30411931 154.17839258 -42.30158257 149.76307416 C-42.30051011 146.07031634 -42.3054032 142.37757568 -42.310188 138.68482155 C-42.32126836 129.97012503 -42.32172871 121.25547163 -42.31567383 112.54077148 C-42.309633 103.56459815 -42.32195121 94.58858153 -42.3432439 85.61243492 C-42.36088218 77.89159225 -42.36685779 70.17079936 -42.36360615 62.44993728 C-42.36179689 57.84483731 -42.36439388 53.23984917 -42.37832069 48.63476753 C-42.39093091 44.30331697 -42.38892485 39.97211013 -42.37590981 35.64066315 C-42.37355151 34.05606693 -42.37625179 32.47145339 -42.38453293 30.88687706 C-42.43029894 21.44492044 -42.37953886 13.06930828 -37 5 C-36.34 5 -35.68 5 -35 5 C-34.76925781 4.38640625 -34.53851562 3.7728125 -34.30078125 3.140625 C-32.14930469 -0.39994304 -29.00968513 -0.97737505 -25.20703125 -2.23828125 C-17.11586188 -4.16005717 -7.3679521 -4.35183136 0 0 Z " fill="#7D1FFE" transform="translate(678,69)"/>
<path d="M0 0 C8.21917353 -0.28390928 14.96831362 0.65003224 21.28125 6.18359375 C25.64966502 11.42356602 27.38585807 15.51168417 27.40138245 22.33772278 C27.41180074 23.3774166 27.41180074 23.3774166 27.4224295 24.43811435 C27.44061231 26.74268777 27.4304604 29.04622151 27.42016602 31.35083008 C27.42722909 33.01050075 27.43597574 34.67016498 27.4462738 36.32981873 C27.46873778 40.82590597 27.46583455 45.32164068 27.45695233 49.81776261 C27.45183351 53.57749707 27.45914252 57.3371658 27.46642441 61.09689349 C27.48341498 69.97131125 27.4798673 78.84555703 27.46313477 87.7199707 C27.44622499 96.85924557 27.4620341 105.9980424 27.49435765 115.13726503 C27.52109882 122.99740585 27.52831702 130.85739829 27.51984257 138.71758002 C27.51492521 143.40606937 27.51706379 148.09427137 27.53763008 152.78272438 C27.55605771 157.19475852 27.54994265 161.60610853 27.52543068 166.01810646 C27.5204446 167.63130354 27.52385496 169.24455337 27.53657913 170.85770798 C27.60117544 179.75566878 27.42107506 187.64737414 21.88671875 195.109375 C14.68022716 202.24777998 6.79350916 204.38447518 -3.17578125 204.546875 C-10.19574087 204.48053448 -15.44452744 203.79911169 -20.50777245 198.70690823 C-25.70107578 191.75890891 -24.81517217 183.5331405 -24.76025391 175.27954102 C-24.76703594 173.56883821 -24.77594236 171.85814271 -24.7868042 170.14746094 C-24.8095363 165.51712954 -24.80078603 160.88735719 -24.78490877 156.25701642 C-24.77221609 151.40187443 -24.78399942 146.54677908 -24.7918396 141.69163513 C-24.80092723 133.53839561 -24.78897243 125.3853828 -24.76513672 117.23217773 C-24.73793628 107.81962799 -24.74673531 98.40761998 -24.77426875 88.99508339 C-24.79699499 80.9005339 -24.80014245 72.80614703 -24.7870754 64.71157593 C-24.77929902 59.88286367 -24.77818907 55.05440562 -24.79475784 50.22570992 C-24.80925427 45.68396667 -24.79908695 41.14291827 -24.77028656 36.60124969 C-24.76370288 34.93926329 -24.76552669 33.27721791 -24.77659988 31.61525536 C-24.87598583 15.17669998 -24.87598583 15.17669998 -19.11328125 8.109375 C-13.34141883 2.46742589 -7.94412237 0.41115606 0 0 Z " fill="#7B1FFE" transform="translate(589.11328125,66.890625)"/>
<path d="M0 0 C5.24786245 2.83992556 8.08202563 6.4092812 10 12 C10.2784729 14.53742981 10.2784729 14.53742981 10.31884766 17.24926758 C10.33871735 18.26994827 10.35858704 19.29062897 10.37905884 20.34223938 C10.39061005 21.4319957 10.40216125 22.52175201 10.4140625 23.64453125 C10.43342865 24.7694548 10.4527948 25.89437836 10.4727478 27.0533905 C10.5324371 30.63968366 10.57888694 34.22600909 10.625 37.8125 C10.66318953 40.24675864 10.70224183 42.68100392 10.7421875 45.11523438 C10.83812998 51.07670405 10.92320875 57.03825453 11 63 C11.804375 62.05125 12.60875 61.1025 13.4375 60.125 C13.88996094 59.59132813 14.34242188 59.05765625 14.80859375 58.5078125 C16.0878152 56.99405921 16.0878152 56.99405921 17 55 C17.66 55 18.32 55 19 55 C19.2578125 54.43796875 19.515625 53.8759375 19.78125 53.296875 C21.14169777 50.73295421 22.72788962 48.54773635 24.5 46.25 C25.1084375 45.45078125 25.716875 44.6515625 26.34375 43.828125 C26.8903125 43.22484375 27.436875 42.6215625 28 42 C28.66 42 29.32 42 30 42 C30.04125 41.4225 30.0825 40.845 30.125 40.25 C31.44957119 36.84395979 33.81054723 35.47708264 37 34 C44.87439494 31.38499571 57.181917 29.72757081 64.82421875 33.33203125 C67.3128835 35.23985863 68.79138445 36.86688817 69.37109375 40.015625 C69.55754844 46.28927701 68.18999078 49.31120079 64 54 C63.34 54 62.68 54 62 54 C61.62875 55.11375 61.62875 55.11375 61.25 56.25 C59.89534286 59.23024571 58.36809019 60.77991545 56 63 C55.34 63.99 54.68 64.98 54 66 C53.34 66 52.68 66 52 66 C51.77570313 66.52078125 51.55140625 67.0415625 51.3203125 67.578125 C49.50575891 70.90659609 47.21085825 73.77292576 44.875 76.75 C44.17310547 77.65298828 44.17310547 77.65298828 43.45703125 78.57421875 C42.30774993 80.05186616 41.15428765 81.52626005 40 83 C41.73465118 86.77447247 43.98353683 89.13435999 47 92 C49 94 49 94 49 97 C49.57234375 97.2371875 50.1446875 97.474375 50.734375 97.71875 C58.38248865 102.04389013 64.98000421 111.88719943 70 119 C70 119.66 70 120.32 70 121 C70.66 121 71.32 121 72 121 C74.33324587 125.11749272 74.31156766 128.79262123 73.73046875 133.359375 C72.39656565 138.18139906 69.64685771 141.64665196 66 145 C60.23833747 147.82434438 53.31552246 147.68013319 47 147 C41.79935364 144.69971411 38.54807542 140.44201987 34.90234375 136.1875 C33.33119476 134.38083997 31.73185068 132.71094711 30 131.0625 C28 129 28 129 28 127 C27.443125 126.773125 26.88625 126.54625 26.3125 126.3125 C23.35823409 124.63575448 21.33152149 122.45423315 19 120 C18.01 119.01 18.01 119.01 17 118 C17 117.01 17 116.02 17 115 C16.38125 114.71125 15.7625 114.4225 15.125 114.125 C13 113 13 113 11 111 C10.98541748 111.78125244 10.97083496 112.56250488 10.95581055 113.36743164 C10.88099502 116.93293368 10.78444367 120.49753377 10.6875 124.0625 C10.66494141 125.29162109 10.64238281 126.52074219 10.61914062 127.78710938 C10.36268592 136.43662703 9.59213003 142.96646291 3.55859375 149.64453125 C-2.23705484 154.68485722 -8.83548401 155.65726011 -16.3203125 155.390625 C-19.91031645 154.86730081 -21.68384731 153.77938323 -24 151 C-25.98835047 147.75376067 -26.2560977 145.26782558 -26.27415466 141.48565674 C-26.28911736 139.80350571 -26.28911736 139.80350571 -26.30438232 138.08737183 C-26.305047 136.86132233 -26.30571167 135.63527283 -26.30639648 134.37207031 C-26.31472 133.07735809 -26.32304352 131.78264587 -26.33161926 130.44869995 C-26.35355195 126.89891742 -26.36236179 123.34922103 -26.36744571 119.7993784 C-26.37109158 117.57944534 -26.37733292 115.35953477 -26.3844471 113.13961029 C-26.40894001 105.38863639 -26.42199256 97.63772937 -26.42553711 89.88671875 C-26.42916944 82.67253616 -26.45904307 75.45877978 -26.50094169 68.24472737 C-26.53569069 62.04328437 -26.55108636 55.84198226 -26.55178314 49.64044261 C-26.55257458 45.94006111 -26.56125046 42.2401136 -26.58978081 38.53983307 C-26.62092522 34.4080881 -26.61187997 30.27735128 -26.59936523 26.14550781 C-26.61419952 24.92755524 -26.62903381 23.70960266 -26.64431763 22.45474243 C-26.58303511 15.3451484 -25.75010854 10.45372594 -21 5 C-14.83952204 -0.72044382 -8.14353142 -1.18119619 0 0 Z " fill="#1EBCEF" transform="translate(423,299)"/>
<path d="M0 0 C2.77417544 0.2046242 5.54792373 0.35408286 8.32568359 0.50097656 C24.33998504 1.53809391 24.33998504 1.53809391 29.88134766 7.67724609 C32.2949003 11.18758512 32.21337986 13.83601283 32.26708984 18.07910156 C32.29287109 19.29082031 32.31865234 20.50253906 32.34521484 21.75097656 C31.98691833 25.65811479 31.12642253 28.0369655 29.01708984 31.32910156 C27.53208984 31.82410156 27.53208984 31.82410156 26.01708984 32.32910156 C25.68708984 33.31910156 25.35708984 34.30910156 25.01708984 35.32910156 C18.8404946 39.27961426 11.78321715 38.30269622 4.83740234 37.65722656 C-0.44311933 37.20368482 -5.68789261 37.24035825 -10.98291016 37.32910156 C-7.81801691 38.31914509 -4.74996619 38.48822927 -1.44970703 38.61914062 C12.1524553 39.1716094 22.3393321 42.07222792 31.82958984 52.26660156 C39.84321929 61.21633639 40.21082726 69.64293664 40.26708984 81.14160156 C40.28771484 82.18380859 40.30833984 83.22601563 40.32958984 84.29980469 C40.38082022 94.50105291 38.52982088 101.83726947 31.38037109 109.31347656 C19.17824095 119.72058261 3.48027628 117.38505996 -11.37255859 116.28759766 C-14.23921782 116.07864179 -17.10677859 115.8926026 -19.97509766 115.70800781 C-21.81634152 115.57787707 -23.65749174 115.446413 -25.49853516 115.31347656 C-26.34659729 115.26020203 -27.19465942 115.20692749 -28.06842041 115.15203857 C-34.38776024 114.65688472 -39.53453577 113.52707402 -44.38916016 109.16894531 C-46.55233207 105.31446987 -46.57356431 102.23922374 -46.48291016 97.89160156 C-46.49837891 97.15361328 -46.51384766 96.415625 -46.52978516 95.65527344 C-46.49274397 90.44635682 -45.39672007 87.45283578 -41.98291016 83.32910156 C-31.69572352 75.56122594 -19.89425146 78.38115398 -7.79541016 79.82910156 C-6.55726563 79.9721875 -5.31912109 80.11527344 -4.04345703 80.26269531 C-1.02257972 80.61260388 1.99751285 80.968173 5.01708984 81.32910156 C5.01708984 79.34910156 5.01708984 77.36910156 5.01708984 75.32910156 C4.42806885 75.31451904 3.83904785 75.29993652 3.23217773 75.28491211 C0.51405182 75.20956392 -2.20295958 75.11319773 -4.92041016 75.01660156 C-5.84660156 74.99404297 -6.77279297 74.97148437 -7.72705078 74.94824219 C-17.24269604 74.58097167 -24.63609761 71.73014818 -32.98291016 67.32910156 C-32.98291016 66.66910156 -32.98291016 66.00910156 -32.98291016 65.32910156 C-33.56041016 65.10222656 -34.13791016 64.87535156 -34.73291016 64.64160156 C-37.58030825 62.98061934 -39.10358208 61.01385595 -40.98291016 58.32910156 C-40.98291016 57.66910156 -40.98291016 57.00910156 -40.98291016 56.32910156 C-41.64291016 56.32910156 -42.30291016 56.32910156 -42.98291016 56.32910156 C-48.41597461 44.99053226 -48.8383276 30.30921228 -44.98291016 18.32910156 C-42.5898372 13.95555444 -39.62484084 10.71089434 -35.98291016 7.32910156 C-34.71447266 6.02972656 -34.71447266 6.02972656 -33.42041016 4.70410156 C-24.15384052 -2.63775103 -10.999549 -0.84145278 0 0 Z " fill="#20BBEF" transform="translate(734.98291015625,326.6708984375)"/>
<path d="M0 0 C0.73871338 -0.01297119 1.47742676 -0.02594238 2.23852539 -0.03930664 C6.05503262 -0.04602033 8.55838212 0.34883118 11.875 2.1875 C12.01536279 19.50340696 12.12106488 36.81913556 12.18587303 54.13548183 C12.21676882 62.17637118 12.25886665 70.21690638 12.32763672 78.25756836 C12.38757078 85.26847725 12.42618024 92.27912958 12.43953097 99.29028755 C12.44733135 103.00040688 12.46557219 106.70979244 12.50938034 110.41967583 C12.55797048 114.56844046 12.55893095 118.71594174 12.55615234 122.86499023 C12.577724 124.08563171 12.59929565 125.30627319 12.621521 126.56390381 C12.56487452 134.39242634 11.10062666 139.27833878 5.875 145.1875 C0.60529147 150.20941659 -4.75512681 153.22453454 -12.125 153.1875 C-13.78982422 153.25904297 -13.78982422 153.25904297 -15.48828125 153.33203125 C-27.82424451 153.68374298 -27.82424451 153.68374298 -33.125 150.1875 C-39.07326811 143.91486886 -38.8291247 138.2549522 -38.74023438 129.88012695 C-38.74373955 128.53584087 -38.74940261 127.19155895 -38.75704956 125.84729004 C-38.77124662 122.21297634 -38.75428953 118.57942383 -38.73076439 114.94518304 C-38.71060216 111.13673252 -38.71653751 107.32831195 -38.71887207 103.51982117 C-38.71881858 97.12856543 -38.69910357 90.73760611 -38.66699219 84.34643555 C-38.63005526 76.9589425 -38.62132388 69.57183687 -38.6282897 62.18426353 C-38.63459435 55.07058061 -38.62384421 47.95703039 -38.60432434 40.84337425 C-38.59615314 37.81833187 -38.59344024 34.79335732 -38.59501648 31.76830482 C-38.59589537 28.20833969 -38.58167856 24.6487428 -38.55578995 21.08887482 C-38.54521318 19.15981892 -38.54930023 17.23070012 -38.55380249 15.30162048 C-38.5424527 14.15349884 -38.53110291 13.0053772 -38.51940918 11.82246399 C-38.51568047 10.82495778 -38.51195175 9.82745157 -38.50811005 8.7997179 C-38.06022733 5.74585059 -37.26376199 4.38731203 -35.125 2.1875 C-32.38787255 1.27512418 -30.49280568 1.00266355 -27.65234375 0.87109375 C-26.31502197 0.8078894 -26.31502197 0.8078894 -24.95068359 0.7434082 C-23.52103271 0.68479614 -23.52103271 0.68479614 -22.0625 0.625 C-21.08619629 0.5839917 -20.10989258 0.5429834 -19.10400391 0.50073242 C-12.73724705 0.25100499 -6.37149962 0.05911221 0 0 Z " fill="#7B1FFE" transform="translate(532.125,121.8125)"/>
<path d="M0 0 C0.91523437 -0.01998047 1.83046875 -0.03996094 2.7734375 -0.06054688 C8.45363388 -0.05644269 11.98302573 0.48472316 16.375 4.4375 C19.97067628 8.99321052 19.84596502 13.18546692 19.88671875 18.74609375 C19.90485123 19.68065399 19.9229837 20.61521423 19.94166565 21.57809448 C19.99718207 24.67702965 20.03069723 27.7757369 20.0625 30.875 C20.09345704 33.04517493 20.12504352 35.21534096 20.15722656 37.38549805 C20.23718192 43.18954423 20.2932786 48.9935934 20.34246826 54.79797363 C20.37537676 58.47965056 20.41572319 62.16118749 20.45751953 65.84277344 C20.52470793 71.96203735 20.57194918 78.08116845 20.60415649 84.20071411 C20.6179496 86.54943931 20.63625267 88.89814275 20.65927124 91.24679565 C20.92121045 120.19948226 20.92121045 120.19948226 14.875 128.1875 C12.375 130.4375 12.375 130.4375 9.375 130.4375 C9.375 131.0975 9.375 131.7575 9.375 132.4375 C4.00335605 134.83780216 -0.8091338 135.38653256 -6.625 134.4375 C-10.92468002 132.27057064 -14.08037235 130.07138296 -15.625 125.4375 C-15.71436258 122.76609914 -15.7478683 120.12063526 -15.73510742 117.44946289 C-15.73565004 115.76400247 -15.73623704 114.07854206 -15.73686218 112.39308167 C-15.73543402 111.49978212 -15.73400585 110.60648258 -15.73253441 109.68611336 C-15.72901804 104.96060603 -15.75480584 100.23521828 -15.77539062 95.50976562 C-15.79975039 89.49412048 -15.8154015 83.47882239 -15.80004883 77.46313477 C-15.78840634 72.60291867 -15.80573006 67.74356352 -15.84249306 62.88348198 C-15.8511227 61.03073414 -15.84900646 59.17790417 -15.835989 57.32518196 C-15.81914166 54.73413604 -15.8392367 52.14581713 -15.86791992 49.55493164 C-15.85412796 48.78856384 -15.840336 48.02219604 -15.8261261 47.23260498 C-15.81334455 44.8165985 -15.81334455 44.8165985 -16.625 41.4375 C-19.48978877 39.04765223 -19.48978877 39.04765223 -22.625 37.4375 C-24.81420665 32.9770703 -24.97653102 28.5201893 -24.9375 23.625 C-24.93403564 22.92157471 -24.93057129 22.21814941 -24.92700195 21.4934082 C-24.80468638 15.62969422 -24.34218568 9.48609812 -20.28588867 4.93505859 C-14.67202397 -0.12674445 -7.1142035 -0.05557971 0 0 Z " fill="#20BBF0" transform="translate(534.625,307.5625)"/>
<path d="M0 0 C5.28233693 2.4939558 7.90414591 5.15479779 9.92578125 10.62890625 C11.16024036 15.09614777 11.98139715 19.60187875 12.6328125 24.1875 C13.49003906 24.3834375 14.34726562 24.579375 15.23046875 24.78125 C23.15395712 26.85368439 28.25154795 29.07524721 32.6328125 36.1875 C34.06331146 40.47899688 34.12063953 44.36923562 32.9453125 48.75 C30.20545165 53.83831302 27.27242857 57.63511785 21.74609375 59.73046875 C17.42698067 60.66454681 13.02281602 60.40184014 8.6328125 60.1875 C8.54644531 60.744375 8.46007812 61.30125 8.37109375 61.875 C7.03325494 69.14106035 4.45899752 74.56318534 -0.9921875 79.625 C-5.57056822 82.63709258 -10.04895643 82.81577688 -15.3671875 82.1875 C-20.6897633 80.3718065 -23.67773129 77.0492093 -26.3671875 72.1875 C-27.25933402 69.51106043 -27.50258961 67.93365622 -27.4921875 65.1875 C-27.49476563 64.506875 -27.49734375 63.82625 -27.5 63.125 C-27.3671875 61.1875 -27.3671875 61.1875 -26.3671875 58.1875 C-26.99625 58.23390625 -27.6253125 58.2803125 -28.2734375 58.328125 C-34.51904302 58.59149391 -39.28301886 58.02704537 -44.3671875 54.1875 C-48.10278265 49.49405994 -49.8077031 45.50799472 -49.70703125 39.4453125 C-48.96747595 34.53194507 -46.51829858 30.12568385 -42.828125 26.80078125 C-37.09343651 23.14525707 -30.0455644 22.1875 -23.3671875 22.1875 C-23.43679688 21.48625 -23.50640625 20.785 -23.578125 20.0625 C-23.9440814 13.64954978 -23.43039009 9.74465377 -19.13671875 4.84765625 C-13.48560432 -0.45416193 -7.51139206 -2.57816757 0 0 Z " fill="#21BAEF" transform="translate(838.3671875,331.8125)"/>
<path d="M0 0 C2.08749332 4.61913415 3.9014888 9.11902768 4.8046875 14.12109375 C5.81271701 21.66087338 5.81271701 21.66087338 10.01953125 27.4453125 C12.45336444 28.11273668 12.45336444 28.11273668 15.05859375 28.4375 C18.75936662 29.14521752 21.74789302 30.74380116 25 32.5625 C26.093125 33.16191406 27.18625 33.76132813 28.3125 34.37890625 C31 36 31 36 33 38 C33.25 41.5 33.25 41.5 33 45 C30.28779212 47.71220788 27.54901955 48.06760687 23.8984375 49.0234375 C20.06711766 50.31431346 16.57537415 52.12675893 13 54 C13.02618408 54.68102783 13.05236816 55.36205566 13.0793457 56.0637207 C13.18321531 59.14641289 13.24829317 62.22873759 13.3125 65.3125 C13.35439453 66.38435547 13.39628906 67.45621094 13.43945312 68.56054688 C13.45556641 69.58857422 13.47167969 70.61660156 13.48828125 71.67578125 C13.51446533 72.62364502 13.54064941 73.57150879 13.56762695 74.5480957 C13 77 13 77 10.64916992 78.859375 C8 80 8 80 5.125 79.57421875 C0.42351557 77.20584597 -3.0308568 73.71930133 -6.7890625 70.08007812 C-10.38963525 66.6895617 -10.38963525 66.6895617 -15.15625 65.9921875 C-17.78970661 66.92547295 -20.09144727 67.90314759 -22.5 69.3125 C-23.26957031 69.7559375 -24.03914063 70.199375 -24.83203125 70.65625 C-26.66925441 71.79499733 -28.43792491 73.04320043 -30.1875 74.3125 C-33.45452291 76.27271375 -35.25395196 76.59596219 -39 76 C-41.27129075 72.59306388 -41.09273114 71.23427615 -40.48046875 67.30859375 C-39.27727182 61.52737924 -37.482775 56.06476369 -35.0625 50.6875 C-33.55769616 47.07586964 -33.55769616 47.07586964 -35.4375 44.3125 C-37.34535596 42.59077633 -39.26584376 40.94149701 -41.25 39.3125 C-42.1575 38.549375 -43.065 37.78625 -44 37 C-44 36.34 -44 35.68 -44 35 C-44.66 35 -45.32 35 -46 35 C-47.52491998 31.95016004 -47.23562548 29.3576631 -47 26 C-43.96201415 22.07284756 -39.66858739 21.7167804 -35 21 C-33.7625 20.90589844 -32.525 20.81179687 -31.25 20.71484375 C-24.22732076 20.42159862 -24.22732076 20.42159862 -18.13671875 17.4453125 C-16.84751294 15.3540275 -15.93535421 13.27104003 -15 11 C-13.96386509 9.17230009 -12.90063466 7.35972716 -11.8125 5.5625 C-11.32394531 4.71816406 -10.83539062 3.87382813 -10.33203125 3.00390625 C-7.69296978 -0.96629473 -4.42582931 -0.0819598 0 0 Z " fill="#1FB9EF" transform="translate(530,33)"/>
<path d="M0 0 C1.52947266 -0.04930664 1.52947266 -0.04930664 3.08984375 -0.09960938 C10.01464464 -0.14850078 15.4279501 0.93728333 20.875 5.4375 C24.42436073 10.50867362 25.54809886 15.26141255 24.484375 21.3671875 C22.90548893 26.73135171 19.51480218 30.48489861 14.875 33.4375 C9.82248946 35.27477656 5.55412346 35.50905498 0.1875 35.4375 C-11.19325691 35.31681329 -21.04208161 37.36771976 -31.59472656 41.49267578 C-38.26352343 43.9511009 -43.76727986 43.64121099 -50.4375 41.25 C-53.76493174 39.00591813 -55.8607635 37.24417895 -57.125 33.4375 C-57.98057134 27.79072918 -58.37236349 22.24188716 -56.0078125 16.92578125 C-51.26409448 10.73062712 -44.3403255 8.66189316 -37.125 6.4375 C-35.94808594 6.06753906 -34.77117187 5.69757813 -33.55859375 5.31640625 C-22.36632757 1.9624121 -11.69160636 0.06702195 0 0 Z " fill="#23B8F0" transform="translate(359.125,366.5625)"/>
<path d="M0 0 C5.24786245 2.83992556 8.08202563 6.4092812 10 12 C10.2784729 14.53742981 10.2784729 14.53742981 10.31884766 17.24926758 C10.33871735 18.26994827 10.35858704 19.29062897 10.37905884 20.34223938 C10.39061005 21.4319957 10.40216125 22.52175201 10.4140625 23.64453125 C10.43342865 24.7694548 10.4527948 25.89437836 10.4727478 27.0533905 C10.5324371 30.63968366 10.57888694 34.22600909 10.625 37.8125 C10.66318953 40.24675864 10.70224183 42.68100392 10.7421875 45.11523438 C10.83812998 51.07670405 10.92320875 57.03825453 11 63 C11.804375 62.05125 12.60875 61.1025 13.4375 60.125 C13.88996094 59.59132813 14.34242188 59.05765625 14.80859375 58.5078125 C16.0878152 56.99405921 16.0878152 56.99405921 17 55 C17.66 55 18.32 55 19 55 C19.25523437 54.43796875 19.51046875 53.8759375 19.7734375 53.296875 C21.15692781 50.70613518 22.79938583 48.54892155 24.625 46.25 C25.25664062 45.45078125 25.88828125 44.6515625 26.5390625 43.828125 C27.02117187 43.22484375 27.50328125 42.6215625 28 42 C28.99 42.495 28.99 42.495 30 43 C29.23816406 43.94359375 28.47632813 44.8871875 27.69140625 45.859375 C21.85981645 53.10456869 16.13459944 60.39430455 10.64453125 67.90234375 C9.83048828 68.94068359 9.83048828 68.94068359 9 70 C8.67 70 8.34 70 8 70 C7.99635437 69.27416718 7.99270874 68.54833435 7.98895264 67.80050659 C7.95101178 60.94440556 7.89409005 54.08869341 7.81609726 47.23293877 C7.77666697 43.70865959 7.74445718 40.18462859 7.72900391 36.66015625 C7.71089674 32.60376248 7.66092678 28.54829512 7.609375 24.4921875 C7.60814636 23.23260223 7.60691772 21.97301697 7.60565186 20.67526245 C7.48843641 12.03358444 7.48843641 12.03358444 3 5 C-0.70281898 1.82615516 -4.01761594 1.53884975 -8.7265625 1.7109375 C-14.48624469 2.44326823 -18.72558064 5.24369207 -23 9 C-21.50521886 5.19510255 -19.30557786 3.33809165 -16 1 C-10.7460788 -0.75130707 -5.45975748 -0.79192237 0 0 Z " fill="#6B80FD" transform="translate(423,299)"/>
<path d="M0 0 C1.32 0.33 2.64 0.66 4 1 C4.07008292 18.38505522 4.12298463 35.77006636 4.15543652 53.15523052 C4.17090503 61.22747711 4.19199421 69.29963592 4.22631836 77.37182617 C4.25622124 84.40759856 4.27557512 91.44330737 4.28226548 98.47914153 C4.28617626 102.20453976 4.29536664 105.92975612 4.31719017 109.65509605 C4.34135599 113.81401002 4.34196942 117.97260785 4.34057617 122.1315918 C4.351362 123.36661438 4.36214783 124.60163696 4.3732605 125.87408447 C4.36913651 127.00845444 4.36501251 128.1428244 4.36076355 129.31156921 C4.36352893 130.29512233 4.36629431 131.27867544 4.36914349 132.2920332 C3.93649521 135.46585914 2.80275013 137.38336786 1 140 C0.67 139.34 0.34 138.68 0 138 C0.30413692 137.2475255 0.60827385 136.495051 0.92162704 135.71977425 C2.09806272 132.75267513 2.25144507 130.66178146 2.25396729 127.48361206 C2.25960693 126.38723419 2.26524658 125.29085632 2.27105713 124.16125488 C2.26700867 122.96834839 2.26296021 121.77544189 2.25878906 120.54638672 C2.2622937 119.28251129 2.26579834 118.01863586 2.26940918 116.71646118 C2.27851098 113.25794927 2.27499858 109.79955694 2.26865101 106.341043 C2.26358177 102.72028885 2.26828483 99.09954484 2.27142334 95.47879028 C2.27505936 89.40104333 2.27027248 83.32334503 2.26074219 77.24560547 C2.24984852 70.21719658 2.25339125 63.18890365 2.264395 56.16049755 C2.27346659 50.12472092 2.27475408 44.08897922 2.26951766 38.05319798 C2.2663985 34.44872392 2.26598731 30.8443044 2.27259064 27.23983383 C2.27943288 23.22476054 2.26995351 19.20988778 2.25878906 15.19482422 C2.26283752 13.99786926 2.26688599 12.80091431 2.27105713 11.56768799 C2.26541748 10.47694977 2.25977783 9.38621155 2.25396729 8.26242065 C2.25321323 7.31301542 2.25245918 6.36361019 2.25168228 5.3854351 C2.15870525 2.7350283 2.15870525 2.7350283 0 0 Z " fill="#852FFF" transform="translate(540,123)"/>
<path d="M0 0 C0.99 0.33 1.98 0.66 3 1 C2.195625 1.61875 1.39125 2.2375 0.5625 2.875 C-2.03874519 4.74164041 -2.03874519 4.74164041 -3 7 C-3.15676775 9.69655446 -3.25836315 12.37129977 -3.31640625 15.0703125 C-3.33718735 15.86654022 -3.35796844 16.66276794 -3.37937927 17.48312378 C-3.44484149 20.03032685 -3.50374415 22.57763425 -3.5625 25.125 C-3.6056884 26.85027127 -3.64930279 28.57553193 -3.69335938 30.30078125 C-3.80051945 34.53374685 -3.90179623 38.76681753 -4 43 C-4.54092285 42.85852539 -5.0818457 42.71705078 -5.63916016 42.57128906 C-11.29690606 41.18933696 -16.56182871 40.68332563 -22.375 40.75 C-23.61020386 40.75580078 -23.61020386 40.75580078 -24.87036133 40.76171875 C-31.06006824 40.84928313 -36.98208991 41.48537993 -43 43 C-35.15924105 36.77852823 -24.61585556 37.102609 -15 38 C-11.97068649 38.55904014 -8.98499209 39.24067129 -6 40 C-5.99589111 39.00145996 -5.99178223 38.00291992 -5.98754883 36.97412109 C-5.96568677 33.24997164 -5.91132599 29.52686818 -5.84741211 25.80322266 C-5.82429329 24.19525214 -5.80985076 22.58713152 -5.80444336 20.97900391 C-5.79510804 18.65953701 -5.75402541 16.34241086 -5.70703125 14.0234375 C-5.7109639 13.31069672 -5.71489655 12.59795593 -5.71894836 11.86361694 C-5.55542684 6.20076714 -3.81331004 3.87965155 0 0 Z " fill="#599FF9" transform="translate(644,286)"/>
<path d="M0 0 C5.28792204 2.48385209 7.9084682 5.15201805 9.9296875 10.625 C11.16414661 15.09224152 11.9853034 19.5979725 12.63671875 24.18359375 C15.60671875 25.17359375 18.57671875 26.16359375 21.63671875 27.18359375 C17.57562506 28.19886717 16.96705037 28.23789859 13.38671875 26.74609375 C12.32710937 26.31490234 12.32710937 26.31490234 11.24609375 25.875 C10.715 25.64683594 10.18390625 25.41867187 9.63671875 25.18359375 C9.6109375 24.48234375 9.58515625 23.78109375 9.55859375 23.05859375 C9.08325416 15.10745877 7.89849929 9.2900514 2.01171875 3.68359375 C-2.55762688 1.65277347 -6.4382162 1.36675369 -11.36328125 2.18359375 C-14.78551656 3.90769491 -14.78551656 3.90769491 -17.36328125 6.18359375 C-18.35328125 6.84359375 -19.34328125 7.50359375 -20.36328125 8.18359375 C-16.86698009 -0.08039081 -8.18257653 -2.82670826 0 0 Z " fill="#6C92FA" transform="translate(838.36328125,331.81640625)"/>
<path d="M0 0 C2.86724686 0.57344937 3.8614515 0.8614515 6 3 C6.25 6.5 6.25 6.5 6 10 C3.28779212 12.71220788 0.54901955 13.06760687 -3.1015625 14.0234375 C-6.93288234 15.31431346 -10.42462585 17.12675893 -14 19 C-13.97381592 19.68102783 -13.94763184 20.36205566 -13.9206543 21.0637207 C-13.81678469 24.14641289 -13.75170683 27.22873759 -13.6875 30.3125 C-13.6246582 31.9202832 -13.6246582 31.9202832 -13.56054688 33.56054688 C-13.54443359 34.58857422 -13.52832031 35.61660156 -13.51171875 36.67578125 C-13.48553467 37.62364502 -13.45935059 38.57150879 -13.43237305 39.5480957 C-14 42 -14 42 -16.38598633 43.88354492 C-19 45 -19 45 -21.3125 44.1875 C-21.869375 43.795625 -22.42625 43.40375 -23 43 C-20.69 42.34 -18.38 41.68 -16 41 C-16 33.08 -16 25.16 -16 17 C-10.9163308 14.4581654 -6.7629309 12.42456892 -1.5 10.75 C-0.4584375 10.41484375 0.583125 10.0796875 1.65625 9.734375 C2.4296875 9.49203125 3.203125 9.2496875 4 9 C3.36588862 3.78161391 3.36588862 3.78161391 0 0 Z " fill="#7261FC" transform="translate(557,68)"/>
<path d="M0 0 C1.12894876 0.93274109 2.25300876 1.87140122 3.375 2.8125 C4.00148438 3.33457031 4.62796875 3.85664063 5.2734375 4.39453125 C7 6 7 6 9 9 C6.53199953 7.84826645 4.95216435 6.95216435 3 5 C2.98541748 5.78125244 2.97083496 6.56250488 2.95581055 7.36743164 C2.88099502 10.93293368 2.78444367 14.49753377 2.6875 18.0625 C2.66494141 19.29162109 2.64238281 20.52074219 2.61914062 21.78710938 C2.42901079 28.19967028 2.25110175 33.39025581 -1 39 C-3.1875 40.9375 -3.1875 40.9375 -5 42 C-3 38 -3 38 -1.95556641 36.34863281 C-0.5963855 33.00797867 -0.64272985 29.72686842 -0.5859375 26.171875 C-0.56657135 25.42286926 -0.5472052 24.67386353 -0.5272522 23.90216064 C-0.46764284 21.51822164 -0.42114646 19.13423386 -0.375 16.75 C-0.33680299 15.13018769 -0.29775025 13.51039532 -0.2578125 11.890625 C-0.16195687 7.92724594 -0.07785754 3.96377181 0 0 Z " fill="#58A0FC" transform="translate(431,405)"/>
<path d="M0 0 C0.99 0.33 1.98 0.66 3 1 C2.90639907 6.62366547 2.80028992 12.2469038 2.68261719 17.87011719 C2.64435032 19.78281195 2.60949342 21.69557811 2.578125 23.60839844 C2.53242473 26.35898342 2.47443855 29.10907783 2.4140625 31.859375 C2.40251129 32.71368103 2.39096008 33.56798706 2.37905884 34.44818115 C2.35918915 35.24870911 2.33931946 36.04923706 2.31884766 36.87402344 C2.30552399 37.57573669 2.29220032 38.27744995 2.2784729 39.00042725 C2 41 2 41 0 45 C0 30.15 0 15.3 0 0 Z " fill="#822EFF" transform="translate(376,230)"/>
<path d="M0 0 C0.66 0.33 1.32 0.66 2 1 C1.39671875 1.79921875 0.7934375 2.5984375 0.171875 3.421875 C-7.69855819 14.12875187 -12.16461643 24.74748084 -12.09765625 38.2734375 C-12.09443359 39.42714844 -12.09121094 40.58085937 -12.08789062 41.76953125 C-12.07951172 42.95933594 -12.07113281 44.14914062 -12.0625 45.375 C-12.05798828 46.58800781 -12.05347656 47.80101562 -12.04882812 49.05078125 C-12.03708354 52.03390507 -12.0206584 55.01692679 -12 58 C-17.55118272 48.54914603 -14.93082843 31.01314287 -12.5 20.6875 C-10.04150281 12.90520673 -5.79067008 5.79067008 0 0 Z " fill="#47ABF8" transform="translate(582,341)"/>
<path d="M0 0 C3.16115776 1.36983503 3.9927092 1.9890638 6 5 C5.63526444 9.59827337 4.14140236 13.59017638 2.5 17.875 C0.60900179 23.01938707 -0.67241381 27.5402302 -1 33 C2.3 32.34 5.6 31.68 9 31 C6.67450611 33.86214633 5.59605477 34.91655233 1.875 35.4375 C0.92625 35.293125 -0.0225 35.14875 -1 35 C-3.27129075 31.59306388 -3.09273114 30.23427615 -2.48046875 26.30859375 C-1.27727182 20.52737924 0.517225 15.06476369 2.9375 9.6875 C3.288125 8.470625 3.63875 7.25375 4 6 C2.34294424 3.03070851 2.34294424 3.03070851 0 1 C0 0.67 0 0.34 0 0 Z " fill="#696CFA" transform="translate(492,74)"/>
<path d="M0 0 C1.27101563 -0.02578125 2.54203125 -0.0515625 3.8515625 -0.078125 C7.61076562 0.271956 9.4134764 0.96203592 12.375 3.25 C15.06364626 7.2829694 15.18207563 10.50941013 14.375 15.25 C12.96139773 17.95406845 11.37217953 19.90331406 9.375 22.25 C8.715 21.92 8.055 21.59 7.375 21.25 C7.74753906 20.75371094 8.12007813 20.25742187 8.50390625 19.74609375 C11.02659631 16.12359331 12.34983826 14.00485225 12.5 9.5 C11.10581305 5.47234882 10.16117972 4.2219686 6.375 2.25 C3.20640521 1.99446816 0.51984459 2.01946506 -2.625 2.25 C-3.91792969 2.32863281 -5.21085937 2.40726562 -6.54296875 2.48828125 C-10.238871 2.71725797 -13.93203131 2.977528 -17.625 3.25 C-12.35079875 -0.26613417 -6.19751986 0.07573344 0 0 Z " fill="#6394FB" transform="translate(477.625,330.75)"/>
<path d="M0 0 C0.66 0.33 1.32 0.66 2 1 C1.23816406 1.94359375 0.47632813 2.8871875 -0.30859375 3.859375 C-6.14018355 11.10456869 -11.86540056 18.39430455 -17.35546875 25.90234375 C-18.16951172 26.94068359 -18.16951172 26.94068359 -19 28 C-19.33 28 -19.66 28 -20 28 C-20 24.37 -20 20.74 -20 17 C-19.34 17 -18.68 17 -18 17 C-17.67 18.32 -17.34 19.64 -17 21 C-16.195625 20.05125 -15.39125 19.1025 -14.5625 18.125 C-13.88380859 17.32449219 -13.88380859 17.32449219 -13.19140625 16.5078125 C-11.9121848 14.99405921 -11.9121848 14.99405921 -11 13 C-10.34 13 -9.68 13 -9 13 C-8.74476563 12.43796875 -8.48953125 11.8759375 -8.2265625 11.296875 C-6.84307219 8.70613518 -5.20061417 6.54892155 -3.375 4.25 C-2.74335938 3.45078125 -2.11171875 2.6515625 -1.4609375 1.828125 C-0.97882813 1.22484375 -0.49671875 0.6215625 0 0 Z " fill="#5B9DFB" transform="translate(451,341)"/>
<path d="M0 0 C2.4375 1.25 2.4375 1.25 5 3 C5.36162029 4.32594105 5.69728039 5.65938457 6 7 C6.58136719 7.27714844 7.16273438 7.55429687 7.76171875 7.83984375 C15.63708214 11.92183839 21.62113921 22.11154067 27 29 C26.67 29.66 26.34 30.32 26 31 C20.13390021 24.66853113 14.48187628 18.26614842 9.10546875 11.5078125 C6.98035487 8.90224078 6.98035487 8.90224078 4.3203125 6.32421875 C2.23760018 4.23800018 1.09836369 2.69598361 0 0 Z " fill="#55A6FB" transform="translate(466,389)"/>
<path d="M0 0 C0.33 0.66 0.66 1.32 1 2 C0.04737966 3.48285242 -0.91228405 4.96118201 -1.875 6.4375 C-2.40867187 7.26121094 -2.94234375 8.08492187 -3.4921875 8.93359375 C-5 11 -5 11 -7 12 C-8.5195764 12.15123831 -10.04472502 12.24881693 -11.5703125 12.31640625 C-12.91416016 12.37924805 -12.91416016 12.37924805 -14.28515625 12.44335938 C-15.22230469 12.48267578 -16.15945313 12.52199219 -17.125 12.5625 C-18.06988281 12.60568359 -19.01476562 12.64886719 -19.98828125 12.69335938 C-22.32537092 12.79959072 -24.6625683 12.90163176 -27 13 C-27 12.67 -27 12.34 -27 12 C-26.39003174 11.95101562 -25.78006348 11.90203125 -25.15161133 11.8515625 C-22.36699101 11.60603968 -19.59135441 11.30367994 -16.8125 11 C-15.85279297 10.92394531 -14.89308594 10.84789062 -13.90429688 10.76953125 C-8.4990097 10.20850145 -8.4990097 10.20850145 -4.24365234 7.125 C-3.00399487 5.12655974 -1.97535548 3.13680045 -1 1 C-0.67 0.67 -0.34 0.34 0 0 Z " fill="#6D81FA" transform="translate(516,43)"/>
<path d="M0 0 C1.27837194 2.55674387 0.69805357 3.28481232 0 6 C-0.06624507 7.74886981 -0.08552595 9.50002748 -0.0625 11.25 C-0.041875 12.8175 -0.02125 14.385 0 16 C-4.95 16.66 -9.9 17.32 -15 18 C-15 17.34 -15 16.68 -15 16 C-13.58461283 15.66127487 -12.16762037 15.32925376 -10.75 15 C-9.56664062 14.7215625 -9.56664062 14.7215625 -8.359375 14.4375 C-6 14 -6 14 -2 14 C-2.02320313 13.24074219 -2.04640625 12.48148437 -2.0703125 11.69921875 C-2.09738281 10.20841797 -2.09738281 10.20841797 -2.125 8.6875 C-2.14820313 7.70136719 -2.17140625 6.71523438 -2.1953125 5.69921875 C-2 3 -2 3 0 0 Z " fill="#7291FA" transform="translate(817,340)"/>
<path d="M0 0 C0 0.66 0 1.32 0 2 C-2.74647302 2.72559658 -5.4955858 3.43079805 -8.25 4.125 C-9.02730469 4.33253906 -9.80460938 4.54007813 -10.60546875 4.75390625 C-11.35957031 4.94082031 -12.11367187 5.12773437 -12.890625 5.3203125 C-13.58188477 5.49836426 -14.27314453 5.67641602 -14.98535156 5.85986328 C-17.51830907 6.03605301 -18.85149617 5.28488954 -21 4 C-18.25124318 3.32781493 -15.50119274 2.66207565 -12.75 2 C-11.97269531 1.80921875 -11.19539062 1.6184375 -10.39453125 1.421875 C-9.64042969 1.24140625 -8.88632813 1.0609375 -8.109375 0.875 C-7.41811523 0.70742187 -6.72685547 0.53984375 -6.01464844 0.3671875 C-4 0 -4 0 0 0 Z " fill="#6A0DFE" transform="translate(236,226)"/>
<path d="M0 0 C6 6 12 12 18 18 C17.67 18.66 17.34 19.32 17 20 C14.15456244 17.24136787 11.32585243 14.46618001 8.5 11.6875 C7.68917969 10.90181641 6.87835938 10.11613281 6.04296875 9.30664062 C5.27597656 8.54931641 4.50898438 7.79199219 3.71875 7.01171875 C3.00654297 6.31522217 2.29433594 5.61872559 1.56054688 4.90112305 C0 3 0 3 0 0 Z " fill="#913BFF" transform="translate(448,227)"/>
<path d="M0 0 C0.87462891 0.00451172 1.74925781 0.00902344 2.65039062 0.01367188 C4.78779047 0.02535166 6.92515463 0.04328311 9.0625 0.0625 C9.0625 0.3925 9.0625 0.7225 9.0625 1.0625 C8.3511792 1.11784912 7.6398584 1.17319824 6.90698242 1.23022461 C3.68766867 1.48292089 0.46884403 1.74139202 -2.75 2 C-3.86955078 2.08701172 -4.98910156 2.17402344 -6.14257812 2.26367188 C-7.21572266 2.35068359 -8.28886719 2.43769531 -9.39453125 2.52734375 C-10.8791687 2.64517212 -10.8791687 2.64517212 -12.39379883 2.76538086 C-15.05605838 2.98867008 -15.05605838 2.98867008 -17.9375 4.0625 C-17.6075 3.0725 -17.2775 2.0825 -16.9375 1.0625 C-11.24910882 0.0822752 -5.76455667 -0.05698801 0 0 Z " fill="#9335FF" transform="translate(431.9375,128.9375)"/>
<path d="M0 0 C0 0.99 0 1.98 0 3 C-4.86601891 7.86601891 -11.98103251 7.23327996 -18.42578125 7.265625 C-21 7 -21 7 -23 5 C-22.38253906 5.02320313 -21.76507813 5.04640625 -21.12890625 5.0703125 C-13.80724985 5.22632953 -5.61979197 5.37545319 0 0 Z " fill="#61A1FD" transform="translate(491,439)"/>
<path d="M0 0 C6.3343346 5.09500827 11.62789574 10.92530665 17 17 C14 17 14 17 11.9140625 14.98828125 C11.15867187 14.10527344 10.40328125 13.22226562 9.625 12.3125 C5.91540236 8.02861779 5.91540236 8.02861779 1.9375 4 C0 2 0 2 0 0 Z " fill="#56A6FD" transform="translate(451,426)"/>
<path d="M0 0 C3.09219842 0.33054535 4.66198916 0.68993494 6.984375 2.8203125 C10.64947589 7.60440437 12.87032339 10.9051995 13 17 C11.93518803 15.40278204 10.88175285 13.79520964 9.921875 12.1328125 C7.14696991 7.37847511 4.35838614 4.34480797 0 1 C0 0.67 0 0.34 0 0 Z " fill="#9346FE" transform="translate(748,135)"/>
<path d="M0 0 C0.33 1.32 0.66 2.64 1 4 C0.34 3.67 -0.32 3.34 -1 3 C-3.8715965 2.33209636 -3.8715965 2.33209636 -7 3 C-9.03923423 5.11868491 -10.53492275 7.45880407 -12 10 C-12.33 9.34 -12.66 8.68 -13 8 C-9.38977312 0.90403683 -8.20961092 -0.15202983 0 0 Z " fill="#6C82F9" transform="translate(530,33)"/>
<path d="M0 0 C0 3 0 3 -1.53125 4.82421875 C-2.1809375 5.43910156 -2.830625 6.05398438 -3.5 6.6875 C-4.1496875 7.31011719 -4.799375 7.93273437 -5.46875 8.57421875 C-5.9740625 9.04472656 -6.479375 9.51523437 -7 10 C-7.60546875 8.1328125 -7.60546875 8.1328125 -8 6 C-5.71624938 3.12416589 -3.35915158 1.43963639 0 0 Z " fill="#3FAAF4" transform="translate(800,357)"/>
<path d="M0 0 C0 4.1216293 -1.52178918 5.7391963 -4 9 C-5.92484267 10.80277948 -7.90866501 12.38396842 -10 14 C-10.66 13.67 -11.32 13.34 -12 13 C-8.04 8.71 -4.08 4.42 0 0 Z " fill="#8E2AFE" transform="translate(393,157)"/>
<path d="M0 0 C0.66 0 1.32 0 2 0 C2.33 1.32 2.66 2.64 3 4 C3.66 3.34 4.32 2.68 5 2 C4.5206753 6.31392226 3.2542015 8.16569547 0 11 C0 7.37 0 3.74 0 0 Z " fill="#48AFFB" transform="translate(431,358)"/>
<path d="M0 0 C0.66 0.33 1.32 0.66 2 1 C0.54420484 3.12677894 -0.91450225 5.2514542 -2.375 7.375 C-2.7875 7.97828125 -3.2 8.5815625 -3.625 9.203125 C-5.3022395 11.63782751 -6.90467771 13.90467771 -9 16 C-8.4498359 11.75151059 -7.01308674 9.19004496 -4.5 5.75 C-3.55640625 4.44289063 -3.55640625 4.44289063 -2.59375 3.109375 C-1 1 -1 1 0 0 Z " fill="#54A4FA" transform="translate(582,341)"/>
<path d="M0 0 C1.32 0.33 2.64 0.66 4 1 C1.36 3.64 -1.28 6.28 -4 9 C-4 5.28703828 -2.65223411 2.65223411 0 0 Z " fill="#33ADF4" transform="translate(587,336)"/>
<path d="M0 0 C-1 2 -1 2 -2.734375 2.62109375 C-5.28144284 3.04706889 -7.66856169 3.09646629 -10.25 3.0625 C-11.14203125 3.05347656 -12.0340625 3.04445312 -12.953125 3.03515625 C-13.62859375 3.02355469 -14.3040625 3.01195312 -15 3 C-9.94813947 0.37814833 -5.68917445 -0.13230638 0 0 Z " fill="#730EFE" transform="translate(240,147)"/>
<path d="M0 0 C5.74546847 2.06836865 8.88614543 4.48479377 13 9 C12.67 9.66 12.34 10.32 12 11 C11.46890625 10.51789063 10.9378125 10.03578125 10.390625 9.5390625 C9.68421875 8.90742188 8.9778125 8.27578125 8.25 7.625 C7.20585938 6.68527344 7.20585938 6.68527344 6.140625 5.7265625 C4.15491312 4.12494817 2.32045907 3.03479932 0 2 C0 1.34 0 0.68 0 0 Z " fill="#54A5FA" transform="translate(754,370)"/>
<path d="M0 0 C0.66 0.66 1.32 1.32 2 2 C1.34 2.66 0.68 3.32 0 4 C-1.90144744 7.91474473 -2.4938293 11.69754903 -3 16 C-3.33 16 -3.66 16 -4 16 C-4.54330269 9.34454208 -3.77304004 5.54165256 0 0 Z " fill="#740CFE" transform="translate(211,157)"/>
<path d="M0 0 C0.66 0.33 1.32 0.66 2 1 C1.01 2.32 0.02 3.64 -1 5 C-0.67 5.598125 -0.34 6.19625 0 6.8125 C1 9 1 9 1 12 C-0.65 10.35 -2.3 8.7 -4 7 C-2.92598892 4.08482708 -2.22189824 2.22189824 0 0 Z " fill="#4FA9FA" transform="translate(464,377)"/>
<path d="M0 0 C1.5 1.375 1.5 1.375 3 3 C3 3.66 3 4.32 3 5 C3.99 5.33 4.98 5.66 6 6 C7.6875 8.5625 7.6875 8.5625 9 11 C5.19197555 9.5039904 3.30575443 7.33936849 1 4 C0.25 1.6875 0.25 1.6875 0 0 Z " fill="#48B6F9" transform="translate(603,391)"/>
<path d="M0 0 C0.66 0 1.32 0 2 0 C3.32421875 1.42578125 3.32421875 1.42578125 4.6875 3.3125 C5.14511719 3.92738281 5.60273438 4.54226562 6.07421875 5.17578125 C6.53248047 6.07876953 6.53248047 6.07876953 7 7 C6.67 7.99 6.34 8.98 6 10 C6 9.34 6 8.68 6 8 C5.01 7.67 4.02 7.34 3 7 C1.3125 3.4375 1.3125 3.4375 0 0 Z " fill="#770FFE" transform="translate(254,229)"/>
<path d="M0 0 C1.65 0 3.3 0 5 0 C5 0.66 5 1.32 5 2 C4.01 2.66 3.02 3.32 2 4 C2.99 4.66 3.98 5.32 5 6 C3.35 6 1.7 6 0 6 C0 4.02 0 2.04 0 0 Z " fill="#2EBFF4" transform="translate(722,361)"/>
<path d="M0 0 C0.2475 0.598125 0.495 1.19625 0.75 1.8125 C2.16444091 4.28777159 3.72860188 5.33430804 6 7 C6 7.66 6 8.32 6 9 C3.15616877 7.7251791 0.86245982 6.54862922 -1 4 C-0.6875 1.8125 -0.6875 1.8125 0 0 Z " fill="#620FFE" transform="translate(209,172)"/>
<path d="M0 0 C1.32 0.33 2.64 0.66 4 1 C4 4.96 4 8.92 4 13 C3.67 13 3.34 13 3 13 C2.92652344 11.96939453 2.92652344 11.96939453 2.8515625 10.91796875 C2.77679687 10.01691406 2.70203125 9.11585938 2.625 8.1875 C2.55539062 7.29417969 2.48578125 6.40085938 2.4140625 5.48046875 C2.13354964 2.75601501 2.13354964 2.75601501 0 0 Z " fill="#962CFF" transform="translate(540,123)"/>
<path d="M0 0 C3.16115776 1.36983503 3.9927092 1.9890638 6 5 C5.625 7.1875 5.625 7.1875 5 9 C3.19933758 6.0534615 1.49836105 3.11198065 0 0 Z " fill="#5E81F9" transform="translate(492,74)"/>
</svg>
