<svg width="71" height="32" fill="none" xmlns="http://www.w3.org/2000/svg"><g clip-path="url(#clip0)"><path d="M5.24 29.965l-.114.252a1.215 1.215 0 00-.649-.198c-.302 0-.5.114-.5.312 0 .605 1.323.29 1.32 1.142 0 .393-.346.645-.85.645a1.34 1.34 0 01-.9-.36l.12-.241c.22.212.518.332.784.332.339 0 .55-.137.55-.362.004-.618-1.32-.29-1.32-1.132 0-.37.326-.608.813-.608.272 0 .551.087.746.218zm3.004.051v2.093h-.27v-2.093H7.21v-.258h1.804v.258h-.77zm3.463.047l-.524 1.193h1.055l-.53-1.193zm-.638 1.452l-.262.594h-.286l1.055-2.351h.28l1.05 2.351h-.292l-.262-.594H11.07zm4.781-.407c.426 0 .668-.188.668-.555 0-.356-.242-.537-.668-.537h-.625v1.092h.625zm.158.252c-.05.003-.104.006-.158.006h-.625v.743h-.269v-2.352h.894c.588 0 .927.289.927.79 0 .39-.188.651-.527.762l.55.8h-.305l-.487-.75zm3.772-1.344v2.093h-.268v-2.093h-.766v-.258h1.804v.258h-.77zm4.762 1.126c0 .611-.37.98-.985.98-.618 0-.99-.369-.99-.98v-1.384h.268v1.384c0 .456.276.722.723.722.446 0 .715-.266.715-.723v-1.383h.269v1.384zm2.607-.034h.604c.424 0 .669-.188.669-.555 0-.356-.245-.537-.669-.537h-.604v1.092zm.614-1.35c.582 0 .918.288.918.789 0 .52-.336.82-.918.82h-.614v.742h-.27v-2.352h.884zm5.645 0h.269v2.351h-.269v-2.351zm4.34 2.352l-1.41-1.889v1.888h-.27v-2.351h.28l1.41 1.891v-1.891h.265v2.351h-.275zm4.537-2.017l-.162.205a.988.988 0 00-.695-.295c-.53 0-.957.41-.957.927a.94.94 0 00.957.927c.259 0 .51-.107.695-.282l.165.185a1.298 1.298 0 01-.873.363 1.196 1.196 0 01-1.217-1.193c0-.659.544-1.18 1.227-1.18.322 0 .635.132.86.343zm4.088 1.049c0 .611-.37.98-.984.98-.619 0-.992-.369-.992-.98v-1.384h.27v1.384c0 .456.275.722.722.722.446 0 .715-.266.715-.723v-1.383h.269v1.384zm2.607.712h.708c.384 0 .605-.152.605-.42 0-.256-.221-.407-.605-.407h-.708v.826zm0-1.082h.708c.316 0 .501-.138.501-.383 0-.239-.185-.373-.5-.373h-.71v.756zm.722-1.015c.474 0 .76.219.76.588a.511.511 0 01-.434.531c.34.05.537.272.537.595 0 .4-.316.638-.846.638H48.71v-2.352h.99zm3.938.306l-.524 1.193h1.055l-.531-1.193zm-.638 1.452l-.262.594h-.286l1.055-2.351h.279l1.051 2.351h-.292l-.262-.594h-1.283zm4.384-1.499v2.093h-.268v-2.093h-.766v-.258h1.804v.258h-.77zm2.738.917c0 .518.436.93.96.93a.942.942 0 00.955-.93.94.94 0 00-.954-.927c-.525 0-.961.41-.961.927zm2.19 0c0 .662-.544 1.19-1.23 1.19-.688 0-1.232-.528-1.232-1.19 0-.665.544-1.182 1.233-1.182.685 0 1.23.52 1.23 1.182zm3.065.175c.427 0 .668-.188.668-.555 0-.356-.241-.537-.668-.537h-.625v1.092h.625zm.158.252c-.05.003-.104.006-.158.006h-.625v.743h-.269v-2.352h.894c.588 0 .927.289.927.79 0 .39-.188.651-.527.762l.55.8h-.305l-.487-.75zM2.199 25.149l-.571 1.45h1.13l-.56-1.45zm-.862 2.206l-.286.722H.026l1.691-3.92h1.025l1.652 3.92H3.33l-.28-.722H1.337zm6.708.723l-.006-2.548-.94 2.156h-.65l-.94-2.156v2.548h-.89v-3.926H5.71l1.064 2.335 1.064-2.335h1.086v3.926h-.879zm1.528-3.92h.997v3.92h-.997v-3.92zm3.158 2.38l-.52.576v.964h-.997v-3.92h.997v1.697l1.5-1.697h1.154l-1.456 1.624 1.55 2.296h-1.192l-1.036-1.54z" fill="#000"/><path d="M15.907 26.118c0 .66.51 1.17 1.108 1.17.605 0 1.087-.51 1.087-1.17 0-.66-.482-1.16-1.087-1.16-.604 0-1.108.5-1.108 1.16zm3.22-.006c0 1.143-.908 2.01-2.123 2.01-1.21 0-2.116-.862-2.116-2.01 0-1.142.907-1.987 2.116-1.987 1.215 0 2.122.85 2.122 1.987zm3.813 1.966l-.006-2.548-.94 2.156h-.65l-.94-2.156v2.548h-.891v-3.926h1.092l1.063 2.335 1.064-2.335h1.087v3.926h-.88zm3.678-.768h.806c.37 0 .6-.162.6-.442 0-.263-.23-.425-.6-.425h-.806v.867zm0-1.584h.806c.292 0 .476-.157.476-.409s-.184-.398-.476-.398h-.806v.807zm.863-1.568c.879 0 1.438.381 1.438.98 0 .414-.257.745-.671.862.492.096.806.482.806.991 0 .667-.582 1.087-1.506 1.087h-1.921v-3.92h1.854zm5.538 2.273c0 1.036-.69 1.692-1.786 1.692-1.104 0-1.81-.656-1.81-1.692v-2.273h.998v2.273c0 .532.341.857.817.857.47 0 .79-.325.79-.857v-2.273h.99v2.273zm3.628-1.881l-.376.778c-.414-.24-.935-.408-1.254-.408-.258 0-.431.095-.431.285 0 .678 2.072.291 2.072 1.708 0 .784-.695 1.198-1.568 1.198a2.922 2.922 0 01-1.792-.627l.386-.767c.404.353 1.008.588 1.417.588.313 0 .51-.118.51-.341 0-.695-2.072-.28-2.072-1.67 0-.721.621-1.18 1.562-1.18.566 0 1.142.173 1.546.436zm.415-.392h.996v3.92h-.996v-3.92zm4.378 3.92l-1.803-2.414v2.414h-.935v-3.92h.88l1.808 2.42v-2.42h.93v3.92h-.88zm2.52-3.136v.778h1.87v.784h-1.87v.79h2.133v.784h-3.13v-3.92h3.068v.784H43.96zm5.69-.392l-.376.778c-.414-.24-.935-.408-1.254-.408-.258 0-.431.095-.431.285 0 .678 2.072.291 2.072 1.708 0 .784-.695 1.198-1.568 1.198a2.922 2.922 0 01-1.792-.627l.386-.767c.404.353 1.008.588 1.417.588.313 0 .51-.118.51-.341 0-.695-2.072-.28-2.072-1.67 0-.721.621-1.18 1.562-1.18.565 0 1.142.173 1.545.436zm3.465 0l-.375.778c-.415-.24-.935-.408-1.254-.408-.258 0-.432.095-.432.285 0 .678 2.072.291 2.072 1.708 0 .784-.694 1.198-1.567 1.198a2.922 2.922 0 01-1.792-.627l.386-.767c.403.353 1.008.588 1.416.588.314 0 .51-.118.51-.341 0-.695-2.072-.28-2.072-1.67 0-.721.622-1.18 1.563-1.18.565 0 1.142.173 1.545.436zm2.57 1.64h.661c.437 0 .689-.218.689-.632 0-.409-.252-.616-.689-.616h-.661v1.249zm.711-2.032c1.003 0 1.58.493 1.58 1.366 0 .918-.577 1.45-1.58 1.45h-.711v1.104h-.997v-3.92h1.708zm3.421.992l-.571 1.45h1.131l-.56-1.45zm-.862 2.205l-.286.723h-1.024l1.69-3.92h1.025l1.652 3.92h-1.064l-.28-.723h-1.713zm5.034-1.165c.431 0 .683-.218.683-.632 0-.409-.252-.616-.683-.616h-.756v1.249h.756zm.028.784h-.784v1.104h-.997v-3.92h1.753c1.036 0 1.63.493 1.63 1.366 0 .6-.252 1.03-.712 1.26l.823 1.294H64.6l-.583-1.104zm3.651-.436l-.521.576v.964h-.997v-3.92h.997v1.697l1.5-1.697h1.154l-1.456 1.624 1.551 2.296h-1.192l-1.036-1.54z" fill="#000"/><path d="M61.443 2.917a.549.549 0 11.435-.641.549.549 0 01-.435.641zm-1.346.014a.304.304 0 01-.355-.239.302.302 0 01.24-.353c.167-.033.32.07.353.238a.298.298 0 01-.238.354zm2.96-.959c-.041-.031-.082-.064-.125-.095-.789-.574-1.663-.775-2.623-.582-.625.126-1.185.4-1.699.771-.056.041-.074.084-.06.15.046.227.09.455.134.682.044.226.091.452.133.68.013.073.049.11.12.124.196.035.39.08.588.104.715.087 1.41.017 2.071-.288.654-.301 1.137-.787 1.489-1.41.031-.054.023-.099-.028-.136z" fill="#5D1480"/><path d="M58.647 3.348c.005-.016.004-.045-.007-.054-.011-.009-.037-.003-.055 0-.013.003-.024.014-.035.02a.504.504 0 01-.411.059c-.037-.01-.069-.034-.103-.052a.423.423 0 00.002-.022c.056-.029.114-.06.182-.093-.041-.005-.072-.008-.103-.013-.081-.013-.166-.022-.247-.042-.036-.01-.068-.038-.103-.058.022-.031.039-.07.068-.093.112-.089.229-.172.347-.258-.054-.046-.016-.081.032-.114.046-.03.091-.06.135-.091.035-.026.069-.055.112-.09-.177-.125-.352-.203-.555-.136-.194.062-.322.204-.442.373.057.013.096.02.134.03a.466.466 0 01-.124.046.477.477 0 00-.249.144c-.154.163-.289.35-.516.436.016.016.025.03.037.037.146.07.297.123.463.102.11-.014.22-.037.33-.05.063-.007.128-.025.204.023-.055.018-.096.025-.13.045-.027.015-.046.044-.068.067.023.02.043.049.07.056.139.042.278.081.418.113.1.021.203.013.3-.03a.564.564 0 00.314-.355zm-1.04-2.052h.06c.342.002.596.146.757.449.012.024.026.047.04.071.037.06.091.074.149.033a5.13 5.13 0 01.888-.505c.085-.037.095-.127.017-.181a1.654 1.654 0 00-.233-.14c-.37-.17-.758-.186-1.166-.116-.056.015-.128.028-.192.052a8.696 8.696 0 00-.368.155c-.047.021-.068.062-.054.113.013.05.05.072.102.07z" fill="#FF4800"/><path d="M60.01 4.032a5.024 5.024 0 01-.947-.12c-.134-.031-.163-.01-.179.128-.028.261-.125.486-.356.632a1.71 1.71 0 01-.229.116c-.049.023-.084.05-.075.105.008.06.048.08.105.087.199.023.396.01.664-.035.08-.029.232-.07.374-.131.303-.131.56-.322.738-.607.062-.098.02-.173-.095-.175z" fill="#5D1480"/><path d="M32.296 4.67h3.85c.093 0 .181.01.265.026a166.399 166.399 0 016.293-1.493 4.287 4.287 0 00-.602-1.538A3.575 3.575 0 0040.895.516C40.39.221 39.798.073 39.116.073h-11.41l-1.35 7.657a113.17 113.17 0 015.725-1.84l.215-1.22zM55.073.668C54.33.272 53.479.073 52.519.073h-8.474l-.52 2.952A219.77 219.77 0 0155.39.86c-.105-.065-.207-.132-.317-.192z" fill="#FF4800"/><path d="M36.566 13.587c-.091.517-.313.915-.666 1.191a1.89 1.89 0 01-1.195.415H30.44l.581-3.295h4.458c.407 0 .71.162.912.484.201.324.26.725.175 1.205zm15.887-6.702c-.14.794-.38 1.344-.72 1.648-.34.305-.676.457-1.008.457h-2.852l.404-2.293a237.61 237.61 0 00-5.526.713l-.883 5.01a3.323 3.323 0 00-.413-1.035c-.511-.82-1.3-1.398-2.367-1.73 1.016-.425 1.833-1.057 2.453-1.898.046-.063.083-.128.127-.191-5.154.754-10.67 1.756-15.825 3.072l-1.026 5.821-.903-5.31c-7.495 2.074-13.981 4.862-17.094 8.586h5.484l1.841-3.85h5.234l.512 3.85h14.013c.96 0 1.886-.096 2.779-.291a8.545 8.545 0 002.416-.9 5.823 5.823 0 001.799-1.564c.082-.11.153-.227.226-.343l-.547 3.098h5.401l1.064-6.037h3.213c.96 0 1.874-.19 2.744-.567a7.993 7.993 0 002.318-1.524A9.06 9.06 0 0057.02 9.42a8.045 8.045 0 00.917-2.535c.067-.38.095-.76.092-1.14-1.542.121-3.407.282-5.51.492a4.232 4.232 0 01-.065.648z" fill="#5D1480"/><path d="M15.883 12.285h-.3l2.902-6.092.499 4.528a74.178 74.178 0 014.528-1.933L22.029.073h-4.93L7.01 19.323c.785-1.169 3.074-3.877 8.874-7.038z" fill="#FF4800"/></g><defs><clipPath id="clip0"><path fill="#fff" d="M0 0h70.076v32H0z"/></clipPath></defs></svg>