<?xml version="1.0" encoding="UTF-8" standalone="no"?>
<svg
   xmlns:dc="http://purl.org/dc/elements/1.1/"
   xmlns:cc="http://creativecommons.org/ns#"
   xmlns:rdf="http://www.w3.org/1999/02/22-rdf-syntax-ns#"
   xmlns:svg="http://www.w3.org/2000/svg"
   xmlns="http://www.w3.org/2000/svg"
   viewBox="0 0 657.28131 657.28131"
   height="657.28131"
   width="657.28131"
   xml:space="preserve"
   id="svg2"
   version="1.1"><metadata
     id="metadata8"><rdf:RDF><cc:Work
         rdf:about=""><dc:format>image/svg+xml</dc:format><dc:type
           rdf:resource="http://purl.org/dc/dcmitype/StillImage" /></cc:Work></rdf:RDF></metadata><defs
     id="defs6"><clipPath
       id="clipPath18"
       clipPathUnits="userSpaceOnUse"><path
         id="path16"
         d="M 0,492.961 H 492.961 V 0 H 0 Z" /></clipPath></defs><g
     transform="matrix(1.3333333,0,0,-1.3333333,0,657.28133)"
     id="g10"><g
       id="g12"><g
         clip-path="url(#clipPath18)"
         id="g14"><g
           transform="translate(150.1964,136.9209)"
           id="g20"><path
             id="path22"
             style="fill:#0233cc;fill-opacity:1;fill-rule:nonzero;stroke:none"
             d="m 0,0 c -0.441,1.368 -1.682,4.432 -2.031,6.705 -0.748,5.008 1.874,8.321 4.297,9.076 C 4.959,16.544 6.014,15.19 7.061,12.02 8.414,7.217 8.571,0.919 8.108,-8.101 7.523,-20.419 1.36,-35.296 -13.964,-34.989 c -13.224,0.299 -19.073,8.856 -19.693,21.929 -0.279,6.156 0.164,12.312 2.721,21.025 1.347,4.653 2.551,6.32 6.748,7.225 3.313,0.591 3.006,-2.857 2.259,-6.925 -1.646,-9.013 -2.409,-13.366 -1.796,-23.583 0.591,-10.815 5.557,-15.019 10.957,-15.019 8.115,-0.157 11.721,6.598 13.217,16.366 C 1.653,-6.148 0.756,-2.401 0,0 m 172.982,-10.672 c 3.148,0 4.054,-3.741 3.298,-5.999 -0.756,-2.245 -3.441,-4.81 -7.659,-5.565 -0.891,2.258 -1.346,11.564 4.361,11.564 m -58.744,-5.095 c 0,2.558 -1.346,4.653 -2.986,4.653 -1.367,0 -4.517,-1.49 -4.517,-6.299 0,-3.769 1.34,-5.564 1.96,-6.326 4.331,1.361 5.543,4.972 5.543,7.972 M 67.514,14.884 c -0.206,2.408 -2.095,4.039 -4.652,4.039 -2.843,0 -5.529,-2.978 -5.259,-6.747 0.186,-2.479 1.647,-4.517 4.525,-4.517 3.291,0 5.692,3.762 5.386,7.225 M 91.952,6.056 c -0.264,4.197 -1.282,6.099 -3.535,5.943 -2.991,-0.172 -4.374,-9.598 -3.761,-19.487 0.392,-6.448 1.347,-7.452 2.251,-7.388 1.647,0.1 5.615,11.634 5.045,20.932 m 99.646,-15.809 c -1.852,-7.724 -7.495,-19.095 -15.916,-19.095 -1.953,0 -5.409,0.755 -5.409,2.715 0,2.109 13.224,2.394 13.224,12.475 0,3.748 -3.448,9.013 -8.563,9.013 -6.755,0 -13.352,-7.367 -13.352,-17.591 0,-9.148 5.693,-12.155 11.4,-12.155 9.91,0 15.916,8.115 19.065,14.876 1.524,-4.509 2.401,-14.876 6.17,-14.876 1.511,0 2.558,0.748 4.367,4.802 4.497,10.074 8.857,21.645 14.877,21.645 2.238,0 0.891,-4.068 6.291,-4.068 2.558,0 4.354,2.102 4.354,4.517 0,3.462 -3.143,6.156 -7.96,6.156 -14.114,0 -17.112,-21.189 -19.371,-21.189 -3.748,0 -2.558,16.985 -5.258,16.985 -2.401,0 -3.599,-2.878 -3.919,-4.21 M 71.426,-27.779 c 2.251,0 6.119,0.734 9.169,5.614 -1.746,3.862 -2.985,11.685 -3.156,14.527 -0.898,14.57 4.716,28.271 10.851,28.649 4.51,0.271 8.114,-3.99 8.528,-10.894 1.105,-18.154 -4.938,-25.72 -7.958,-32.268 0.513,-2.529 4.802,-6.832 8.848,-6.832 1.511,0 3.307,0.755 3.77,1.346 -0.307,1.048 -0.613,2.401 -0.613,4.361 0,10.516 6.761,19.379 12.625,19.379 4.659,0 7.36,-6.148 7.36,-10.217 0,-4.802 -4.061,-8.714 -10.06,-12.475 1.055,-1.048 2.999,-1.796 4.659,-1.796 8.564,0 13.052,10.367 16.365,19.836 0.606,1.795 1.675,4.353 3.763,4.353 3.611,0 5.123,-23.74 11.114,-23.74 2.551,0 4.645,5.272 4.645,9.312 0,3.007 -1.047,3.306 -1.047,7.666 0,4.81 2.565,8.842 6.02,8.842 2.109,0 2.857,-2.08 2.857,-4.638 0,-9.604 -6.917,-27.495 -17.12,-27.495 -7.673,0 -7.075,13.224 -9.769,13.224 -3.02,0 -7.231,-13.366 -22.086,-13.366 -2.415,0 -4.973,1.197 -7.06,3.605 -3.606,-2.408 -6.619,-3.463 -10.074,-3.463 -5.551,0 -7.959,5.707 -10.203,5.707 -2.714,0 -5.708,-5.849 -14.734,-5.849 -7.218,0 -8.408,9.604 -10.965,9.604 -2.259,0 -5.7,-9.604 -9.454,-9.604 -6.327,0 -7.66,16.658 -13.231,16.658 -4.353,0 -18.118,-16.907 -21.852,-16.53 -1.504,0.157 -2.137,1.276 -1.98,2.772 0.213,2.087 2.002,7.659 2.72,10.274 1.219,4.567 2.331,9.59 2.951,11.178 0.627,1.597 2.294,2.758 3.626,2.629 0.676,-0.057 0.891,-1.318 1.097,-2.343 0.756,-3.72 1.81,-7.51 3.007,-7.51 2.109,0 9.077,13.366 13.124,13.366 4.972,0 5.565,-21.04 12.325,-21.04 2.266,0 3.911,2.701 5.408,6.021 0.157,5.572 1.667,13.516 6.163,13.516 3.156,0 4.667,-7.054 2.401,-13.224 0,-7.36 4.816,-9.155 7.966,-9.155" /></g><g
           transform="translate(326.2554,344.7242)"
           id="g24"><path
             id="path26"
             style="fill:#0233cc;fill-opacity:1;fill-rule:nonzero;stroke:none"
             d="m 0,0 c -1.111,0 -2.708,0 -3.584,1.76 -0.719,1.428 -0.477,3.751 -1.831,4.77 1.354,-0.385 2.779,-0.385 3.912,-0.385 3.59,0 7.017,2.458 9.646,2.458 1.747,0 2.302,-1.111 2.302,-2.226 C 10.445,2.868 3.371,0 0,0 m 1.767,-9.005 c 8.279,0 15.859,6.615 15.859,12.429 0,2.721 -1.289,4.944 -4.552,5.34 0.563,-0.713 0.798,-1.272 0.798,-2.555 0,-4.374 -6.689,-9.248 -13.944,-9.248 -2.636,0 -3.426,-1.834 -3.426,-2.789 0,-2.226 2.151,-3.177 5.265,-3.177 m -0.656,-3.349 c 1.048,-7.57 12.526,-17.776 15.625,-17.544 2.08,0.185 2.879,9.881 2.879,17.544 0,4.385 0.241,7.812 -2.067,8.61 -3.676,-7.424 -13.316,-8.927 -16.437,-8.61" /></g><g
           transform="translate(147.9454,282.23)"
           id="g28"><path
             id="path30"
             style="fill:#0233cc;fill-opacity:1;fill-rule:nonzero;stroke:none"
             d="m 0,0 c 2.707,0 2.159,16.572 6.54,16.572 1.026,0 1.347,-1.033 1.347,-2.301 C 7.887,10.516 6.063,5.016 6.063,1.988 6.063,0.474 6.448,0 7.175,0 c 1.915,0 5.264,18.26 8.528,18.26 1.047,0 1.517,-1.051 1.517,-2.084 0,-3.829 -4.859,-14.83 -4.859,-17.929 0,-0.474 0.15,-0.876 0.548,-0.876 1.995,0 5.986,8.599 7.253,12.91 0.72,2.226 1.675,3.43 2.559,3.43 0.797,0 1.517,-0.873 1.517,-2.717 0,-4.3 -3.997,-14.432 -7.488,-21.204 -2.714,-5.258 -6.933,-12.838 -6.933,-17.049 0,-2.159 0.385,-4.396 3.499,-7.107 -5.101,0.32 -7.182,0.798 -9.091,4.784 -8.522,-16.971 15.702,-15.297 7.402,-30.366 -1.503,2.708 -13.452,5.493 -13.452,21.282 0,13.637 11.949,21.613 11.949,27.27 0,1.115 -0.399,2.063 -1.432,2.939 -2.629,2.241 -2.714,4.068 -4.781,4.068 -1.524,0 -3.356,-3.512 -1.439,-6.611 0.641,-1.034 1.197,-1.668 1.197,-2.637 0,-2.223 -3.512,-8.208 -5.971,-8.208 -2.479,0 -4.389,6.142 -4.389,16.024 0,8.774 1.989,17.619 4.461,17.619 0.72,0 0.955,-0.477 0.955,-1.122 0,-1.033 -0.313,-3.095 -0.313,-6.615 C -1.588,0.313 -0.713,0 0,0" /></g><g
           transform="translate(168.2725,258.875)"
           id="g32"><path
             id="path34"
             style="fill:#0233cc;fill-opacity:1;fill-rule:nonzero;stroke:none"
             d="m 0,0 c 3.347,0 6.134,2.487 6.134,7.965 v 8.13 c 0,3.106 0.242,6.604 2.316,9.102 C 8.214,24.149 8.214,23.034 8.214,22.001 8.214,15.14 12.041,10.434 12.041,3.819 12.041,1.357 11.313,0 9.403,0 7.58,0 7.737,1.674 7.338,1.674 7.024,1.674 6.546,0.645 6.546,-0.47 c 0,-1.682 1.191,-4.311 4.526,-4.311 2.877,0 5.186,2.629 5.186,5.575 0,7.171 -5.578,15.137 -5.578,22.796 0,3.352 0.883,5.579 1.602,7.346 0,-15.867 13.473,-27.434 13.473,-34.042 0,-1.525 -1.126,-2.722 -2.793,-2.722 -1.845,0 -2.713,1.454 -2.713,2.561 0,0.552 -0.087,0.709 -0.322,0.709 -0.477,0 -1.909,-1.596 -1.909,-3.669 0,-2.618 2.144,-5.814 6.134,-5.814 4.546,0 7.018,3.833 7.018,7.26 0,8.361 -16.344,21.047 -16.344,34.587 0,2.319 0.399,6.056 2.073,8.931 C 6.376,31.965 3.112,22.952 3.112,15.069 3.112,8.208 2.871,4.781 -0.635,4.781 c -1.83,0 -2.309,1.674 -2.942,1.674 -0.485,0 -0.734,-1.432 -0.734,-1.838 C -4.311,1.674 -2.145,0 0,0" /></g><g
           transform="translate(289.0357,348.6358)"
           id="g36"><path
             id="path38"
             style="fill:#0233cc;fill-opacity:1;fill-rule:nonzero;stroke:none"
             d="m 0,0 c 1.02,0.673 5.514,-0.41 11.322,2.465 0.726,0.399 1.431,0.563 2.065,0.563 2.794,0 2.081,-3.195 4.639,-3.195 1.98,0 4.546,1.67 6.063,1.67 2.372,0 5.806,-7.491 5.806,-10.989 0,-4.076 -6.119,-6.541 -13.394,-6.541 -10.587,0 -16.978,9.248 -16.978,15.218 0,0.481 0.242,0.642 0.477,0.809 m 17.384,-10.127 c 3.513,0 6.142,1.588 6.142,2.553 0,0.318 -0.477,0.556 -1.51,0.556 -1.041,0 -3.114,0.068 -7.025,0.716 -3.356,0.556 -5.907,1.824 -6.855,1.824 -0.32,0 -0.49,-0.157 -0.49,-0.399 0,-2.073 3.833,-5.25 9.738,-5.25" /></g><g
           transform="translate(169.9532,228.8301)"
           id="g40"><path
             id="path42"
             style="fill:#0233cc;fill-opacity:1;fill-rule:nonzero;stroke:none"
             d="m 0,0 c -2.636,-0.648 -6.861,-4.781 -6.861,-11.329 0,-7.815 8.371,-19.856 22.165,-19.856 11.635,0 14.506,8.051 14.506,13.48 0,12.041 -7.416,20.483 -17.05,20.483 -5.272,0 -9.975,-3.833 -9.975,-9.483 0,-5.265 3.984,-13.159 13.474,-13.159 4.468,0 7.089,3.192 7.089,6.854 0,3.598 -3.263,8.529 -8.044,8.529 -1.446,0 -2.472,-0.941 -2.472,-2.458 0,-1.91 2.629,-3.841 5.892,-3.841 0.797,0 1.439,0.164 1.766,0.321 0.158,-0.235 0.237,-0.634 0.237,-0.955 0,-1.824 -1.768,-2.957 -4.468,-2.957 -4.069,0 -7.98,3.042 -7.98,7.823 0,2.864 2.479,4.945 6.056,4.945 7.103,0 11.329,-6.298 11.329,-12.59 0,-5.671 -3.114,-8.941 -9.483,-8.941 C 3.42,-23.134 -2.792,-11.649 0,0" /></g><g
           transform="translate(260.9361,182.1202)"
           id="g44"><path
             id="path46"
             style="fill:#0233cc;fill-opacity:1;fill-rule:nonzero;stroke:none"
             d="m 0,0 c 3.833,0 3.626,0.321 4.831,0.321 1.196,0 1.274,-0.72 1.274,-1.212 0,-1.745 -3.911,-3.904 -10.843,-3.904 -4.068,0 -6.533,2.159 -7.26,4.546 -3.99,-2.543 -10.031,-4.866 -16.016,-4.866 -16.338,0 -20.484,7.103 -25.586,9.404 -3.911,1.753 -9.888,-1.667 -18.253,7.659 1.104,-0.235 2.629,-0.321 3.819,-0.321 7.338,0 11.235,3.584 11.235,9.334 0,0.698 -0.07,1.503 -0.163,2.209 2.244,-0.877 7.346,-4.689 8.543,-11.457 0.156,-0.812 3.434,-1.517 5.499,-1.517 2.872,0 6.526,1.182 7.09,5.892 9.568,0.791 16.031,6.448 17.384,13.637 3.42,-1.119 7.325,-4.225 8.287,-5.822 1.353,0.478 2.949,0.713 4.787,0.713 2.551,0 5.408,-0.477 8.842,-1.525 0.156,1.048 0.32,2.33 1.924,2.33 2.378,0 1.745,-2.643 2.536,-4.153 0.399,-0.791 2.408,-1.269 2.408,-2.872 0,-1.517 -1.289,-2.066 -2.088,-2.066 -0.32,0 -0.719,0.079 -0.954,0.149 C 5.714,15.931 5.629,4.446 -1.083,4.446 c -4.93,0 -9.483,4.075 -11.47,9.155 -0.557,1.532 -1.747,2.487 -2.872,2.487 -1.275,0 -1.988,-0.242 -3.499,-1.909 -4.309,-4.703 -11.47,-8.771 -20.333,-8.771 -2.708,0 -4.86,0.242 -5.415,0.242 -0.313,0 -0.313,-0.071 -0.313,-0.171 0,-0.548 2.7,-2.7 8.591,-2.7 14.036,0 17.47,7.894 19.694,7.894 0.335,0 1.275,0 1.823,-1.282 C -11.599,1.746 -4.46,0 0,0 m -6.17,15.931 c 0,-1.752 1.432,-3.199 3.185,-3.199 1.753,0 3.198,1.447 3.198,3.199 0,1.745 -1.445,3.185 -3.198,3.185 -1.753,0 -3.185,-1.44 -3.185,-3.185" /></g><g
           transform="translate(317.8907,237.8355)"
           id="g48"><path
             id="path50"
             style="fill:#0233cc;fill-opacity:1;fill-rule:nonzero;stroke:none"
             d="m 0,0 c -1.119,0 -2.315,-0.883 -2.315,-3.049 0,-2.38 1.838,-3.89 2.878,-4.375 0.556,-0.313 1.432,-0.634 2.302,-0.634 2.308,0 4.153,0.634 4.153,2.565 C 7.018,-3.049 3.427,0 0,0 m -8.599,-4.944 c -1.674,0 -10.937,-12.362 -16.901,-12.362 -1.431,0 -2.621,2.708 -2.621,4.767 0,1.132 0.713,1.931 3.256,2.479 13.715,3.121 10.68,13.402 22.393,13.402 6.455,0 13.637,-4.389 13.637,-14.271 0,-10.524 -14.976,-23.583 -17.213,-23.583 -1.832,0 -3.827,2.622 -3.827,4.382 0,0.541 0.236,1.261 1.838,1.902 7.639,3.035 12.02,10.053 12.02,13.63 0,0.812 -0.4,1.602 -1.431,1.602 -1.354,0 -7.154,-13.237 -13.624,-13.237 -4.466,0 -9.012,4.068 -9.012,5.97 0,3.2 12.924,9.098 12.924,13.559 0,1.688 -0.798,1.76 -1.439,1.76" /></g><g
           transform="translate(151.5362,337.3897)"
           id="g52"><path
             id="path54"
             style="fill:#0233cc;fill-opacity:1;fill-rule:nonzero;stroke:none"
             d="m 0,0 c 0,0 -2.322,-1.746 -5.179,-1.746 -3.427,0 -6.143,2.54 -6.143,6.131 0,2.465 1.276,5.027 4.226,6.295 C -7.167,10.203 -7.167,9.803 -7.167,9.326 -7.167,4.78 -4.624,1.346 0,0 m 17.056,-15.304 c -1.752,-2.077 -3.577,-5.586 -3.577,-9.17 0,-4.296 2.623,-7.901 6.691,-7.901 3.904,0 5.735,3.355 5.735,6.79 0,5.336 -4.866,9.091 -8.849,10.281 m -26.468,-3.192 c -0.136,-0.239 -0.235,-0.559 -0.235,-0.876 0,-0.716 0.805,-1.518 1.51,-1.518 0.641,0 1.041,0.164 1.368,0.164 1.903,0 4.047,-1.35 7.167,-1.35 1.824,0 3.991,0.559 6.698,1.906 5.743,2.871 7.972,9.967 7.972,11.157 0,1.525 -1.225,1.318 -2.229,2.721 -1.02,1.39 -0.635,2.608 -1.283,3.267 -0.37,0.375 -1.511,0.389 -2.943,0.549 -0.491,0.06 -1.125,0.085 -1.76,0.085 -2.629,0 -5.756,-0.327 -9.254,-2.546 -6.912,-4.415 -5.892,-11.714 -7.011,-13.559 m 18.73,9.882 c 0.564,-0.744 2.089,-1.667 2.089,-2.244 0,-1.112 -0.649,-2.544 -1.924,-2.544 -2.794,0 -5.016,4.233 -5.016,6.612 0,1.528 0.869,1.688 2.066,1.688 0.563,0 0.805,-0.078 1.19,-0.313 0.727,-0.399 0.727,-1.988 1.595,-3.199 m -7.331,-9.718 c -2.622,0 -5.5,3.27 -5.5,6.22 0,1.589 1.191,3.576 2.081,3.576 0.313,0 0.477,-0.235 0.548,-0.791 0.492,-3.903 3.043,-6.141 5.43,-7.249 0.242,-0.16 0.398,-0.238 0.398,-0.41 0,-0.544 -1.517,-1.346 -2.957,-1.346 M 8.77,1.76 c 0.4,1.279 0.713,2.864 0.713,4.609 0,3.834 -1.76,9.647 -7.174,9.647 -3.107,0 -5.345,-2.472 -5.345,-5.414 0,-6.306 6.307,-8.842 11.806,-8.842 m -20.654,-31.891 c 0,-6.059 1.838,-8.934 5.115,-8.934 2.537,0 5.971,1.845 10.04,5.351 -3.114,-0.727 -5.508,-1.201 -7.66,-1.201 -2.864,0 -5.101,1.111 -7.495,4.784 m 2.792,7.089 c -0.064,-0.402 -0.064,-0.798 -0.064,-1.197 0,-3.737 1.989,-5.817 4.61,-5.817 1.987,0 4.311,1.208 6.377,3.833 -0.876,-0.16 -1.909,-0.238 -2.864,-0.238 -2.958,0 -6.134,0.797 -8.059,3.419 m 19.537,1.126 c -1.832,-0.488 -5.657,-2.718 -5.657,-6.697 0,-2.871 2.223,-4.713 5.015,-4.713 1.432,0 2.472,0.331 3.099,0.805 -2.222,2.148 -3.02,4.545 -3.02,6.936 0,1.674 0.242,2.7 0.563,3.669 m 2.871,21.852 c 0,-1.764 1.432,-3.207 3.185,-3.207 1.745,0 3.191,1.443 3.191,3.207 0,1.745 -1.446,3.174 -3.191,3.174 -1.753,0 -3.185,-1.429 -3.185,-3.174 m 4.132,-7.182 c 0,-1.767 1.454,-3.199 3.199,-3.199 1.746,0 3.186,1.432 3.186,3.199 0,1.749 -1.44,3.178 -3.186,3.178 -1.745,0 -3.199,-1.429 -3.199,-3.178" /></g><g
           transform="translate(293.3463,291.0005)"
           id="g56"><path
             id="path58"
             style="fill:#0233cc;fill-opacity:1;fill-rule:nonzero;stroke:none"
             d="M 0,0 C 0,1.589 1.439,2.942 3.021,2.942 4.774,2.942 6.134,1.589 6.134,0 6.134,-1.831 4.774,-3.117 3.021,-3.117 1.439,-3.117 0,-1.831 0,0 m -27.985,24.555 c 0,-1.756 1.445,-3.195 3.191,-3.195 1.76,0 3.192,1.439 3.192,3.195 0,1.746 -1.432,3.181 -3.192,3.181 -1.746,0 -3.191,-1.435 -3.191,-3.181 m -2.701,-11.239 c 0,-2.48 2.066,-4.542 4.538,-4.542 2.472,0 4.546,2.062 4.546,4.542 0,2.465 -2.074,4.535 -4.546,4.535 -2.472,0 -4.538,-2.07 -4.538,-4.535 m 10.039,5.098 c 0,-2.718 2.166,-4.856 4.859,-4.856 2.707,0 4.866,2.138 4.866,4.856 0,2.707 -2.159,4.852 -4.866,4.852 -2.693,0 -4.859,-2.145 -4.859,-4.852 m 0.414,10.362 c 0,-1.681 1.338,-3.035 3.006,-3.035 1.674,0 3.035,1.354 3.035,3.035 0,1.675 -1.361,3.029 -3.035,3.029 -1.668,0 -3.006,-1.354 -3.006,-3.029 m 14.412,7.653 c 0,-1.675 1.354,-3.043 3.035,-3.043 1.674,0 3.043,1.368 3.043,3.043 0,1.667 -1.369,3.035 -3.043,3.035 -1.681,0 -3.035,-1.368 -3.035,-3.035 m -5.985,-9.811 c 0,-2.793 2.316,-5.101 5.117,-5.101 2.792,0 5.101,2.308 5.101,5.101 0,2.785 -2.309,5.101 -5.101,5.101 -2.801,0 -5.117,-2.316 -5.117,-5.101 m -8.208,-18.66 c 0,-1.746 1.447,-3.174 3.179,-3.174 1.759,0 3.199,1.428 3.199,3.174 0,1.753 -1.44,3.199 -3.199,3.199 -1.732,0 -3.179,-1.446 -3.179,-3.199 m 10.446,6.391 c 0,-1.764 1.439,-3.192 3.192,-3.192 1.752,0 3.177,1.428 3.177,3.192 0,1.753 -1.425,3.192 -3.177,3.192 -1.753,0 -3.192,-1.439 -3.192,-3.192 m -2.943,-11.25 c 0,-3.021 2.466,-5.5 5.5,-5.5 3.022,0 5.501,2.479 5.501,5.5 0,3.035 -2.479,5.504 -5.501,5.504 -3.034,0 -5.5,-2.469 -5.5,-5.504 M -1.04,9.882 c 0,-2.081 1.688,-3.748 3.755,-3.748 2.059,0 3.741,1.667 3.741,3.748 0,2.066 -1.682,3.741 -3.741,3.741 -2.067,0 -3.755,-1.675 -3.755,-3.741 m -0.235,10.046 c 0,-1.845 1.532,-3.352 3.342,-3.352 1.823,0 3.349,1.507 3.349,3.352 0,1.827 -1.526,3.338 -3.349,3.338 -1.81,0 -3.342,-1.511 -3.342,-3.338" /></g><g
           transform="translate(300.1939,206.3443)"
           id="g60"><path
             id="path62"
             style="fill:#0233cc;fill-opacity:1;fill-rule:nonzero;stroke:none"
             d="m 0,0 c -2.074,-1.603 -6.926,-5.187 -14.977,-5.187 -4.31,0 -6.227,1.361 -6.86,1.361 -0.799,0 -1.682,-0.798 -2.559,-1.831 -1.895,-2.237 -4.367,-6.391 -4.367,-10.922 0,-3.199 2.472,-6.37 7.082,-6.37 14.927,0 26.069,9.312 26.069,16.893 C 4.388,-1.76 1.837,0 0,0 m -4.132,0.87 c 0.633,0.562 0.79,1.439 0.79,2.315 v 1.831 c 0,2.316 -3.506,3.669 -8.293,3.669 -5.822,0 -8.927,-2.636 -8.927,-3.748 V 1.275 c 0,-1.517 3.512,-3.035 7.815,-3.035 3.434,0 6.548,0.884 8.615,2.63 m -0.649,-7.895 c 0.392,0 0.876,-0.228 0.876,-1.674 0,-1.746 -0.798,-4.069 -3.655,-5.885 -2.002,-1.361 -4.709,-2.487 -8.699,-2.551 0.634,1.91 1.118,3.905 1.118,5.814 0,0.641 -0.078,1.118 -0.156,1.824 h 1.04 c 6.298,0 9.013,2.472 9.476,2.472" /></g><g
           transform="translate(264.961,296.7285)"
           id="g64"><path
             id="path66"
             style="fill:#0233cc;fill-opacity:1;fill-rule:nonzero;stroke:none"
             d="m 0,0 c 0.877,-6.769 9.982,-3.349 9.982,-11.545 0,-1.194 -0.32,-2.954 -0.32,-4.464 0,-1.767 0.156,-3.278 1.496,-3.278 1.354,0 1.674,0.955 1.674,2.23 0,1.283 -0.32,2.872 -0.32,3.748 0,2.797 1.994,3.434 3.199,3.434 3.02,0 5.343,-3.113 9.889,-3.113 -1.04,-5.105 -11.571,-3.737 -11.571,-9.323 0,-2.79 2.793,-3.43 4.624,-3.43 1.689,0 2.244,0.242 2.244,1.67 0,0.799 -0.156,1.671 -0.156,2.248 0,0.306 0.235,0.634 0.633,0.634 1.747,0 10.346,-6.544 10.346,-8.535 0,-1.828 -9.077,-3.67 -11.706,-3.67 -0.806,0 -0.962,0.563 -0.962,0.87 0,0.563 1.353,2.24 1.353,3.199 0,0.712 -1.197,1.19 -4.381,1.19 -1.518,0 -2.628,-0.161 -2.628,-1.354 0,-2.159 3.512,-4.784 3.512,-6.769 0,-1.596 -0.962,-2.565 -3.512,-2.565 -2.167,0 -5.423,1.689 -5.423,4.471 0,2.237 2.309,4.464 2.309,5.817 0,0.4 -0.3,1.034 -1.269,1.034 -2.942,0 -3.747,-7.806 -14.199,-8.678 1.681,1.51 3.121,3.188 3.121,6.612 0,1.674 -0.4,3.035 -0.4,4.859 0,2.397 1.111,3.598 2.7,3.598 2.957,0 4.39,-4.147 6.313,-4.147 1.04,0 2.152,0.947 2.152,2.387 0,6.063 -11.642,5.18 -11.642,13.708 0,2.319 0.798,5.18 2.942,9.162 m 38.025,-23.351 c 0,-1.992 0.642,-4.3 2.636,-4.3 1.675,0 3.107,2.55 3.107,5.34 0,3.181 -0.556,5.667 -0.556,6.932 0,0.56 0.243,0.798 0.556,0.798 1.204,-0.082 2.322,-3.356 3.605,-3.356 1.432,0 3.563,2.64 4.438,2.64 0.243,0 0.314,-0.313 0.314,-0.398 0,-1.191 -1.824,-3.826 -1.824,-4.86 0,-0.876 4.624,-1.033 4.624,-1.845 0,-1.193 -4.852,-1.193 -7.168,-2.23 -2.229,-0.955 -3.59,-2.152 -3.59,-3.748 0,-1.588 1.603,-1.906 3.833,-1.906 5.336,0 9.07,2.865 10.273,2.865 0.243,0 0.386,-0.161 0.386,-0.393 0,-0.801 -2.701,-3.423 -2.701,-4.634 0,-1.35 4.952,-2.921 4.859,-3.733 -0.071,-0.236 -0.391,-0.317 -0.948,-0.317 -0.875,0 -2.229,0.238 -3.277,0.238 -0.634,0 -1.189,-0.085 -1.432,-0.399 -0.556,-0.634 0.165,-4.866 -0.954,-4.866 -1.04,0 -3.748,9.408 -9.875,9.408 -0.876,0 -1.518,-0.716 -1.518,-1.92 0,-3.173 3.114,-6.85 6.071,-8.599 1.338,-0.869 3.569,-1.76 3.569,-2.238 0,-0.951 -5.08,-0.078 -5.08,-1.667 0,-1.446 0.627,-3.605 0.627,-4.866 0,-0.399 -0.078,-0.876 -0.563,-0.876 -0.947,0 -3.27,4.374 -4.382,4.374 -0.954,0 -3.028,-2.622 -3.911,-2.622 -0.242,0 -0.399,0.236 -0.399,0.474 0,1.842 2.956,5.974 2.956,10.05 0,1.909 -0.242,6.048 -2.557,6.048 -1.909,0 -4.068,-3.017 -5.023,-6.048 -0.557,-1.753 -0.157,-8.539 -1.432,-8.539 -1.204,0 -0.89,4.545 -2.48,4.545 -1.175,0 -3.732,-2.155 -4.609,-2.155 -0.157,0 -0.314,0.093 -0.314,0.25 0,0.954 2.301,4.064 2.301,4.702 0,1.197 -5.258,1.353 -5.258,2.308 0,0.57 2.067,0.955 3.991,1.286 4.054,0.709 10.031,3.651 10.031,7.802 0,4.627 -4.46,6.615 -7.402,8.532 -1.519,0.955 -3.186,1.753 -3.186,2.387 0,0.634 1.91,0.634 2.716,0.634 1.188,0 2.365,0.085 2.365,1.047 0,0.72 -0.157,2.151 -0.157,3.263 0,0.791 0.085,1.432 0.414,1.432 1.174,0 2.863,-3.897 3.653,-3.897 1.269,0 3.043,3.178 4.226,3.178 0.399,0 0.562,-0.243 0.562,-0.955 0,-2.943 -1.517,-6.291 -1.517,-9.166" /></g><g
           transform="translate(267.2847,251.3013)"
           id="g68"><path
             id="path70"
             style="fill:#0233cc;fill-opacity:1;fill-rule:nonzero;stroke:none"
             d="m 0,0 c 3.669,-0.477 4.538,-1.76 4.538,-2.786 0,-1.759 -1.596,-2.316 -3.114,-2.316 -1.111,0 -2.379,0.236 -3.748,0.236 -1.752,0 -3.505,-0.395 -4.944,-2.073 1.047,-0.15 2.558,-0.87 2.558,-2.473 0,-4.624 -12.838,-0.797 -12.838,-12.668 0,-6.297 6.533,-13.152 16.422,-13.152 5.115,0 8.386,1.668 8.386,3.591 0,1.511 -2.722,0.477 -2.722,1.745 0,0.557 0.955,1.597 0.955,2.48 0,0.385 -0.313,1.104 -0.955,1.104 -1.425,0 -4.146,-2.308 -9.647,-2.308 -4.303,0 -8.528,2.465 -8.528,5.814 0,0.726 0.32,1.125 0.791,1.125 0.484,0 1.126,-0.327 1.688,-0.327 0.463,0 0.548,0.327 0.548,1.204 0,0.869 0,3.356 1.519,3.356 1.51,0 4.381,-5.6 15.396,-5.6 3.655,0 10.745,0.719 13.38,3.113 -0.078,-8.749 -6.939,-20.319 -21.289,-20.319 -14.904,0 -22.877,11.955 -22.877,22.962 0,12.19 9.96,23.266 23.598,23.266 3.497,0 6.461,-1.189 6.461,-2.703 C 5.578,1.19 0.392,2.465 0,0 m 24.473,-4.232 c 0.548,-0.87 0.79,-1.746 0.79,-2.54 0,-2.241 -1.51,-4.307 -1.51,-6.608 0,-2.651 1.988,-4.795 5.024,-4.795 3.262,0 5.493,2.622 5.493,5.742 0,4.219 -3.833,7.806 -9.797,8.201 M -1.924,-9.326 c 0.798,-0.798 1.041,-1.589 1.041,-2.401 0,-1.19 -0.564,-2.465 -0.564,-3.826 0,-1.895 1.447,-3.57 3.512,-3.57 2.238,0 3.763,1.753 3.763,3.819 0,3.035 -3.128,5.978 -7.752,5.978 M 8.67,4.225 c 8.38,-1.589 12.924,-7.894 12.924,-13.793 0,-4.069 -2.544,-7.802 -7.01,-7.802 -4.076,0 -7.004,2.779 -7.004,7.246 0,3.352 2.608,6.847 2.608,10.295 0,1.34 -0.393,2.707 -1.518,4.054 m 4.147,-10.601 c 0,-1.126 0.806,-1.996 1.931,-1.996 1.268,0 2.059,1.123 2.059,2.394 0,1.667 -1.511,3.99 -2.943,3.99 -0.648,0 -0.413,-0.958 -0.57,-1.995 -0.078,-0.801 -0.477,-1.756 -0.477,-2.393" /></g><g
           transform="translate(192.1114,326.9444)"
           id="g72"><path
             id="path74"
             style="fill:#0233cc;fill-opacity:1;fill-rule:nonzero;stroke:none"
             d="m 0,0 c 2.714,0 5.813,14.674 5.813,17.149 0,0.631 -0.235,1.119 -0.79,1.119 C 2.558,18.268 -0.876,4.311 -0.876,1.197 -0.876,0.642 -0.72,0 0,0 m 19.529,-4.381 c 1.988,0 4.225,7.648 4.225,12.436 0,1.04 -0.157,2.148 -0.634,2.148 -1.683,0 -4.475,-7.894 -4.475,-12.183 0,-1.682 0.407,-2.401 0.884,-2.401 M 6.533,2.704 c 0.884,0 2.002,0.951 4.069,3.271 0.157,1.036 0.157,1.994 0.157,3.202 0,1.585 -0.635,3.342 -1.59,3.342 -2.401,0 -3.591,-6.381 -3.591,-8.052 0,-0.947 0.478,-1.763 0.955,-1.763 m 10.929,3.271 c 0,1.357 -0.334,1.674 -0.648,1.674 -0.798,0 -1.674,-0.952 -2.943,-3.096 0.157,-2.879 0.635,-4.154 1.432,-4.154 0.877,0 2.159,2.8 2.159,5.576 m 6.135,9.415 c 5.251,0 7.645,-4.553 7.645,-9.647 0,-2.223 -0.635,-5.5 -1.675,-5.5 -1.033,0 -0.868,1.827 -1.033,3.512 -0.149,2.144 -0.555,2.622 -1.283,2.622 -1.346,0 -2.222,-3.178 -2.222,-6.134 0,-1.839 0.314,-3.905 1.746,-3.905 0.798,0 1.524,0.392 2.002,0.877 -0.314,-3.67 -3.036,-6.858 -6.868,-6.858 -7.004,0 -9.633,8.201 -10.438,12.996 -4.225,-4.46 -8.122,-7.734 -15.148,-7.734 -6.533,0 -9.482,4.78 -9.482,9.329 0,1.358 0.484,4.863 2.151,4.863 1.995,0 0.25,-6.544 4.154,-6.544 0.955,0 2.707,0.805 3.655,3.43 0.562,1.603 0.89,3.271 0.89,4.703 0,2.155 -0.478,3.513 -2.08,3.513 -1.354,0 -3.028,-1.034 -3.59,-1.593 1.917,5.739 6.547,8.674 11.648,8.674 6.291,0 9.633,-5.575 9.633,-11.791 0,-0.87 -0.064,-1.835 -0.228,-2.707 2.707,4.456 6.455,7.894 10.523,7.894" /></g><g
           transform="translate(200.8033,320.8955)"
           id="g76"><path
             id="path78"
             style="fill:#0233cc;fill-opacity:1;fill-rule:nonzero;stroke:none"
             d="m 0,0 c -3.434,0 -3.591,-4.154 -3.591,-12.525 -2.543,5.504 -6.769,11.406 -11.713,11.406 -3.356,0 -4.624,-2.244 -4.624,-6.127 0,-0.812 0.078,-2.005 0.228,-2.721 0.407,1.35 1.682,1.909 3.27,1.909 3.434,0 7.581,-2.622 10.296,-6.213 -3.121,0.549 -6.148,1.112 -8.692,1.112 -1.604,0 -3.035,-0.16 -4.226,-0.72 -2.315,-1.029 -5.429,-4.46 -5.429,-9.643 0,-0.794 0.086,-1.685 0.243,-2.636 2.779,6.23 10.202,9.02 14.983,9.02 0.955,0 1.675,-0.082 2.223,-0.172 -2.451,-2.226 -3.013,-6.134 -3.17,-8.759 -0.078,-1.275 -0.563,-1.361 -1.447,-1.361 0,-2.625 2.081,-6.533 2.081,-8.518 0,-0.73 -0.392,-1.371 -0.792,-1.528 0,-3.498 3.499,-6.056 3.499,-8.279 0,-0.563 -0.171,-1.04 -0.406,-1.282 0.235,-1.44 4.104,-3.847 4.602,-5.059 0.62,-1.467 1.305,-1.717 1.696,-1.717 1.367,0 3.506,1.589 3.506,3.032 0,0.477 -0.4,1.029 -0.713,1.271 -1.511,1.112 -2.309,3.52 -2.949,5.106 -0.563,0 -1.276,0.224 -1.526,1.164 -0.441,1.657 -0.463,4.731 -1.103,6.562 -1.027,0.242 -1.504,0.635 -1.504,2.793 0,1.033 0.634,5.101 0.634,6.541 -0.477,0 -1.119,0.32 -1.119,1.275 0,2.547 2.544,4.552 3.264,7.809 4.546,-3.356 5.649,-6.776 5.649,-9.804 0,-1.593 -0.228,-3.117 -0.548,-4.545 3.349,1.673 8.372,4.146 8.372,9.165 0,2.953 -1.361,6.224 -10.36,7.503 2.786,1.033 6.292,1.585 9.248,1.585 5.094,0 8.044,-1.585 8.678,-5.18 1.047,1.589 1.845,3.427 1.845,5.105 0,3.908 -3.277,6.452 -7.423,6.452 -4.859,0 -9.163,-2.544 -13.78,-5.658 2.067,4.304 3.498,6.851 6.056,6.851 0.4,0 0.798,-0.082 1.19,-0.164 C 5.493,-3.434 1.91,0 0,0" /></g><g
           transform="translate(335.1119,263.4278)"
           id="g80"><path
             id="path82"
             style="fill:#0233cc;fill-opacity:1;fill-rule:nonzero;stroke:none"
             d="m 0,0 c 3.982,0 7.167,-5.197 7.167,-11.25 0,-6.455 -3.028,-13.473 -8.429,-18.247 -0.092,10.745 -13.251,7.325 -13.251,15.13 0,3.352 2.394,5.586 5.272,5.586 2.543,0 4.545,-0.709 5.977,-2.156 -1.432,1.351 -2.158,3.278 -2.158,5.116 C -5.422,-2.796 -3.499,0 0,0" /></g><g
           transform="translate(263.9293,339.1494)"
           id="g84"><path
             id="path86"
             style="fill:#0233cc;fill-opacity:1;fill-rule:nonzero;stroke:none"
             d="m 0,0 c 2.087,-2.002 3.904,-2.872 6.134,-2.872 0.89,0 1.923,0.228 2.486,0.228 0.705,0 1.197,-0.309 1.197,-0.861 0,-0.891 -0.812,-2.323 -1.76,-3.118 0.948,-0.398 1.988,-0.552 3.113,-0.552 4.533,0 9.705,2.872 9.705,10.039 0.969,-1.272 1.531,-3.911 1.531,-5.101 0,-8.692 -6.39,-12.031 -12.269,-12.031 -3.839,0 -5.756,1.258 -6.233,1.258 -1.504,0 -1.432,-3.014 -2.472,-2.942 -1.832,0.317 -3.499,4.389 -3.499,8.695 0,2.548 0.634,5.255 2.067,7.257 M 12.025,5.807 C 11.392,6.854 9.005,7.41 7.893,7.41 4.381,7.41 2.001,4.944 1.51,2.708 1.188,3.498 0.954,4.467 0.954,5.415 c 0,3.505 2.401,7.801 8.23,7.801 5.086,0 7.074,-2.7 7.794,-2.7 0.805,0 1.602,0.801 2.237,0.801 0.868,0 0.868,-1.364 0.868,-2.318 0,-3.192 -1.431,-8.686 -5.022,-10.681 -0.634,1.354 -1.91,2.879 -3.969,3.826 -0.57,0.235 -0.798,0.72 -0.798,1.197 0,0.873 0.798,1.992 1.731,2.466" /></g><g
           transform="translate(208.5264,362.3404)"
           id="g88"><path
             id="path90"
             style="fill:#0233cc;fill-opacity:1;fill-rule:nonzero;stroke:none"
             d="m 0,0 c 0,-2.793 9.968,-16.419 11.884,-16.419 1.59,0 2.786,2.79 2.786,5.18 0,0.63 -0.164,1.264 -0.478,1.749 C 12.761,-7.495 2.637,0.484 0.399,0.484 0.157,0.484 0,0.235 0,0 m -58.579,8.215 c 0,-1.603 -6.071,-6.94 -8.215,-6.94 -0.791,0 -1.04,0.948 -1.04,1.831 0,1.603 0.734,3.826 1.589,4.539 1.04,0.969 3.434,1.439 5.264,1.439 1.112,0 2.402,-0.242 2.402,-0.869 M 14.192,3.598 c 0,4.766 -12.938,13.465 -13.08,17.206 0,0.349 0.178,0.684 0.463,0.983 2.223,2.338 11.421,4.04 11.421,6.042 0,1.033 -1.917,1.033 -2.871,1.033 -7.41,0 -18.247,-2.721 -18.247,-5.336 0,-2.722 9.719,-9.348 9.719,-12.611 0,-0.869 -0.55,-1.186 -1.44,-1.186 -2.701,0 -8.607,3.263 -11.392,3.263 -1.269,0 -1.746,-0.88 -1.746,-2.152 0,-3.829 4.531,-11.09 4.531,-13.234 0,-0.228 -0.071,-0.556 -0.399,-0.556 -1.432,0 -8.2,7.976 -10.594,7.976 -0.884,0 -0.962,-1.207 -0.962,-2.956 v -2.704 c 0,-1.842 -0.079,-2.957 -0.954,-2.957 -2.067,0 -3.036,5.814 -5.024,5.814 -2.066,0 -2.479,-10.36 -4.468,-10.36 -2.307,0 -0.313,11.414 -2.55,11.414 -2.457,0 -5.265,-7.58 -7.018,-7.58 -0.633,0 -0.79,0.634 -0.79,1.189 0,2.32 1.354,6.056 1.354,8.297 0,1.108 -0.321,1.749 -1.276,1.749 -2.472,0 -7.888,-3.99 -9.953,-3.99 -0.328,0 -0.727,0.164 -0.727,0.492 0,1.909 8.685,7.962 8.685,10.673 0,2.629 -11.956,0.869 -11.956,3.908 0,2.55 8.537,5.187 8.537,7.812 0,2.305 -10.125,3.349 -14.036,3.349 -4.702,0 -7.253,-0.552 -7.253,-1.91 0,-2.08 10.687,-2.714 10.687,-4.538 0,-1.767 -11.072,-6.47 -11.072,-9.184 0,-2.387 15.618,-0.149 15.618,-2.629 0,-2.7 -13.644,-14.421 -13.644,-18.321 0,-0.887 0.648,-1.286 1.532,-1.286 4.132,0 14.89,7.898 17.846,7.898 1.034,0 1.112,-1.287 1.112,-2.384 0,-2.084 -0.705,-5.272 -0.705,-7.584 0,-1.831 0.463,-3.11 2.059,-3.11 2.957,0 5.657,5.019 7.659,5.019 2.551,0 1.034,-14.751 4.859,-14.751 3.263,0 4.632,15.948 6.69,15.948 2.081,0 3.755,-4.616 5.672,-4.616 2.386,0 1.274,8.047 3.825,8.047 2.787,0 10.752,-9.568 14.342,-9.568 1.119,0 1.511,0.872 1.511,2.001 0,4.222 -5.892,13.78 -5.892,16.818 0,0.795 0.235,1.019 1.111,1.019 3.114,0 12.205,-4.292 16.508,-4.292 1.432,0 2.308,0.79 2.308,1.845 M 5.906,19.372 c 0,-1.443 5.016,-4.546 7.331,-4.546 1.347,0 1.747,1.831 1.747,3.752 0,2.383 -1.033,2.468 -3.1,2.468 -2.636,0 -5.978,-0.719 -5.978,-1.674 m -18.73,8.122 c 0,0.478 -2.401,0.973 -5.664,0.973 -5.188,0 -4.461,-4.314 -8.45,-4.314 -4.147,0 -3.114,4.471 -8.372,4.471 -3.185,0 -6.134,-0.56 -6.134,-1.293 0,-0.948 3.74,-0.553 3.74,-3.178 0,-2.793 -8.051,-3.588 -8.051,-5.255 0,-0.559 0.635,-0.808 1.439,-0.808 1.753,0 4.539,0.808 6.541,0.808 1.111,0 2.152,-0.238 2.152,-1.286 0,-1.987 -4.311,-5.582 -4.311,-7.174 0,-0.485 0.392,-0.634 0.79,-0.634 1.604,0 4.311,4.061 6.87,4.061 4.224,0 1.423,-9.006 3.74,-9.006 2.394,0 1.361,8.856 4.773,8.856 2.801,0 4.874,-6.134 6.783,-6.134 0.477,0 0.876,0.392 0.876,0.947 0,1.678 -2.386,5.109 -2.386,7.335 0,1.35 0.962,2.006 2.23,2.006 1.83,0 4.311,-1.133 5.656,-1.133 0.478,0 0.955,0.157 0.955,0.72 0,1.916 -7.089,3.985 -7.089,6.454 0,2.473 3.912,2.473 3.912,3.584" /></g><g
           transform="translate(337.0206,376.9317)"
           id="g92"><path
             id="path94"
             style="fill:#0233cc;fill-opacity:1;fill-rule:nonzero;stroke:none"
             d="m 0,0 c 0,-7.089 -5.172,-12.521 -14.513,-14.036 1.04,-0.071 2.002,-0.071 2.957,-0.071 10.901,0 14.905,4.93 14.905,9.084 C 3.349,-2.711 2.074,-0.641 0,0 m -13.473,-8.058 c 0,5.657 -13.537,7.103 -13.537,8.375 0,1.033 7.567,2.782 11.464,2.875 -5.978,7.638 -14.491,6.85 -14.491,8.201 0,0.794 6.376,2.397 12.268,2.397 4.938,0 9.569,-1.115 9.569,-4.855 0,-2.085 -1.675,-4.24 -1.675,-7.424 0,-1.767 0.877,-3.278 3.179,-3.278 2.479,0 3.042,2.643 3.042,5.436 0,2.305 -0.407,4.054 -0.407,5.18 0,3.338 2.302,5.579 5.586,5.579 2.701,0 3.334,-1.19 7.325,-1.19 C 6.705,11.948 5.914,9.633 5.914,8.521 5.914,5.18 8.051,2.864 8.051,-3.99 c 0,-12.589 -11.792,-17.056 -26.219,-17.056 -3.976,0 -8.2,0.32 -12.347,0.954 -0.648,0.071 -0.797,0.239 -0.797,0.638 0,1.029 5.656,1.592 5.656,6.69 0,1.992 -0.634,3.908 -0.634,4.628 0,0.406 0.321,0.634 0.634,0.634 1.197,0 3.599,-4.624 8.044,-4.624 1.19,0 4.139,0.399 4.139,4.068 m 12.996,17.62 c 0,-1.116 0.87,-1.996 2.002,-1.996 1.112,0 1.98,0.88 1.98,1.996 0,1.118 -0.868,1.987 -1.98,1.987 -1.132,0 -2.002,-0.869 -2.002,-1.987" /></g><g
           transform="translate(329.4542,312.8379)"
           id="g96"><path
             id="path98"
             style="fill:#0233cc;fill-opacity:1;fill-rule:nonzero;stroke:none"
             d="m 0,0 c 0,1.667 -4.224,1.824 -4.624,6.533 -0.078,0.72 -0.32,1.995 -1.21,1.995 -1.426,0 -0.314,-4.382 -1.911,-4.382 -3.654,0 -4.858,7.175 -6.213,7.175 -0.313,0 -0.689,-0.242 -0.689,-1.197 0,-0.876 0.156,-1.429 0.156,-2.472 0,-1.033 -0.25,-1.753 -1.197,-1.753 -2.159,0 -4.068,5.016 -5.914,5.016 -0.392,0 -0.79,-0.239 -0.79,-0.627 0,-0.958 1.588,-2.722 1.588,-3.598 0,-1.91 -5.187,-0.873 -5.187,-2.48 0,-0.698 0.72,-0.947 1.682,-0.947 1.674,0 4.304,0.726 5.664,0.726 0.798,0 2.002,-0.163 2.002,-1.193 0,-1.129 -2.878,-2.561 -2.878,-3.594 0,-0.478 0.484,-0.713 0.876,-0.713 2.152,0 5.963,3.744 8.678,3.744 0.477,0 1.667,-0.245 1.667,-0.962 0,-1.036 -2.7,-2.864 -2.7,-4.381 0,-0.389 0.235,-0.877 0.713,-0.877 1.432,0 3.341,3.744 6.063,3.744 1.025,0 2.55,-0.391 3.349,-0.391 C -0.242,-0.634 0,-0.243 0,0 m 2.081,-38.663 c 1.268,3.994 2.863,6.779 5.485,11.083 -2.622,1.353 -9.553,4.225 -9.553,8.934 0,5.494 6.846,9.793 8.278,9.793 0.62,0 0.798,-0.542 0.798,-1.592 0,-2.868 -1.36,-7.495 -1.36,-9.96 0,-2.231 1.432,-4.389 2.707,-4.389 1.361,0 5.101,4.788 5.101,9.49 0,8.453 -7.416,11.008 -9.711,11.008 -2.144,0 -6.048,-3.527 -15.225,-3.527 -17.135,0 -21.04,16.992 -21.04,24.395 0,0.324 0.064,0.409 0.157,0.409 0.393,0 2.067,-2.076 7.488,-2.076 2.8,0 5.351,0.712 9.419,0.712 9.541,0 13.787,-6.604 19.679,-15.061 3.577,-2.227 12.112,-5.818 12.112,-15.942 0,-8.934 -9.505,-13.876 -11.799,-23.437 3.662,0.403 5.821,6.939 9.569,6.939 1.91,0 2.785,-1.524 2.785,-3.911 0,-3.505 -1.987,-8.77 -5.813,-12.026 0.079,0.313 0.079,0.712 0.079,1.189 0,2.227 -0.884,5.422 -3.434,5.422 -3.977,0 -5.244,-4.307 -7.49,-7.89 -2.3,8.125 -5.414,15.471 -10.993,19.931 -5.65,4.531 -15.382,2.073 -15.382,10.359 0,2.23 1.426,5.412 1.426,7.966 0,0.884 -0.158,1.681 -0.635,2.323 7.66,-2.875 4.944,-7.98 9.662,-13.238 2.927,-3.356 11.064,-6.548 15.781,-20.327 0.063,0.392 0.141,1.432 0.141,2.145 0,11.809 -15.602,23.361 -16.956,28.149 9.063,-1.04 10.665,-3.277 14.969,-15.229 0.877,-2.468 3.755,-8.61 3.755,-11.642" /></g><g
           transform="translate(287.9249,358.5069)"
           id="g100"><path
             id="path102"
             style="fill:#0233cc;fill-opacity:1;fill-rule:nonzero;stroke:none"
             d="m 0,0 c -5.586,0 -9.248,2.8 -9.248,4.226 0,0.719 0.477,1.203 1.112,1.203 1.752,0 5.577,-2.707 6.868,-2.707 0.313,0 0.555,0.139 0.555,0.638 0,1.428 -1.353,3.815 -1.353,5.023 0,0.309 0.234,0.545 0.712,0.545 2.151,0 5.343,-0.884 7.032,-0.884 0.549,0 0.705,0.339 0.705,0.648 0,1.753 -5.186,5.187 -5.186,6.221 0,0.95 6.448,2.393 6.448,3.897 0,1.603 -8.756,0.491 -8.756,2.002 0,1.111 1.666,3.028 1.666,3.904 0,0.399 -0.313,0.559 -0.876,0.559 -0.712,0 -4.546,-1.51 -6.135,-1.51 -0.797,0 -1.759,0.16 -1.759,1.272 0,1.834 3.113,3.825 7.98,3.825 7.88,0 12.582,-5.432 12.582,-14.506 C 12.347,2.861 4.31,0 0,0 m -15.546,15.147 c 0,0.877 -3.114,2.551 -3.114,3.513 0,0.15 0.157,0.235 0.406,0.235 0.877,0 2.394,-0.32 3.584,-0.32 1.055,0 1.196,4.46 1.988,4.46 0.555,0 1.51,-4.225 2.401,-4.225 1.033,0 2.935,1.204 3.747,1.204 0.15,0 0.322,-0.078 0.322,-0.239 0,-0.556 -2.003,-2.718 -2.003,-3.353 0,-0.708 4.46,-1.588 4.46,-2.222 0,-0.798 -4.538,-0.72 -4.538,-1.439 0,-0.563 1.667,-2.793 1.667,-3.513 0,-0.157 -0.079,-0.231 -0.242,-0.231 -0.635,0 -3.093,1.108 -3.812,1.108 -0.89,0 -2.301,-3.256 -3.022,-3.256 -0.249,0 -0.391,0.306 -0.391,0.712 l -0.171,3.185 c 0,0.313 -0.15,0.648 -0.548,0.648 -0.97,0 -2.801,0.064 -3.371,0.064 -0.392,0 -0.555,0.086 -0.555,0.246 0,0.638 3.192,2.868 3.192,3.423 M -17.861,2.088 c 1.282,0 1.524,-3.117 1.758,-4.945 0.164,-0.965 0.321,-1.051 0.728,-1.051 0.961,0 2.472,3.673 3.483,3.673 1.525,0 5.593,-4.225 12.369,-4.225 9.633,0 18.738,6.783 18.738,18.731 0,11.563 -8.136,18.332 -19.372,18.332 -5.343,0 -9.255,-2.629 -11.328,-2.629 -1.262,-0.078 -3.185,3.107 -4.14,3.107 -0.392,0 -0.791,-0.781 -0.791,-2.152 0,-0.873 0,-3.655 -0.961,-3.655 -1.917,0 -9.327,5.482 -9.327,3.498 0,-1.828 4.937,-7.402 4.937,-8.849 0,-1.432 -4.866,-2.786 -4.866,-3.755 0,-1.746 5.188,-2.066 5.188,-4.289 0,-2.233 -5.416,-4 -5.416,-5.657 0,-1.353 5.416,-0.413 5.416,-2.084 0,-1.667 -3.984,-7.249 -3.984,-8.849 0,-0.381 0.078,-0.381 0.4,-0.381 1.51,0 6.056,5.18 7.168,5.18" /></g><g
           transform="translate(233.9542,220.6153)"
           id="g104"><path
             id="path106"
             style="fill:#0233cc;fill-opacity:1;fill-rule:nonzero;stroke:none"
             d="m 0,0 c 0,-0.734 -0.235,-1.532 -0.875,-2.323 -0.877,1.589 -3.356,2.401 -4.468,2.401 -8.201,0 -5.101,-11.884 -13.857,-11.884 -3.669,0 -3.998,0.492 -5.351,0.492 -0.555,0 -0.877,-0.257 -0.877,-0.727 0,-2.073 2.957,-7.174 11.158,-7.174 8.214,0 16.116,5.015 16.116,11.242 0,1.034 -0.242,2.138 -0.727,3.264 0.314,0.477 1.126,0.797 1.831,0.797 1.276,0 2.003,-1.446 3.199,-1.446 1.276,0 2.231,0.969 2.231,2.244 0,1.027 -0.564,1.746 -1.51,2.238 0.633,0.477 1.11,1.268 1.11,2.151 C 7.98,2.622 7.026,3.89 5.429,3.89 4.703,3.89 4.226,3.655 3.67,3.113 3.527,4.531 2.722,5.892 1.205,5.892 0,5.892 -0.875,5.023 -0.875,3.655 -0.875,2.387 0,1.347 0,0" /></g><g
           transform="translate(190.2798,235.4273)"
           id="g108"><path
             id="path110"
             style="fill:#0233cc;fill-opacity:1;fill-rule:nonzero;stroke:none"
             d="m 0,0 c 6.377,-1.574 9.555,-5.016 10.203,-9.077 0.634,-3.897 1.432,-7.103 2.943,-8.692 1.988,-2.23 5.899,-4.21 9.333,-4.21 2.864,0 5.172,0.94 5.172,3.576 0,2.857 -3.911,9.326 -9.639,9.326 -0.563,0 -1.276,-0.085 -2.074,-0.085 -0.719,0 -1.759,0.163 -2.394,0.72 C 12.269,-7.331 11.87,-1.346 9.483,2.237 6.854,6.227 3.982,7.346 0.072,7.346 -2.714,7.346 -5.821,5.828 -5.821,3.605 -5.821,2.237 -5.108,1.283 0,0 m 22.237,-17.854 c -2.394,0 -5.978,2.564 -5.978,3.99 0,1.203 1.112,1.845 1.988,1.845 2.002,0 5.579,-2.48 5.579,-4.553 0,-0.563 -0.399,-1.282 -1.589,-1.282" /></g><g
           transform="translate(205.1856,279.6719)"
           id="g112"><path
             id="path114"
             style="fill:#0233cc;fill-opacity:1;fill-rule:nonzero;stroke:none"
             d="m 0,0 c 0,5.108 12.112,7.816 12.112,14.107 0,1.047 -0.393,2.878 -1.119,4.232 4.232,-2.322 7.332,-6.22 7.332,-9.412 0,-5.492 -5.736,-8.04 -5.736,-11.47 0,-3.994 6.134,-4.631 6.134,-9.569 0,-4.068 -5.821,-8.77 -5.821,-14.025 0,-4.068 2.872,-7.413 7.26,-7.972 -1.439,-0.318 -2.707,-0.567 -4.06,-0.567 -8.059,0 -16.345,6.619 -16.345,14.524 0,3.908 1.675,7.32 4.219,9.789 2.244,-1.906 4.467,-3.181 5.899,-3.181 1.282,0 1.844,0.634 1.844,1.589 C 11.719,-8.999 0,-6.294 0,0 m 25.428,-40.24 c -2.736,-1.261 -3.826,-1.048 -3.826,-3.847 0,-1.034 -0.243,-2.38 -0.243,-3.1 0,-0.955 0.157,-1.51 1.275,-1.51 2.866,0 7.411,4.859 7.411,9.005 0,1.112 -0.635,1.596 -1.355,1.596 -0.633,0 -1.353,-1.282 -3.262,-2.144 m -0.314,5.735 c 0,3.577 -7.417,3.655 -7.417,9.077 0,1.365 0.869,3.662 2.622,6.141 0.727,-4.139 2.393,-6.291 5.993,-7.655 7.081,-2.622 8.042,-6.608 8.042,-10.84 0,-7.168 -5.022,-16.095 -17.933,-16.095 -10.365,0 -17.783,9.248 -17.783,17.049 0,2.152 0.564,4.56 1.91,4.56 1.197,0 1.603,-0.969 2.558,-1.931 3.583,-3.583 7.488,-4.538 13.159,-4.538 5.094,0 8.849,2.066 8.849,4.232" /></g><g
           transform="translate(173.8365,243.4356)"
           id="g116"><path
             id="path118"
             style="fill:#0233cc;fill-opacity:1;fill-rule:nonzero;stroke:none"
             d="m 0,0 c 0.199,-1.674 -0.991,-3.163 -2.651,-3.37 -1.667,-0.185 -3.17,1.012 -3.355,2.672 -0.207,1.667 0.99,3.177 2.65,3.37 C -1.689,2.857 -0.186,1.667 0,0 m -14.897,-3.142 c 0.341,-2.714 2.877,-4.78 5.756,-4.46 1.026,0.1 1.987,0.399 2.622,0.798 0.633,-2.55 2.778,-4.196 5.671,-3.812 2.942,0.378 4.931,2.694 4.609,5.636 -0.078,0.805 -0.235,1.297 -0.477,1.838 0,0 0.399,0.05 0.684,0.107 2.878,0.534 4.824,2.85 4.582,5.639 C 8.229,5.468 5.657,7.599 2.971,7.282 1.937,7.139 0.982,6.754 0.327,6.191 c -0.712,2.387 -2.956,4.468 -6.02,3.962 -2.786,-0.463 -4.609,-2.818 -4.332,-5.799 0.043,-0.478 0.15,-1.034 0.399,-1.59 0,0 -0.47,-0.064 -0.791,-0.113 -2.33,-0.346 -4.852,-2.687 -4.48,-5.793" /></g></g></g></g></svg>