<?xml version="1.0" encoding="UTF-8"?>
<svg version="1.1" xmlns="http://www.w3.org/2000/svg" width="320" height="132">
<path d="M0 0 C3.5 1.875 3.5 1.875 6 4 C6 4.66 6 5.32 6 6 C6.47308594 5.566875 6.94617188 5.13375 7.43359375 4.6875 C10.93026948 1.74293097 13.84267162 -0.46421283 18.5 -0.8125 C27.71745003 0.1295578 35.5087425 11.35366395 41.80249023 17.67211914 C43.45507182 19.33012955 45.11302199 20.98263976 46.77148438 22.63476562 C47.82584219 23.68978311 48.87989038 24.74511014 49.93359375 25.80078125 C50.42830673 26.29347 50.92301971 26.78615875 51.432724 27.29377747 C54.68445225 30.56805289 56.17878954 32.51562984 56.5 37.125 C56.43209116 43.1882892 53.11135214 45.93701671 49 50 C47.84513839 51.34647542 46.69914963 52.70061564 45.5625 54.0625 C42.61394851 57.44640809 39.41175177 60.30754948 35.98828125 63.19921875 C33.24225801 65.68628498 30.90130923 68.44948599 28.54296875 71.30078125 C26.5128641 73.53646612 24.77812375 74.87076616 21.765625 75.37109375 C15.13005342 75.54625635 12.0126978 74.35886765 7 70 C6.21625 70.825 5.4325 71.65 4.625 72.5 C1.0466629 75.46781513 -2.05611027 75.74413226 -6.61328125 75.46484375 C-12.67398685 74.28444446 -15.35047228 69.72814097 -18.625 64.9375 C-26.23456888 52.23238832 -28.13088899 38.94175583 -25.3046875 24.4296875 C-21.87218077 13.15145109 -13.61686242 -2.15407993 0 0 Z M-14 14 C-20.07556979 25.21403369 -21.7484169 36.83661022 -19.3515625 49.3984375 C-16.97429496 57.30234412 -12.79414436 63.20585564 -7 69 C-4.02824216 69.54526438 -1.9792245 69.64552759 0.60855103 67.93960571 C2.38239156 66.37996354 4.03194795 64.74696694 5.67578125 63.05078125 C6.28640915 62.44115036 6.89703705 61.83151947 7.52616882 61.20341492 C8.81154451 59.91336614 10.08955763 58.61594498 11.3605957 57.31176758 C13.30583566 55.31932605 15.2763649 53.3548826 17.25195312 51.39257812 C18.49898835 50.1343889 19.74448485 48.87467235 20.98828125 47.61328125 C21.57676346 47.02662186 22.16524567 46.43996246 22.77156067 45.83552551 C25.75950528 42.74231735 27.88836512 40.5249673 28 36 C26.927183 33.97976134 26.927183 33.97976134 25.125 32.25 C24.48433594 31.57453125 23.84367187 30.8990625 23.18359375 30.203125 C22.46300781 29.47609375 21.74242187 28.7490625 21 28 C20.20722656 27.16984375 19.41445313 26.3396875 18.59765625 25.484375 C15.38333286 22.15370226 15.38333286 22.15370226 12 19 C11.34 19 10.68 19 10 19 C10.495 18.38125 10.99 17.7625 11.5 17.125 C13.19222773 15.16119096 13.19222773 15.16119096 13 13 C17.5899582 16.74690466 21.55076486 20.5911703 25.359375 25.12890625 C27.10566444 27.20529556 27.10566444 27.20529556 29.875 29.5 C32.32653701 32.38416119 32.76922977 34.18148279 33.25 37.83984375 C32.36612169 45.4771048 26.01263697 50.33171171 20.8125 55.375 C19.96751953 56.20644531 19.12253906 57.03789063 18.25195312 57.89453125 C16.17461163 59.93666356 14.09058192 61.971439 12 64 C13.3089572 67.12197478 13.3089572 67.12197478 16 69 C18.94806313 69.47526254 21.04894749 69.62870617 23.60855103 67.93664551 C25.38055104 66.36456259 27.03163718 64.72104926 28.67578125 63.015625 C29.28640915 62.40362244 29.89703705 61.79161987 30.52616882 61.16107178 C31.81146693 59.86672655 33.08948162 58.56511334 34.3605957 57.25683594 C36.30741428 55.25522885 38.27720116 53.2787018 40.25195312 51.3046875 C41.49882075 50.04307334 42.74431179 48.78009689 43.98828125 47.515625 C44.57676346 46.92380432 45.16524567 46.33198364 45.77156067 45.722229 C49.47134624 41.91489328 49.47134624 41.91489328 51 37 C49.01159552 32.66957844 45.78993534 29.43884118 42.484375 26.078125 C41.95032043 25.53267029 41.41626587 24.98721558 40.86602783 24.42523193 C39.73918146 23.27957536 38.60946419 22.13673623 37.47705078 20.99658203 C35.75502239 19.25507919 34.05550318 17.49341281 32.35546875 15.73046875 C31.25393123 14.61587442 30.151108 13.50254897 29.046875 12.390625 C28.54557068 11.86462708 28.04426636 11.33862915 27.527771 10.79669189 C23.88428978 7.19781313 21.10031531 6.12837007 16 6 C9.81386449 9.94632782 5.44934472 18.98353767 3.45581055 25.88354492 C1.19454413 36.38323349 2.19038206 48.44517864 7 58 C5.68 58.66 4.36 59.32 3 60 C-2.96095283 51.05857075 -4.25753464 40.36162612 -2.46484375 29.8671875 C-1.04519919 23.1801186 0.89776995 17.09422858 4 11 C1.52197879 8.08468093 -0.1459318 6.2413671 -3.875 5.1875 C-8.88194675 6.48930616 -11.18041073 9.80676467 -14 14 Z " fill="#7851A2" transform="translate(264,28)"/>
<path d="M0 0 C5.70908421 2.1286448 9.67786354 5.25261583 12.625 10.625 C15.49153534 17.80338261 15.52126153 26.99884678 13.5546875 34.4453125 C11.17042352 39.71473625 7.42432529 43.25670421 2.2734375 45.78125 C-3.48582806 47.91870938 -9.17711967 48.08838022 -15.25 48.125 C-16.05211914 48.13055908 -16.85423828 48.13611816 -17.68066406 48.1418457 C-23.49321819 48.06928181 -23.49321819 48.06928181 -25.75 45.8125 C-25.99050903 43.82565308 -25.99050903 43.82565308 -25.97705078 41.36279297 C-25.97689972 40.44198944 -25.97674866 39.52118591 -25.97659302 38.57247925 C-25.96627045 37.57660797 -25.95594788 36.58073669 -25.9453125 35.5546875 C-25.9424826 34.53649933 -25.93965271 33.51831116 -25.93673706 32.4692688 C-25.9255177 29.208561 -25.90040996 25.94812516 -25.875 22.6875 C-25.86497247 20.48047271 -25.85584623 18.27344112 -25.84765625 16.06640625 C-25.82557268 10.64834428 -25.79207795 5.23044157 -25.75 -0.1875 C-19.3315488 -3.3967256 -6.79143848 -1.84368805 0 0 Z M-18.75 4.8125 C-18.75 17.0225 -18.75 29.2325 -18.75 41.8125 C-6.65726524 42.55985583 -6.65726524 42.55985583 3.25 37.8125 C7.81941151 31.91648515 7.95765767 25.01864787 7.25 17.8125 C5.89586498 13.14653761 4.02233579 10.44002283 0.25 7.375 C-6.45134613 3.88471556 -10.41409131 4.8125 -18.75 4.8125 Z " fill="#0979BC" transform="translate(156.75,42.1875)"/>
<path d="M0 0 C5.88547764 4.79954668 9.22696085 10.92806857 10.05078125 18.4765625 C10.15451893 26.90006232 9.3493819 33.69800114 4.08984375 40.5 C-1.17828203 45.83397735 -6.92283049 47.18475522 -14.28515625 47.3984375 C-20.54362329 46.99154026 -25.90842667 44.97065376 -30.28515625 40.3984375 C-36.24009498 32.72485823 -36.4245818 23.71324136 -35.28515625 14.3984375 C-32.75645617 7.41544675 -29.51974202 2.44480809 -23.22265625 -1.5390625 C-15.98293439 -4.11318583 -6.66118819 -3.97136378 0 0 Z M-24.28515625 7.3984375 C-28.47734168 14.33722718 -29.44827467 21.71098559 -27.82421875 29.65234375 C-26.20097081 34.68441237 -23.86075309 37.54948098 -19.28515625 40.3984375 C-14.22252252 42.08598208 -9.88449439 41.51932457 -5.04296875 39.40234375 C-0.94851173 37.06395385 0.72589513 33.91067338 1.96484375 29.5234375 C3.46204148 22.30721422 2.87304834 16.06437131 -0.28515625 9.3984375 C-3.42063157 5.63586711 -5.59438601 3.68094522 -10.5546875 3.16015625 C-16.31541362 2.99202446 -19.86436238 3.30111635 -24.28515625 7.3984375 Z " fill="#0979BC" transform="translate(214.28515625,43.6015625)"/>
<path d="M0 0 C2.93896484 0.05419922 2.93896484 0.05419922 6 1 C7.67431641 3.19970703 7.67431641 3.19970703 8.9765625 6.1328125 C9.7176123 7.76524902 9.7176123 7.76524902 10.47363281 9.43066406 C10.97733398 10.60854492 11.48103516 11.78642578 12 13 C12.5269043 14.19077148 13.05380859 15.38154297 13.59667969 16.60839844 C14.9611693 19.71264064 16.27989033 22.83395593 17.57958984 25.96582031 C18.38481694 27.89856307 19.20591647 29.8240959 20.02734375 31.75 C20.54785331 32.99698793 21.06742016 34.24436987 21.5859375 35.4921875 C22.0504834 36.59933105 22.5150293 37.70647461 22.99365234 38.84716797 C24.02876446 42.09011748 24.19665512 44.61995034 24 48 C21.525 48.495 21.525 48.495 19 49 C18.15930585 47.39967863 17.32768495 45.79458829 16.5 44.1875 C16.0359375 43.29417969 15.571875 42.40085938 15.09375 41.48046875 C14 39 14 39 14 36 C6.41 36 -1.18 36 -9 36 C-9.99 38.97 -10.98 41.94 -12 45 C-13.6875 47.5625 -13.6875 47.5625 -15 49 C-16.9375 48.6875 -16.9375 48.6875 -19 48 C-20.43197969 43.70406092 -18.5885366 40.81271649 -16.921875 36.82421875 C-16.5946344 36.02143997 -16.2673938 35.21866119 -15.93023682 34.39155579 C-14.87898758 31.8198154 -13.81439574 29.25382299 -12.75 26.6875 C-12.04735904 24.96973543 -11.34552644 23.25163997 -10.64453125 21.53320312 C-9.96687986 19.87990728 -9.28851695 18.22690286 -8.609375 16.57421875 C-8.29361511 15.80526779 -7.97785522 15.03631683 -7.65252686 14.24406433 C-2.97383471 2.97383471 -2.97383471 2.97383471 0 0 Z M2 7 C0.4943349 10.62267294 -1.00356546 14.24850549 -2.5 17.875 C-2.92925781 18.90753906 -3.35851562 19.94007812 -3.80078125 21.00390625 C-4.20683594 21.99003906 -4.61289062 22.97617187 -5.03125 23.9921875 C-5.40830078 24.90339355 -5.78535156 25.81459961 -6.17382812 26.75341797 C-7.11504919 28.91390327 -7.11504919 28.91390327 -7 31 C-0.73 31 5.54 31 12 31 C7.545 19.12 7.545 19.12 3 7 C2.67 7 2.34 7 2 7 Z " fill="#0979BC" transform="translate(62,41)"/>
<path d="M0 0 C1.97973633 0.77075195 1.97973633 0.77075195 3.65551758 4.1027832 C4.21785627 5.59004113 4.76221883 7.08417144 5.29223633 8.58325195 C5.58493408 9.3726416 5.87763184 10.16203125 6.17919922 10.9753418 C7.13264379 13.56706743 8.05896768 16.16724797 8.97973633 18.77075195 C9.31005859 19.69839355 9.64038086 20.62603516 9.98071289 21.58178711 C12.01275452 27.30047653 14.00851149 33.03083283 15.97973633 38.77075195 C19.8347215 30.51391161 22.80318533 21.99435901 25.77612305 13.39013672 C26.4250434 11.51661029 27.08118583 9.64559019 27.73754883 7.7746582 C28.31206787 6.11672241 28.31206787 6.11672241 28.89819336 4.42529297 C29.97973633 1.77075195 29.97973633 1.77075195 31.97973633 -0.22924805 C34.04223633 -0.04174805 34.04223633 -0.04174805 35.97973633 0.77075195 C37.11585853 4.17911857 36.86868649 4.78668437 35.67211914 8.02685547 C35.36139465 8.88106583 35.05067017 9.73527618 34.73052979 10.6153717 C34.38479919 11.53418625 34.0390686 12.45300079 33.68286133 13.3996582 C33.33342468 14.34509995 32.98398804 15.29054169 32.6239624 16.26463318 C31.88191722 18.26439728 31.1351423 20.26241169 30.3840332 22.25878906 C29.23490072 25.31949663 28.10640416 28.38726157 26.97973633 31.45629883 C26.25701126 33.39621186 25.5330926 35.33568072 24.80786133 37.2746582 C24.47022766 38.19549698 24.13259399 39.11633575 23.784729 40.06507874 C23.46139587 40.91613693 23.13806274 41.76719513 22.80493164 42.64404297 C22.52433899 43.39444351 22.24374634 44.14484406 21.95465088 44.91798401 C20.97973633 46.77075195 20.97973633 46.77075195 17.97973633 48.77075195 C15.09119337 48.62632481 13.55249846 48.37328805 11.53320312 46.24902344 C9.35067261 42.76719611 8.03228869 39.09276982 6.62426758 35.2434082 C6.31776779 34.41747665 6.01126801 33.5915451 5.69548035 32.74058533 C5.05095761 30.99772697 4.40986023 29.25359854 3.77197266 27.50830078 C2.79553137 24.84224865 1.80341989 22.18240069 0.80981445 19.52270508 C0.18450929 17.8257915 -0.43987095 16.12853675 -1.06323242 14.4309082 C-1.36005417 13.63805923 -1.65687592 12.84521027 -1.96269226 12.02833557 C-3.36514351 8.15433835 -4.41554897 4.96014952 -4.02026367 0.77075195 C-2.02026367 -0.22924805 -2.02026367 -0.22924805 0 0 Z " fill="#0979BC" transform="translate(4.020263671875,41.229248046875)"/>
<path d="M0 0 C1.65 0.33 3.3 0.66 5 1 C5 14.86 5 28.72 5 43 C12.59 43 20.18 43 28 43 C28.33 44.65 28.66 46.3 29 48 C26.23212904 50.76787096 17.79425962 49.23540143 14.0625 49.25 C12.74830078 49.270625 11.43410156 49.29125 10.08007812 49.3125 C8.82775391 49.31765625 7.57542969 49.3228125 6.28515625 49.328125 C5.12894775 49.3374707 3.97273926 49.34681641 2.78149414 49.35644531 C1.86360107 49.23881836 0.94570801 49.12119141 0 49 C-2.07772637 45.88341044 -2.25146755 45.19031298 -2.25878906 41.65209961 C-2.26509338 40.7778685 -2.27139771 39.90363739 -2.27789307 39.00291443 C-2.2738446 38.0622261 -2.26979614 37.12153778 -2.265625 36.15234375 C-2.26753845 35.18470596 -2.2694519 34.21706818 -2.27142334 33.22010803 C-2.27278428 31.17497497 -2.26909419 29.12983325 -2.26074219 27.0847168 C-2.25002988 23.94625561 -2.2606466 20.80836535 -2.2734375 17.66992188 C-2.27211612 15.68489456 -2.26955416 13.69986761 -2.265625 11.71484375 C-2.26967346 10.7721312 -2.27372192 9.82941864 -2.27789307 8.85813904 C-2.27158875 7.98706009 -2.26528442 7.11598114 -2.25878906 6.21850586 C-2.25719788 5.45034042 -2.25560669 4.68217499 -2.25396729 3.89073181 C-2 2 -2 2 0 0 Z " fill="#0979BC" transform="translate(95,41)"/>
<path d="M0 0 C2.38869167 1.94124222 4.71068735 3.94245661 7 6 C7.52078125 6.46792969 8.0415625 6.93585937 8.578125 7.41796875 C11.27837555 10.18805336 12.42017481 12.60464541 12.75 16.375 C12.44318553 22.05106776 9.06602094 25.34719257 5 29 C3.68119166 30.01907917 2.35176265 31.02505614 1 32 C0.50499002 24.5748503 0.50499002 24.5748503 2.9375 21.75 C3.618125 21.1725 4.29875 20.595 5 20 C6.07642709 18.11149645 6.07642709 18.11149645 6 16 C4.10679924 11.89806503 1.25669165 9.08065427 -2 6 C-1.34 4.02 -0.68 2.04 0 0 Z " fill="#1575B7" transform="translate(308,49)"/>
<path d="M0 0 C2.31 1.98 4.62 3.96 7 6 C6.34 7.98 5.68 9.96 5 12 C2.69 10.02 0.38 8.04 -2 6 C-1.34 4.02 -0.68 2.04 0 0 Z " fill="#2C74B6" transform="translate(308,49)"/>
<path d="M0 0 C0.66 0 1.32 0 2 0 C2.33 1.98 2.66 3.96 3 6 C1.68 6.99 0.36 7.98 -1 9 C-1.09765625 2.84765625 -1.09765625 2.84765625 -1 1 C-0.67 0.67 -0.34 0.34 0 0 Z " fill="#2E74B7" transform="translate(310,72)"/>
</svg>
